<?xml version="1.0" standalone="no"?>
<!DOCTYPE svg PUBLIC "-//W3C//DTD SVG 1.1//EN" "http://www.w3.org/Graphics/SVG/1.1/DTD/svg11.dtd" >
<svg xmlns="http://www.w3.org/2000/svg">
<metadata>Generated by IcoMoon</metadata>
<defs>
<font id="icomoon" horiz-adv-x="1024">
<font-face units-per-em="1024" ascent="960" descent="-64" />
<missing-glyph horiz-adv-x="1024" />
<glyph unicode="&#x20;" horiz-adv-x="512" d="" />
<glyph unicode="&#xe900;" glyph-name="cta-icon" d="M956.992 460.288l-457.285 457.285-457.276-457.464 457.285-457.096 457.276 457.276zM499.712 831.744l371.456-371.456-371.541-371.456-371.371 371.371 371.456 371.541z" />
<glyph unicode="&#xe901;" glyph-name="facebook" horiz-adv-x="595" d="M575.39 950.248c-48.762 4.876-97.524 9.752-146.286 9.752-165.79 0-268.19-102.4-268.19-273.067v-112.152h-136.533c-14.629 0-24.381-14.629-24.381-24.381v-190.171c0-14.629 9.752-24.381 24.381-24.381h136.533v-375.467c0-14.629 9.752-24.381 24.381-24.381h195.048c14.629 0 24.381 9.752 24.381 24.381v375.467h136.533c14.629 0 24.381 9.752 24.381 19.505l24.381 190.171c0 14.629-9.752 24.381-19.505 29.257 0 0 0 0-4.876 0h-160.914v92.648c0 48.762 9.752 68.267 68.267 68.267h97.524c14.629 0 24.381 9.752 24.381 24.381v165.79c4.876 14.629-4.876 24.381-19.505 24.381zM546.133 784.457h-73.143c-102.4 0-117.029-68.267-117.029-117.029v-121.905c0-14.629 9.752-24.381 24.381-24.381h156.038l-19.505-141.41h-136.533c-14.629 0-24.381-9.752-24.381-24.381v-370.59h-146.286v375.467c0 14.629-9.752 24.381-24.381 24.381h-136.533v141.41h136.533c14.629 0 24.381 9.752 24.381 24.381v136.533c0 141.41 82.895 224.305 219.429 224.305 48.762 0 92.648-4.876 121.905-4.876v-121.905z" />
<glyph unicode="&#xe902;" glyph-name="noun-bed-1641049" horiz-adv-x="1722" d="M82.195 905.679c0 54.223-82.067 54.223-82.067 0v-929.111c0-54.223 82.067-54.223 82.067 0v175.491h1558.165v-175.491c0-54.223 82.067-54.223 82.067 0v612.202c0 54.223-82.067 54.223-82.067 0v-355.011h-1558.165v671.92zM171.955 537.478v-192.71c0-22.715 18.685-41.033 41.033-41.033h1296.212c22.715 0 41.033 18.318 41.033 41.033v192.71c0 22.715-18.318 41.033-41.033 41.033h-1295.845c-22.715 0-41.4-18.318-41.4-41.033v0zM254.022 496.445h1214.145v-110.643h-1214.145v110.643zM477.873 662.043c113.208 109.911 32.24 298.224-125.664 298.224-97.454 0-178.421-77.304-178.421-174.391 0-154.241 191.244-233.377 304.086-123.833zM420.719 850.357c89.394-86.463-47.994-216.524-137.388-129.694-89.028 86.463 47.994 216.524 137.388 129.694z" />
<glyph unicode="&#xe903;" glyph-name="noun-business-man-4201355" horiz-adv-x="930" d="M464.996 960c-137.986 0-250.15-111.962-250.15-249.545 0-100.262 59.713-186.604 145.45-226.143-206.575-47.206-360.296-231.187-360.296-451.883v-78.676c0-4.64 1.816-9.28 5.245-12.507 3.228-3.228 7.868-5.245 12.507-5.245h894.689c9.683 0 17.551 8.069 17.551 17.753v78.676c0 220.697-153.721 404.476-360.296 451.682 85.737 39.54 145.652 125.882 145.652 226.143 0 137.784-112.366 249.746-250.351 249.746v0zM464.996 924.697c119.023 0 215.048-95.823 215.048-214.241s-96.025-214.039-215.048-214.039-214.846 95.622-214.846 214.039 96.025 214.241 214.846 214.241zM464.996 460.709c24.813 0 49.021-2.219 72.624-6.052l-9.28-62.134-33.286-4.035 0.202-1.009h-67.379l-25.62 3.026-9.683 63.95c23.401 4.236 47.609 6.254 72.422 6.254v0zM357.875 447.395l12.104-80.29c1.412-8.675 8.675-14.928 17.349-14.928h7.868l-28.646-236.23c-0.807-6.052 1.614-11.902 6.455-15.735l80.895-65.362c6.455-5.245 15.735-5.245 22.191 0l80.895 65.362c4.64 3.833 7.262 9.683 6.455 15.735l-28.646 236.028h7.666c8.675 0 16.139 6.455 17.349 14.928l12.104 80.29c185.998-47.206 322.572-214.443 322.572-414.966v-61.125h-859.184v61.125c0 200.927 136.372 368.164 322.572 415.168v0zM430.903 352.177h68.589l27.839-230.582-62.336-50.232-62.134 50.232 28.041 230.582z" />
<glyph unicode="&#xe904;" glyph-name="noun-chat-1561009" horiz-adv-x="1025" d="M512 960c-120.381 0.19-237.143-42.095-329.333-119.619-92.381-77.333-154.286-184.952-175.048-303.429s0.952-240.762 61.333-344.952l-66.667-199.81c-3.429-10.095-2.857-20.952 1.524-30.667s12-17.524 21.714-21.714c9.714-4.381 20.762-4.762 30.667-1.524l199.81 66.667c91.048-52.762 196-76 300.762-67.048 104.762 9.143 204.19 50.095 284.762 117.714s138.476 158.286 165.524 259.81c27.238 101.524 22.476 208.952-13.524 307.81s-101.524 184.19-187.619 244.381c-86.095 60.19-188.762 92.381-293.905 92.381v0zM512 21.333c-80.762 0-159.619 23.048-227.81 66.286-6.857 4.381-14.667 6.667-22.857 6.667-4.571 0-9.143-0.762-13.524-2.286l-137.714-45.905 45.905 137.905c4 12.19 2.476 25.524-4.381 36.19-50.476 80-72.952 174.667-63.81 268.762 9.143 94.286 49.333 182.667 114.286 251.619s151.048 114.095 244.571 128.762 189.333-2.286 272.19-48 148.19-117.714 185.714-204.762c37.524-86.857 44.952-183.81 21.333-275.429s-77.143-172.762-152-230.667c-75.238-57.905-167.238-89.333-261.905-89.143v0zM554.667 448c0-23.619-19.048-42.667-42.667-42.667s-42.667 19.048-42.667 42.667 19.048 42.667 42.667 42.667 42.667-19.048 42.667-42.667zM384 448c0-23.619-19.048-42.667-42.667-42.667s-42.667 19.048-42.667 42.667 19.048 42.667 42.667 42.667 42.667-19.048 42.667-42.667zM725.333 448c0-23.619-19.048-42.667-42.667-42.667s-42.667 19.048-42.667 42.667 19.048 42.667 42.667 42.667 42.667-19.048 42.667-42.667z" />
<glyph unicode="&#xe905;" glyph-name="noun-construction-3733045" horiz-adv-x="1085" d="M270.373 241.784c-13.331 0-24.371-10.832-24.371-24.371 0-13.331 10.832-24.371 24.371-24.371 12.706 0 24.788-4.999 33.745-13.956s13.956-21.038 13.956-33.745c0-13.331 10.832-24.371 24.371-24.371 13.331 0 24.371 10.832 24.371 24.371 0 25.413-10.207 49.992-28.329 67.906-18.122 18.33-42.701 28.329-68.114 28.537v0zM1080.241 846.477c-3.749 5.207-9.582 8.749-15.831 9.582-6.457 1.041-12.915-0.625-18.122-4.374l-197.884-145.601c-6.249-4.583-9.998-11.873-9.998-19.58v-70.822c-24.996 25.413-57.699 41.66-92.902 46.451-2.5 30.828-9.373 61.24-20.413 89.985-24.788 62.073-229.129 207.883-309.116 207.883-81.028 0-280.996-153.725-299.535-206.425-9.582-33.12-13.748-67.489-12.915-101.858-46.659-18.539-82.278-57.491-96.651-105.608s-5.832-100.192 23.121-141.227l84.361-119.98c-43.118-48.325-61.657-113.731-49.992-177.471s52.283-118.314 109.774-148.101 125.605-31.037 184.345-3.749c58.74 27.287 101.442 80.195 115.814 143.518h116.856c7.29 0 14.164 3.124 18.747 8.749l26.246 31.453 103.733-119.356c15.831-18.33 38.744-28.954 62.906-28.954 10.207 0 20.205 1.875 29.787 5.416 16.039 5.832 29.787 16.664 39.577 30.62s14.998 30.828 14.789 47.909v599.069l188.094 138.311c5.207 3.749 8.749 9.582 9.582 15.831 1.041 6.666-0.625 13.123-4.374 18.33v0zM162.474 737.536c11.665 31.662 191.011 173.93 253.709 173.93 61.865 0 248.501-138.936 263.915-177.263v0c8.54-22.705 14.164-46.242 16.456-70.405h-532.205c-3.958 0-7.915-0.625-12.081-0.833v0c-0.208 25.204 3.333 50.2 10.207 74.571v0zM61.865 552.775c9.582 18.955 24.371 34.786 42.493 45.826s38.952 16.664 60.199 16.456h558.242c22.080 0.208 43.743-5.832 62.282-17.705s33.328-28.745 42.493-48.95c6.874-14.581 10.623-30.203 11.248-46.451v-4.166c-0.208-26.662-9.79-52.283-27.079-72.697l-128.521-154.35h-245.585c-32.495 43.326-80.404 72.488-133.937 81.028s-108.316-3.958-152.683-34.994l-81.237 115.606c-12.29 17.289-19.58 37.494-21.038 58.74-1.458 21.871 3.124 42.91 13.123 61.657v0zM270.373-15.466v0c-42.701 0-83.528 16.872-113.731 47.076s-47.076 71.030-47.076 113.731 16.872 83.528 47.076 113.731 71.030 47.076 113.731 47.076 83.528-16.872 113.731-47.076 47.076-71.030 47.076-113.731-17.081-83.528-47.284-113.731c-29.995-29.995-70.822-47.076-113.523-47.076v0zM580.114 147.632h-100.192c-0.208 25.621-5.207 51.242-14.789 74.988h177.263l-62.282-74.988zM815.492 41.816v0c-6.666-2.708-14.164-3.124-21.038-1.25s-13.123 5.624-17.914 11.248l-108.941 125.188 170.597 204.967v-307.242c0.208-7.29-2.083-14.164-6.041-20.205-3.958-5.832-9.79-10.207-16.664-12.706v0z" />
<glyph unicode="&#xe906;" glyph-name="noun-cross-1769568" d="M997.053 933.053c-35.93 35.93-93.907 35.93-129.021 0l-356.032-356.032-356.032 356.032c-35.93 35.93-93.907 35.93-129.021 0s-35.93-93.907 0-129.021l356.032-356.032-356.032-356.032c-35.93-35.93-35.93-93.907 0-129.021s93.907-35.93 129.021 0l356.032 356.032 356.032-356.032c35.93-35.93 93.907-35.93 129.021 0s35.93 93.907 0 129.021l-356.032 356.032 356.032 356.032c35.93 35.113 35.93 93.091 0 129.021v0z" />
<glyph unicode="&#xe907;" glyph-name="noun-customer-support-4376343" horiz-adv-x="960" d="M896 442v102c0 229.429-186.571 416-416 416s-416-186.571-416-416v-102c-37.143-13.143-64-48.571-64-90v-64c0-52.857 43.143-96 96-96h38c13.143-37.143 48.571-64 90-64h64c35.429 0 64 28.571 64 64v256c0 35.429-28.571 64-64 64h-64c-41.714 0-76.857-26.857-90-64h-6v96c0 194 158 352 352 352s352-158 352-352v-96h-6c-13.143 37.143-48.571 64-90 64h-64c-35.429 0-64-28.571-64-64v-256c0-35.429 28.571-64 64-64h64c41.714 0 76.857 26.857 90 64h6v-64c0-35.429-28.571-64-64-64h-166c-13.143 37.143-48.571 64-90 64h-32c-52.857 0-96-43.143-96-96s43.143-96 96-96h32c41.714 0 76.857 26.857 90 64h166c70.571 0 128 57.429 128 128v70c37.143 13.143 64 48.571 64 90v64c0 41.714-26.857 76.857-64 90v0zM64 288v64c0 17.714 14.286 32 32 32h32v-128h-32c-17.714 0-32 14.286-32 32v0zM192 416c0 17.714 14.286 32 32 32h64v-256h-64c-17.714 0-32 14.286-32 32v192zM512 0h-32c-17.714 0-32 14.286-32 32s14.286 32 32 32h32c17.714 0 32-14.286 32-32s-14.286-32-32-32zM768 224c0-17.714-14.286-32-32-32h-64v256h64c17.714 0 32-14.286 32-32v-192zM896 288c0-17.714-14.286-32-32-32h-32v128h32c17.714 0 32-14.286 32-32v-64z" />
<glyph unicode="&#xe908;" glyph-name="noun-diamond-1807567" horiz-adv-x="815" d="M407.438 960c-12.888 0-23.282-10.394-23.282-23.282v-139.693c0-12.888 10.394-23.282 23.282-23.282s23.282 10.394 23.282 23.282v139.693c0 12.68-10.394 23.282-23.282 23.282zM69.847 820.307c-6.028 0-11.849-2.287-16.422-6.86-9.147-9.147-9.147-24.114 0-33.052l98.949-98.533c9.147-9.147 23.698-9.147 32.844 0s9.147 23.698 0 32.844l-98.533 98.949c-4.573 4.158-10.81 6.652-16.838 6.652v0zM745.030 820.307c-6.028 0-12.265-2.287-16.838-6.86l-98.533-98.949c-9.147-9.147-9.147-23.698 0-32.844s23.698-9.147 32.844 0l98.949 98.533c9.147 9.147 9.147 24.114 0 33.052-4.573 4.573-10.394 7.068-16.422 7.068v0zM155.7 624.487l-151.334-209.54c-6.236-8.523-5.613-21.203 1.455-29.103l384.156-442.361c8.731-9.978 26.192-9.978 34.923 0l384.156 442.361c7.068 7.899 7.691 20.58 1.455 29.103l-151.334 209.54c-4.365 5.821-11.641 9.562-18.917 9.562h-465.644c-8.107 0.208-15.591-4.573-18.917-9.562v0zM207.669 587.485h153.413l-102.483-139.277-50.93 139.277zM453.587 587.485h153.413l-50.93-139.277-102.483 139.277zM407.438 571.063l108.304-146.553h-216.4l108.096 146.553zM167.756 561.916l50.306-137.406h-149.463l99.157 137.406zM647.12 561.916l99.365-137.406h-149.463l50.098 137.406zM74.212 377.946h160.481l115.787-317.843-276.268 317.843zM284.167 377.946h246.957l-123.687-339.462-123.271 339.462zM580.184 377.946h160.481l-276.060-318.051 115.579 318.051z" />
<glyph unicode="&#xe909;" glyph-name="noun-download-file-4457145" horiz-adv-x="829" d="M121.835 911.308c-40.333 0-73.143-32.81-73.143-73.143v-780.121c0-40.333 32.81-73.143 73.143-73.143h585.143c40.333 0 73.143 32.81 73.143 73.143v540.212c0 21.316-9.404 41.587-25.496 55.589l-279.824 239.7c-13.166 11.285-30.093 17.554-47.647 17.554l-305.319 0.209zM0 838.165c0 67.291 54.544 121.835 121.835 121.835h305.319c29.048 0 57.26-10.449 79.412-29.257l279.824-239.909c26.958-23.197 42.632-57.051 42.632-92.578v-540.212c0-67.291-54.544-121.835-121.835-121.835h-585.143c-67.5-0.209-122.044 54.335-122.044 121.626v780.33zM438.857 740.571v170.736h48.692v-170.736c0-40.333 32.81-73.143 73.143-73.143h219.429v-48.692h-219.429c-67.291 0-121.835 54.544-121.835 121.835zM609.593 82.286h-390.165v48.692h390.165v-48.692zM438.857 253.022v292.571h-48.692v-292.571h48.692zM397.27 235.677c9.613-9.613 24.869-9.613 34.482 0l146.286 146.286-34.482 34.482-129.149-129.149-129.149 129.149-34.482-34.482 146.495-146.286z" />
<glyph unicode="&#xe90a;" glyph-name="noun-dropdown-3574472" horiz-adv-x="1797" d="M6.982 780.218l791.855-791.855c0 0 100.073-126.836 221.673 12.8l735.418 747.055c30.836 31.418 47.709 76.218 38.982 119.855-5.818 29.091-22.109 58.182-61.091 74.473-97.745 40.145-156.509-23.855-156.509-23.855l-674.909-678.4-680.145 677.818c0 0-80.291 75.055-158.836 23.855-77.964-51.2-66.327-151.855-56.436-161.745z" />
<glyph unicode="&#xe90b;" glyph-name="noun-education-576649" horiz-adv-x="1419" d="M709.527 335.109c-5.575 0-11.15 1.014-16.471 3.294l-665.182 268.1c-16.725 6.842-27.874 23.060-27.874 41.051s10.896 34.463 27.874 41.051l665.182 268.1c10.643 4.308 22.553 4.308 33.196 0l664.928-268.1c16.725-6.842 27.874-23.060 27.874-41.051s-10.896-34.463-27.874-41.051l-665.182-268.1c-5.321-2.281-10.896-3.294-16.471-3.294v0zM162.938 647.555l546.589-220.207 546.589 220.207-546.589 220.207-546.589-220.207zM709.527-64c-230.85 0-416.594 127.462-424.449 133.036-11.91 8.362-19.005 21.793-19.005 36.49v406.965c0 24.58 19.765 44.345 44.345 44.345s44.345-19.765 44.345-44.345v-382.638c49.92-29.902 191.826-105.162 354.764-105.162 163.698 0 305.097 75.007 354.764 104.909v382.891c0 24.58 19.765 44.345 44.345 44.345s44.345-19.765 44.345-44.345v-407.218c0-14.444-7.095-28.128-19.005-36.49-7.855-5.321-193.6-132.783-424.449-132.783v0zM1374.709-64c-24.58 0-44.345 19.765-44.345 44.345v665.182c0 24.58 19.765 44.345 44.345 44.345s44.345-19.765 44.345-44.345v-665.182c0-24.58-19.765-44.345-44.345-44.345z" />
<glyph unicode="&#xe90c;" glyph-name="noun-filter-4025735" horiz-adv-x="1036" d="M248.55 960c-65.519 0-120.682-45.229-137.379-105.676h-73.973c-9.934 0-19.233-3.804-26.208-10.779-7.186-7.186-10.99-16.485-10.99-26.419 0-9.722 4.016-19.233 10.99-26.208s16.485-10.779 26.208-10.779h73.762c16.485-60.658 71.648-106.099 137.379-106.099 65.096 0 119.837 44.595 136.956 104.408l613.343 1.902c9.722 0 19.233 4.016 26.208 10.779 6.975 6.975 10.779 16.274 10.779 26.208 0 9.722-4.016 19.233-10.779 25.996-6.975 6.975-16.274 10.779-25.996 10.779l-612.286-1.902c-16.063 61.715-71.86 107.789-138.013 107.789v0zM248.55 886.027c38.466 0 68.901-30.435 68.901-68.901s-30.435-68.901-68.901-68.901-69.112 30.435-69.112 68.901 30.435 68.901 69.112 68.901zM643.567 602.604c-66.787 0-122.795-46.075-139.281-107.578h-467.088c-9.722 0-19.233-3.804-26.208-10.779s-10.99-16.274-10.99-26.208c0-9.934 3.804-19.233 10.779-26.208s16.485-10.779 26.208-10.779h467.088c16.697-61.715 72.705-107.789 139.281-107.789s122.584 46.075 139.281 107.789h215.79c9.722 0 19.233 4.016 26.208 10.779 6.975 6.975 10.779 16.274 10.779 26.208 0 9.722-4.016 19.233-10.779 25.996-6.975 6.975-16.274 10.779-25.996 10.779h-215.79c-16.485 61.715-72.494 107.789-139.281 107.789v0zM643.567 528.631c39.523 0 70.803-31.069 70.803-70.592s-31.28-70.803-70.803-70.803-70.803 31.28-70.803 70.803 31.28 70.592 70.803 70.592v0zM356.128 225.552c-66.576 0-122.795-46.075-139.281-107.578h-179.649c-9.934 0-19.233-3.804-26.208-10.779-7.186-7.186-10.99-16.697-10.99-26.419s4.016-19.233 10.99-26.208c6.975-6.975 16.485-10.779 26.208-10.779h179.649c16.485-61.715 72.705-108.001 139.492-108.001s122.795 46.075 139.281 108.001h503.229c9.722 0 19.233 3.804 25.996 10.779 6.975 6.975 10.779 16.274 10.779 25.996s-3.804 19.233-10.779 26.208c-6.975 6.975-16.274 10.99-26.208 10.99h-503.229c-16.697 61.715-72.705 107.789-139.281 107.789v0zM356.128 151.579c39.523 0 70.803-31.28 70.803-70.803s-31.28-70.803-70.803-70.803-70.803 31.28-70.803 70.803 31.28 70.803 70.803 70.803z" />
<glyph unicode="&#xe90d;" glyph-name="noun-forest-1338217" horiz-adv-x="1100" d="M963.823 53.012h-166.373c-25.172 0-48.575 10.030-65.881 27.139 0.983 0 1.77 0.197 2.753 0.197 0.787 0 1.573 0.197 2.36 0.197 1.18 0.197 2.557 0.197 3.737 0.393 0.787 0 1.573 0.197 2.36 0.197 1.377 0.197 2.557 0.393 3.933 0.59 0.59 0.197 1.377 0.197 1.967 0.197 1.573 0.197 3.147 0.59 4.523 0.787 0.393 0 0.787 0.197 1.377 0.197 3.933 0.787 7.866 1.573 11.8 2.36 0.393 0 0.59 0.197 0.983 0.197 1.573 0.393 3.147 0.787 4.72 1.18 0.59 0.197 1.18 0.393 1.573 0.393 1.377 0.393 2.753 0.787 4.13 1.18 0.59 0.197 1.18 0.393 1.967 0.59 1.18 0.393 2.557 0.787 3.737 1.18 0.59 0.197 1.377 0.393 1.967 0.59 1.18 0.393 2.36 0.787 3.54 1.18 0.787 0.197 1.377 0.393 2.163 0.787 1.18 0.393 2.36 0.787 3.343 1.18 0.787 0.197 1.377 0.59 2.163 0.787 1.18 0.393 2.163 0.787 3.343 1.18 0.787 0.197 1.377 0.59 2.163 0.787 1.18 0.393 2.163 0.787 3.343 1.377 0.787 0.393 1.377 0.59 2.163 0.983 0.983 0.393 2.163 0.983 3.147 1.377 0.787 0.393 1.377 0.59 2.163 0.983 0.983 0.393 2.163 0.983 3.147 1.573 0.59 0.393 1.377 0.59 1.967 0.983 0.983 0.59 2.163 0.983 3.147 1.573 0.59 0.393 1.377 0.59 1.967 0.983 0.983 0.59 2.163 1.18 3.147 1.573 0.59 0.393 1.377 0.787 1.967 0.983 0.983 0.59 2.163 1.18 3.147 1.77 0.59 0.393 1.18 0.787 1.967 0.983 0.983 0.59 2.163 1.18 3.147 1.967 0.59 0.393 1.18 0.787 1.77 0.983 1.18 0.59 2.163 1.377 3.343 1.967 0.59 0.393 0.983 0.59 1.573 0.983 1.18 0.787 2.36 1.573 3.343 2.163 0.393 0.393 0.983 0.59 1.377 0.983 1.18 0.787 2.557 1.77 3.737 2.557 0.393 0.197 0.59 0.393 0.983 0.59 4.72 3.343 9.44 6.883 13.766 10.62 0.197 0.197 0.393 0.393 0.59 0.393 1.18 0.983 2.557 2.163 3.737 3.147 0.393 0.393 0.787 0.59 0.983 0.983 0.983 0.983 2.163 1.967 3.147 2.753 0.393 0.393 0.787 0.787 1.377 1.18 0.983 0.983 1.967 1.77 2.95 2.753 0.393 0.393 0.983 0.983 1.377 1.377 0.983 0.787 1.77 1.77 2.753 2.557 0.393 0.393 0.983 0.983 1.377 1.377 0.787 0.787 1.77 1.77 2.557 2.557 0.393 0.59 0.983 0.983 1.377 1.573 0.787 0.787 1.573 1.77 2.557 2.557 0.393 0.59 0.983 0.983 1.377 1.573 0.787 0.787 1.573 1.77 2.36 2.753 0.393 0.59 0.983 1.18 1.377 1.573 0.787 0.983 1.573 1.77 2.36 2.753 0.393 0.59 0.983 1.18 1.377 1.77 0.787 0.983 1.573 1.77 2.163 2.753 0.393 0.59 0.983 1.18 1.377 1.77 0.787 0.983 1.377 1.77 2.163 2.753 0.393 0.59 0.787 1.18 1.377 1.77 0.787 0.983 1.377 1.967 2.163 2.95 0.393 0.59 0.787 1.18 1.18 1.77 0.787 0.983 1.377 1.967 2.163 2.95 0.393 0.59 0.787 1.18 1.18 1.77 0.787 0.983 1.377 2.163 2.163 3.147 0.393 0.59 0.787 1.18 1.18 1.573 0.787 1.18 1.377 2.163 2.163 3.343 0.393 0.59 0.59 0.983 0.983 1.573 0.787 1.18 1.377 2.36 2.163 3.54 0.197 0.393 0.59 0.983 0.787 1.377 0.787 1.377 1.573 2.753 2.36 4.326 0.197 0.197 0.393 0.59 0.393 0.787 2.753 5.113 5.31 10.423 7.866 15.733 0.197 0.393 0.393 0.787 0.393 1.18 0.59 1.377 1.18 2.753 1.77 4.13 0.197 0.59 0.393 0.983 0.59 1.573 0.59 1.18 0.983 2.557 1.573 3.737 0.197 0.59 0.393 1.18 0.787 1.77 0.393 1.18 0.983 2.36 1.377 3.54 0.197 0.59 0.393 1.377 0.787 1.967 0.393 1.18 0.787 2.36 1.18 3.54 0.197 0.787 0.393 1.377 0.787 2.163 0.393 1.18 0.787 2.36 1.18 3.54 0.197 0.787 0.393 1.377 0.59 2.163 0.393 1.18 0.787 2.36 0.983 3.343 0.197 0.787 0.393 1.573 0.59 2.163 0.393 1.18 0.59 2.36 0.983 3.343 0.197 0.787 0.393 1.573 0.59 2.36 0.197 1.18 0.59 2.36 0.787 3.54 0.197 0.787 0.393 1.573 0.59 2.36 0.197 1.18 0.59 2.36 0.787 3.54 0.197 0.787 0.393 1.573 0.393 2.36 0.197 1.18 0.393 2.36 0.59 3.54 0.197 0.787 0.197 1.573 0.393 2.36 0.197 1.18 0.393 2.36 0.59 3.54 0.197 0.787 0.197 1.573 0.393 2.36 0.197 1.18 0.393 2.36 0.59 3.737 0.197 0.787 0.197 1.573 0.393 2.36 0.197 1.18 0.393 2.557 0.393 3.737 0 0.787 0.197 1.377 0.197 2.163 0.197 1.377 0.197 2.753 0.393 4.13 0 0.59 0.197 1.377 0.197 1.967 0.197 1.377 0.197 2.95 0.197 4.326 0 0.59 0 1.18 0.197 1.77 0 1.77 0.197 3.54 0.197 5.31 0 0.197 0 0.59 0 0.787 0 2.163 0 4.13 0 6.293 0 0.197 0 0.197 0 0.393 0 2.95 0 5.9-0.197 8.85 0 0.983-0.197 1.967-0.197 3.147-0.197 2.163-0.197 4.326-0.393 6.49 0 0.787 0 1.377-0.197 2.163 29.499-23.009 46.215-57.424 46.215-94.593 0-1.18 0-2.557 0-3.737-0.197-7.866 3.737-15.143 10.62-19.076 28.319-16.716 45.821-47.591 45.821-80.237 0.197-51.131-41.692-93.019-93.216-93.019v0zM571.686 201.489l122.321 87.906c9.636 6.883 11.8 20.452 4.916 30.089s-20.452 11.8-30.089 4.916l-97.149-69.814v181.516l80.433 57.818c9.636 6.883 11.8 20.452 4.916 30.089s-20.452 11.8-30.089 4.916l-55.261-39.725v112.095c0 11.8-9.636 21.436-21.632 21.436s-21.632-9.636-21.632-21.436v-238.153l-95.379 68.634c-9.636 6.883-23.206 4.72-30.089-4.916s-4.72-23.009 4.916-30.089l120.748-86.726v-187.809h-139.431c-17.306 0-34.219 2.163-50.148 6.293-86.726 22.419-150.837 101.082-150.837 194.495 0 2.557 0 5.31 0.197 7.866 0 0.787 0 1.377 0.197 2.163 0.197 1.967 0.197 3.737 0.393 5.703 0 0.787 0.197 1.77 0.197 2.557 0.197 1.77 0.393 3.737 0.59 5.506 0.197 1.18 0.393 2.557 0.393 3.737 0.197 1.77 0.59 3.54 0.787 5.31 0.197 1.573 0.59 3.147 0.787 4.72 0.197 0.787 0.197 1.377 0.393 2.163 11.21 54.868 45.428 103.836 94.593 132.941 6.686 3.933 10.816 11.406 10.62 19.076 0 2.557-0.197 5.113-0.197 7.866 0 78.86 35.988 151.82 98.722 200.198 6.293 4.916 9.44 12.783 8.063 20.649-1.377 8.456-2.163 16.913-2.163 25.172 0 81.81 66.667 148.28 148.477 148.28s148.477-66.471 148.477-148.28c0-8.26-0.787-16.716-2.163-25.172-1.377-7.866 1.77-15.733 8.063-20.649 62.734-48.378 98.722-121.338 98.722-200.198 0-2.557 0-5.113-0.197-7.866-0.197-7.866 3.737-15.143 10.62-19.076 49.361-29.105 83.58-78.27 94.789-133.334 0-0.393 0.197-0.983 0.197-1.377 0.393-1.77 0.787-3.54 0.983-5.31 0.197-0.787 0.197-1.573 0.393-2.36 0.393-2.36 0.787-4.916 0.983-7.276 0.197-1.573 0.393-2.95 0.59-4.523 0.197-0.983 0.197-2.163 0.197-3.147 0.197-1.573 0.197-3.343 0.393-4.916 0-0.983 0.197-1.77 0.197-2.753 0-2.36 0.197-4.916 0.197-7.276 0-0.197 0-0.197 0-0.393 0-110.719-90.266-200.788-201.181-200.788h-139.627l-0.197 79.253zM302.854 53.012h-166.373c-51.524 0-93.413 41.888-93.413 93.216 0 32.842 17.503 63.521 45.821 80.237 6.686 3.933 10.816 11.406 10.62 19.076 0 1.18 0 2.557 0 3.737 0 37.168 16.913 71.78 46.215 94.593 0-0.59 0-1.18-0.197-1.77-0.197-2.36-0.393-4.916-0.393-7.276 0-0.787 0-1.573-0.197-2.557-0.197-3.147-0.197-6.293-0.197-9.44 0-3.54 0-6.883 0.197-10.226 0-0.59 0-1.18 0-1.77 0-1.377 0.197-2.557 0.197-3.933 0-0.787 0-1.377 0.197-2.163 0-1.18 0.197-2.36 0.393-3.737 0-0.787 0.197-1.573 0.197-2.36 0.197-1.18 0.197-2.36 0.393-3.54 0-0.787 0.197-1.573 0.197-2.36 0.197-1.18 0.393-2.36 0.393-3.54 0.197-0.787 0.197-1.573 0.393-2.36 0.197-1.18 0.393-2.36 0.59-3.343 0.197-0.787 0.197-1.573 0.393-2.557 0.197-1.18 0.393-2.163 0.59-3.343 0.197-0.787 0.393-1.573 0.393-2.557 0.197-1.18 0.393-2.163 0.787-3.343 0.197-0.787 0.393-1.573 0.59-2.36 0.197-1.18 0.59-2.163 0.787-3.343 0.197-0.787 0.393-1.573 0.59-2.36 0.197-1.18 0.59-2.163 0.787-3.147 0.197-0.787 0.393-1.573 0.59-2.36 0.197-0.983 0.59-2.163 0.983-3.147 0.197-0.787 0.393-1.573 0.787-2.36 0.393-0.983 0.59-2.163 0.983-3.147 0.197-0.787 0.59-1.573 0.787-2.36 0.393-0.983 0.787-2.163 0.983-3.147 0.197-0.787 0.59-1.573 0.787-2.36 0.393-0.983 0.787-2.163 1.18-3.147 0.197-0.787 0.59-1.573 0.787-2.163 0.393-0.983 0.787-2.163 1.18-3.147 0.197-0.787 0.59-1.377 0.787-2.163 0.393-1.18 0.787-2.163 1.377-3.147 0.197-0.59 0.59-1.377 0.787-1.967 0.393-1.18 0.983-2.163 1.377-3.343 0.197-0.59 0.393-0.983 0.787-1.573 1.967-4.13 3.933-8.26 6.096-12.389 0.197-0.393 0.393-0.787 0.787-1.377 0.59-0.983 1.18-2.163 1.77-3.147 0.393-0.59 0.787-1.18 0.983-1.967 0.59-0.983 1.18-1.967 1.77-2.95 0.393-0.59 0.787-1.377 1.18-1.967 0.59-0.983 1.18-1.77 1.77-2.753 0.393-0.787 0.787-1.377 1.377-2.163 0.59-0.983 1.18-1.77 1.77-2.753 0.393-0.787 0.983-1.377 1.377-2.163 0.59-0.787 1.18-1.77 1.77-2.557s0.983-1.377 1.573-2.163 1.18-1.77 1.77-2.557c0.59-0.787 0.983-1.377 1.573-2.163s1.18-1.573 1.77-2.36c0.59-0.787 0.983-1.377 1.573-2.163s1.18-1.573 1.967-2.36c0.59-0.787 1.18-1.377 1.77-2.163s1.18-1.573 1.967-2.36c0.59-0.787 1.18-1.377 1.77-1.967 0.59-0.787 1.377-1.573 1.967-2.36 0.59-0.59 1.18-1.377 1.77-1.967 0.59-0.787 1.377-1.573 1.967-2.163s1.18-1.377 1.77-1.967c0.59-0.787 1.377-1.377 1.967-2.163 0.59-0.59 1.18-1.377 1.967-1.967 0.787-0.787 1.377-1.377 2.163-2.163 0.59-0.59 1.377-1.377 1.967-1.967 0.787-0.59 1.377-1.377 2.163-1.967 0.59-0.59 1.377-1.18 1.967-1.967 0.787-0.59 1.377-1.377 2.163-1.967s1.377-1.18 2.163-1.967c0.787-0.59 1.377-1.18 2.163-1.967 0.787-0.59 1.573-1.18 2.163-1.967 0.787-0.59 1.377-1.18 2.163-1.77s1.573-1.377 2.36-1.967c0.983-0.787 1.77-1.573 2.753-2.163 1.18-0.983 2.36-1.967 3.737-2.753 0.59-0.59 1.377-0.983 1.967-1.573 0.787-0.59 1.77-1.18 2.557-1.967 0.787-0.59 1.377-0.983 2.163-1.573s1.77-1.18 2.557-1.77c0.787-0.59 1.573-0.983 2.163-1.573 0.787-0.59 1.77-1.18 2.557-1.77 0.787-0.393 1.573-0.983 2.36-1.377 0.787-0.59 1.77-0.983 2.557-1.573 0.787-0.393 1.573-0.983 2.36-1.377 0.787-0.59 1.77-0.983 2.557-1.573 0.787-0.393 1.573-0.983 2.36-1.377s1.77-0.983 2.557-1.377c0.787-0.393 1.573-0.787 2.36-1.377 0.983-0.393 1.77-0.983 2.753-1.377 0.787-0.393 1.573-0.787 2.36-1.18 0.983-0.393 1.77-0.983 2.753-1.377 0.787-0.393 1.573-0.787 2.557-1.18s1.77-0.787 2.753-1.377c0.787-0.393 1.573-0.787 2.557-1.18s1.77-0.787 2.753-1.18c0.787-0.393 1.77-0.787 2.557-0.983 0.983-0.393 1.967-0.787 2.95-1.18 0.787-0.393 1.77-0.59 2.557-0.983 0.983-0.393 1.967-0.787 2.95-1.18 0.787-0.393 1.77-0.59 2.557-0.983 0.983-0.393 1.967-0.787 2.95-0.983 0.787-0.197 1.573-0.59 2.557-0.787 0.983-0.393 2.163-0.59 3.147-0.983 0.787-0.197 1.573-0.59 2.36-0.787 0.983-0.393 2.163-0.59 3.343-0.983 0.787-0.197 1.573-0.393 2.36-0.787 1.18-0.393 2.36-0.59 3.54-0.983 0.787-0.197 1.573-0.393 2.163-0.59 1.377-0.393 2.557-0.59 3.933-0.983 0.59-0.197 1.18-0.393 1.77-0.393 3.933-0.983 7.67-1.77 11.603-2.36 0.59-0.197 1.18-0.197 1.77-0.393 1.377-0.197 2.753-0.393 4.13-0.59 0.787-0.197 1.573-0.197 2.36-0.393 1.18-0.197 2.36-0.393 3.737-0.59 0.787-0.197 1.573-0.197 2.36-0.393 1.18-0.197 2.36-0.197 3.54-0.393 0.787 0 1.77-0.197 2.557-0.197s1.77-0.197 2.557-0.197c-17.109-16.126-40.512-26.156-65.684-26.156v0zM1043.666 256.75c-1.967 44.051-21.239 84.76-54.081 114.062 0.197 1.967 0.197 3.737 0.197 5.703 0 56.048-41.495 101.869-95.969 108.359-13.963 15.733-29.892 29.695-47.591 41.495-0.983 86.923-39.135 167.356-105.606 223.011 0.59 6.49 0.983 13.176 0.983 19.469 0 105.409-85.94 191.152-191.545 191.152s-191.545-85.743-191.545-191.152c0-6.49 0.393-12.979 0.983-19.469-66.471-55.654-104.622-136.088-105.606-223.011-17.699-11.8-33.629-25.762-47.591-41.495-54.474-6.49-95.969-52.311-95.969-108.359 0-1.967 0-3.737 0.197-5.703-32.842-29.302-52.114-70.010-54.081-114.062-35.005-25.566-56.441-66.667-56.441-110.522 0-75.123 61.161-136.284 136.481-136.284h61.554v-52.508c0-11.8 9.636-21.436 21.632-21.436s21.632 9.636 21.632 21.436v52.508h61.554c49.558 0 94.789 26.746 118.782 69.224h106.785v-121.732c0-11.8 9.636-21.436 21.632-21.436s21.632 9.636 21.632 21.436v121.732h106.785c23.992-42.478 69.224-69.224 118.782-69.224h61.554v-52.508c0-11.8 9.636-21.436 21.632-21.436s21.632 9.636 21.632 21.436v52.508h61.554c75.32 0 136.481 61.161 136.481 136.284 0.197 43.855-21.239 84.956-56.441 110.522v0z" />
<glyph unicode="&#xe90e;" glyph-name="noun-garden-2816078" horiz-adv-x="1023" d="M1003.173-22.88h-245.386v255.8c71.293 3.204 124.963 22.696 163.947 59.544 51.801 49.131 76.9 127.099 76.9 238.444 0 112.68-25.9 218.952-73.429 299.323-49.398 83.575-116.151 129.769-187.978 129.769s-138.58-45.926-187.978-129.769c-47.262-80.371-73.429-186.376-73.429-299.323 0-111.345 25.099-189.58 76.9-238.444 38.984-36.848 92.654-56.607 163.947-59.544v-255.8h-241.915v89.717h78.769c11.482 0 20.56 9.078 20.56 20.56s-9.078 20.56-20.56 20.56h-90.785l-21.628 21.628h83.843c11.482 0 20.56 9.078 20.56 20.56v106.272c0 11.482-9.078 20.56-20.56 20.56h-450.72c-11.482 0-20.56-9.078-20.56-20.56v-106.272c0-11.482 9.078-20.56 20.56-20.56h83.843l-21.628-21.628h-90.785c-11.482 0-20.56-9.078-20.56-20.56s9.078-20.56 20.56-20.56h78.769v-89.717h-103.869c-11.482 0-20.56-9.078-20.56-20.56s9.078-20.56 20.56-20.56h982.346c11.482 0 20.56 9.078 20.56 20.56s-9.078 20.56-20.293 20.56v0zM93.989 170.439v65.151h410.134v-65.151h-410.134zM404.794 107.69h-211.208l21.628 21.628h167.685l21.895-21.628zM433.631-22.88h-268.883v89.717h268.883v-89.717zM737.227 705.268c-11.482 0-20.56-9.078-20.56-20.56v-237.643l-90.518 90.785c-8.010 8.010-20.827 8.010-29.105 0-8.010-8.010-8.010-20.827 0-29.105l119.622-119.889v-115.35c-101.999 4.272-199.727 44.324-199.727 257.402 0 105.471 24.031 204.533 67.822 278.496 41.654 70.759 95.591 109.476 152.465 109.476s111.078-38.984 152.732-109.476c43.79-73.963 67.822-172.758 67.822-278.496 0-212.81-97.727-253.13-199.727-257.402v246.988l81.973 81.973c8.010 8.010 8.010 20.827 0 29.105-8.010 8.010-20.827 8.010-29.105 0l-52.869-53.136v105.738c-0.267 11.749-9.346 21.094-20.827 21.094v0z" />
<glyph unicode="&#xe90f;" glyph-name="noun-gym-4502257" horiz-adv-x="1685" d="M1594.608 568.481h-15.125v208.994c0.344 16.156-5.844 31.624-17.187 43.311s-26.468 18.218-42.624 18.562h-90.747v61.186c-1.031 16.499-8.25 31.968-20.624 43.311s-28.53 16.843-45.030 16.156h-109.309c-16.499 0.687-32.655-5.156-45.030-16.156s-19.593-26.468-20.624-43.311v-332.052h-691.604v331.709c-1.031 16.499-8.25 31.968-20.624 43.311s-28.53 16.843-45.030 16.156h-109.309c-16.499 0.687-32.655-5.156-45.030-16.156s-19.593-26.468-20.624-43.311v-61.186h-90.747c-16.156-0.344-31.28-6.875-42.624-18.562s-17.187-27.155-17.187-43.311v-208.65h-15.125c-24.062 0-46.749-9.625-63.936-26.468-16.843-16.843-26.468-39.874-26.468-63.936v-60.154c0-24.062 9.625-46.749 26.468-63.936 16.843-16.843 39.874-26.468 63.936-26.468h15.125v-208.994c-0.344-16.156 5.844-31.624 17.187-43.311s26.468-18.218 42.624-18.562h90.747v-61.186c1.031-16.499 8.25-31.968 20.624-43.311s28.53-16.843 45.030-16.156h109.309c16.499-0.687 32.655 5.156 45.030 16.156s19.593 26.468 20.624 43.311v332.396h691.948v-331.709c1.031-16.499 8.25-31.968 20.624-43.311s28.53-16.843 45.030-16.156h109.309c16.499-0.687 32.655 5.156 45.030 16.156s19.593 26.468 20.624 43.311v61.186h90.403c16.156 0.344 31.28 6.875 42.624 18.562s17.187 27.155 17.187 43.311v208.65h15.125c24.062 0 46.749 9.625 63.936 26.468 16.843 16.843 26.468 39.874 26.468 63.936v60.154c0 24.062-9.625 46.749-26.468 63.936-17.187 16.499-40.218 26.124-63.936 26.124v0zM90.403 388.017c-16.499 0-29.905 13.406-30.249 30.249v60.154c0 16.499 13.406 29.905 30.249 30.249h15.125v-120.309l-15.125-0.344zM255.398 117.494l-89.716 1.375-0.344 659.98 90.747-1.375-0.687-659.98zM431.049-2.814h-109.309c-2.062 0-3.781 0.344-4.812 0.344-0.344 0-0.687 0-0.687-0.344l-0.687 900.254c1.719 1.375 4.125 2.062 6.187 2.062h109.309c3.094 0 5.156-1.031 5.5 0l0.687-900.254c-1.719-1.719-4.125-2.406-6.187-2.062v0zM496.704 388.017v120.309h691.604v-120.309h-691.604zM1363.271-2.814h-109.309c-2.062 0-3.781 0.344-4.812 0.344-0.344 0-0.687 0-0.687-0.344l-0.687 900.254c1.719 1.375 4.125 2.062 6.187 2.062h109.309c3.094 0 5.156-1.031 5.5 0l0.687-900.254c-1.719-1.719-3.781-2.406-6.187-2.062zM1428.925 117.494v661.355l90.060-1.375 0.344-659.98h-90.403zM1624.513 417.923c0-16.499-13.406-29.905-30.249-30.249h-15.125v120.309h15.125c16.499 0 29.905-13.406 30.249-30.249v-59.811z" />
<glyph unicode="&#xe910;" glyph-name="noun-highway-4459934" horiz-adv-x="970" d="M268.647 926.737c0.462 2.079 0.693 4.158 0.693 6.468 0.231 14.784-12.012 26.795-26.795 26.795-13.167 0-24.023-9.24-26.333-21.714l-215.518-969.023c-0.462-2.079-0.693-4.158-0.693-6.468 0-14.784 12.012-27.026 27.026-27.026 13.167 0 24.023 9.24 26.333 21.714l215.287 969.254zM398.928 906.178l-203.737-916.356h579.566l-203.506 916.356h-172.322zM349.957 934.591c3.234 14.784 16.401 25.409 31.646 25.409h206.971c15.246 0 28.181-10.626 31.646-25.409l213.208-959.321c4.389-20.097-10.857-39.269-31.646-39.269h-633.388c-20.79 0-36.035 19.173-31.646 39.269l213.208 959.321zM485.089 690.429c-14.784 0-27.026 12.012-27.026 27.026v107.875c0 14.784 12.012 27.026 27.026 27.026s27.026-12.012 27.026-27.026v-107.875c0-14.784-12.243-27.026-27.026-27.026zM458.063 501.937c0-14.784 12.012-27.026 27.026-27.026s27.026 12.012 27.026 27.026v107.875c0 14.784-12.012 27.026-27.026 27.026s-27.026-12.012-27.026-27.026v-107.875zM485.089 259.393c-14.784 0-27.026 12.012-27.026 27.026v107.644c0 14.784 12.012 27.026 27.026 27.026s27.026-12.012 27.026-27.026v-107.875c0-14.784-12.243-26.795-27.026-26.795zM458.063 70.67c0-14.784 12.012-27.026 27.026-27.026s27.026 12.012 27.026 27.026v107.875c0 14.784-12.012 27.026-27.026 27.026s-27.026-12.012-27.026-27.026v-107.875zM700.607 932.974c0-2.31 0.231-4.389 0.693-6.468l215.518-969.023c2.541-12.243 13.398-21.714 26.333-21.714 14.784 0 27.026 12.012 27.026 27.026 0 2.31-0.231 4.389-0.693 6.468l-215.518 969.023c-2.31 12.474-13.167 21.714-26.333 21.714-14.784 0-27.026-12.012-27.026-27.026v0z" />
<glyph unicode="&#xe911;" glyph-name="noun-hospital-1407354" horiz-adv-x="841" d="M147.012 717.875c9.532 0 18.429 3.813 25.208 10.38 6.779 6.779 10.38 15.676 10.38 25.208v170.949c0 12.71-6.779 24.573-17.794 30.928s-24.573 6.355-35.588 0-17.794-18.006-17.794-30.928v-49.993h-16.523c-25.208 0-49.357-9.956-67.151-27.75s-27.75-41.943-27.75-67.151v-110.365c0-69.058 24.996-135.573 70.329-187.472s108.035-85.58 176.457-94.901v-201.665c0-88.97 47.451-171.161 124.558-215.646s172.008-44.485 249.115 0 124.558 126.676 124.558 215.646v141.081c41.096 11.651 74.141 42.367 88.546 82.827 14.405 40.248 8.050 85.157-16.523 119.897-24.573 34.952-64.821 55.712-107.611 55.712s-82.827-20.76-107.611-55.712c-24.573-34.952-30.928-79.649-16.523-119.897s47.239-71.176 88.546-82.827v-140.022c0-63.55-33.893-122.228-88.97-154.002s-122.863-31.775-177.94 0-88.97 90.453-88.97 154.002v200.394c69.058 8.473 132.607 41.731 178.575 93.842s71.6 119.050 71.6 188.531v110.365c0 25.208-9.956 49.357-27.75 67.151s-41.943 27.75-67.151 27.75h-15.464v50.204c0 12.71-6.779 24.573-17.794 30.928s-24.573 6.355-35.588 0-17.794-18.006-17.794-30.928v-170.737c0-12.71 6.779-24.573 17.794-30.928s24.573-6.355 35.588 0c11.015 6.355 17.794 18.006 17.794 30.928v49.781h16.523c6.355 0 12.286-2.542 16.735-6.99s6.99-10.38 6.99-16.735v-110.365c-5.508-72.235-47.027-136.844-110.789-171.585s-140.657-34.741-204.207 0c-63.762 34.741-105.493 99.35-110.789 171.585v110.365c0 13.134 10.592 23.725 23.725 23.725h16.523v-49.781c0-9.321 3.601-18.218 9.956-24.784s15.464-10.592 24.573-11.015v0zM648.844 453.296c0 16.099 6.355 31.351 17.794 42.79s26.691 17.794 42.79 17.794 31.351-6.355 42.79-17.794c11.439-11.439 17.794-26.691 17.794-42.79s-6.355-31.351-17.794-42.79c-11.439-11.439-26.691-17.794-42.79-17.794s-31.351 6.355-42.79 17.794c-11.439 11.227-17.794 26.903-17.794 42.79z" />
<glyph unicode="&#xe912;" glyph-name="noun-house-4030014" horiz-adv-x="1195" d="M1116.49 483.895c-4.184 0-8.368 1.101-12.332 3.303l-506.715 296.189-506.715-296.189c-11.671-6.827-26.426-2.863-33.252 8.809l-54.173 92.49c-3.303 5.505-4.184 12.112-2.422 18.498 1.542 6.166 5.726 11.671 11.231 14.754l573 334.947c7.487 4.404 16.957 4.404 24.444 0l573.22-334.947c5.505-3.303 9.689-8.588 11.231-14.754s0.661-12.772-2.422-18.498l-54.173-92.49c-4.625-7.708-12.552-12.112-20.92-12.112v0zM597.443 835.799c4.184 0 8.368-1.101 12.332-3.303l497.906-290.904 29.509 50.649-539.747 315.348-539.747-315.568 29.509-50.649 497.906 290.904c3.744 2.422 8.148 3.523 12.332 3.523v0zM1051.307-64h-907.506c-13.433 0-24.224 10.791-24.224 24.224v586.212c0 8.588 4.625 16.516 12.112 20.92l453.863 265.139c7.487 4.404 16.957 4.404 24.444 0l453.863-265.139c7.487-4.404 12.112-12.332 12.112-20.92v-586.212c-0.44-13.433-11.231-24.224-24.664-24.224v0zM168.024-15.553h858.839v547.895l-429.419 251.045-429.419-251.045v-547.895zM573.22 221.619c-1.101 0-2.202 0-3.303 0.22-68.267 9.029-121.118 35.455-157.234 78.176-35.014 41.4-52.191 97.555-49.328 162.078 0.22 6.606 3.083 12.772 8.148 16.957 4.845 4.404 11.231 6.606 17.837 6.166 63.202-4.184 115.613-29.068 152.169-71.79 35.014-41.18 54.393-98.216 56.155-165.382 0-0.661 0-1.321 0-2.202 0-13.433-10.791-24.224-24.444-24.224 0.22 0 0.22 0 0 0v0zM412.243 433.466c4.845-82.801 51.751-137.855 134.772-157.894-10.35 87.205-58.137 143.14-134.772 157.894zM614.62 221.619c-5.946 0-11.671 2.202-16.296 6.166-5.285 4.625-8.148 11.451-8.148 18.718 1.542 67.826 20.92 125.523 55.935 166.923 36.335 42.722 88.967 67.606 152.169 71.79 6.606 0.44 12.993-1.762 17.837-6.166s7.708-10.57 8.148-16.957c2.863-64.743-14.314-120.678-49.328-162.078-36.115-42.722-88.967-68.927-157.234-78.176-0.881-0.22-1.982-0.22-3.083-0.22v0zM775.597 433.466c-76.635-14.534-124.201-70.689-134.551-157.894 82.801 20.040 129.486 74.873 134.551 157.894zM597.664-35.592c-13.433 0-24.224 10.791-24.224 24.224v231.666c0 13.433 10.791 24.224 24.224 24.224s24.224-10.791 24.224-24.224v-231.666c0-13.433-10.791-24.224-24.224-24.224z" />
<glyph unicode="&#xe913;" glyph-name="noun-instagram-3350818" d="M872.046 960h-720.091c-40.229-0.183-78.811-16.091-107.337-44.617s-44.434-67.109-44.617-107.337v-720.274c0.183-40.229 16.091-78.811 44.617-107.337 28.526-28.343 67.109-44.251 107.337-44.434h720.274c40.229 0.183 78.811 16.091 107.337 44.617s44.434 67.109 44.617 107.337v720.091c-0.183 40.229-16.091 78.811-44.617 107.337-28.709 28.526-67.291 44.434-107.52 44.617v0zM938.606 87.954c0-17.737-6.949-34.56-19.566-46.994s-29.44-19.566-46.994-19.566h-720.091c-17.737 0-34.56 6.949-46.994 19.566s-19.566 29.44-19.566 46.994v720.091c0 17.737 6.949 34.56 19.566 46.994s29.44 19.566 46.994 19.566h720.274c17.737 0 34.56-6.949 46.994-19.566s19.566-29.44 19.566-46.994v-720.091zM512 704c-67.84 0-132.937-27.063-181.029-74.971-48.091-48.091-74.971-113.189-74.971-181.029s27.063-132.937 74.971-181.029c48.091-48.091 113.189-74.971 181.029-74.971s132.937 27.063 181.029 74.971c48.091 48.091 74.971 113.189 74.971 181.029s-27.063 132.937-74.971 181.029c-48.091 47.909-113.189 74.971-181.029 74.971zM512 277.394c-45.349 0-88.686 17.92-120.686 49.92s-49.92 75.337-49.92 120.686 17.92 88.686 49.92 120.686 75.337 49.92 120.686 49.92 88.686-17.92 120.686-49.92 49.92-75.337 49.92-120.686-17.92-88.686-49.92-120.686-75.337-49.92-120.686-49.92zM853.394 725.394c0-35.291-28.709-64-64-64s-64 28.709-64 64c0 35.291 28.709 64 64 64s64-28.709 64-64z" />
<glyph unicode="&#xe914;" glyph-name="noun-mail-1092212" horiz-adv-x="1450" d="M182.472 960h1084.893c101.282 0 182.472-81.191 182.472-182.472v-659.055c0-101.282-81.191-182.472-182.472-182.472h-1084.893c-101.282 0-182.472 81.191-182.472 182.472v659.055c0 101.282 81.191 182.472 182.472 182.472v0zM116.608 853.54l512-425.838c50.744-40.595 141.877-45.566 192.621 0l512 425.838c-15.12 15.12-40.595 25.269-65.864 25.269h-1084.893c-25.269 0-45.566-10.149-65.864-25.269v0zM1368.647 772.35l-491.702-410.511c-86.162-71.042-217.89-65.864-304.259 0l-491.495 410.511v-653.877c0-55.715 45.566-101.282 101.282-101.282h1084.893c55.715 0 101.282 45.566 101.282 101.282v653.877z" />
<glyph unicode="&#xe915;" glyph-name="noun-metro-1105749" horiz-adv-x="838" d="M419.032 960c-110.939 0-211.282-10.18-285.449-27.631-36.98-8.726-67.311-19.113-90.579-31.994-11.634-6.44-21.191-13.504-29.085-22.437-7.895-9.141-13.919-21.191-13.919-34.279v-628.236c0-13.088 6.025-24.722 13.919-33.863s17.451-15.997 29.085-22.645c23.060-12.881 53.392-23.268 90.579-31.994 14.127-3.324 29.501-6.233 45.497-9.141l-93.695-145.841c-3.324-5.194-4.571-11.634-3.116-17.659 1.247-6.025 4.986-11.426 10.18-14.75s11.634-4.363 17.659-3.116 11.219 4.986 14.543 10.18l30.539 47.367h527.685l30.539-47.367c3.324-5.194 8.518-8.933 14.543-10.18s12.465-0.208 17.659 3.116 8.933 8.518 10.18 14.75c1.247 6.025 0.208 12.465-3.116 17.659l-93.695 145.841c15.789 2.701 31.37 5.817 45.497 9.141 36.98 8.726 67.311 19.113 90.579 31.994 11.634 6.44 21.191 13.504 29.085 22.645 7.895 8.933 13.919 20.775 13.919 33.863v628.236c0 13.088-6.025 25.138-13.919 34.279-7.895 8.933-17.451 15.997-29.085 22.437-23.060 12.881-53.392 23.268-90.579 31.994-74.167 17.451-174.51 27.631-285.449 27.631v0zM419.032 913.464c108.030 0 205.673-10.388 274.438-26.592 34.487-8.102 62.117-17.867 78.945-27.215 8.31-4.778 14.127-9.349 16.62-12.465 2.701-3.116 2.285-3.74 2.285-3.74v-628.028c0 0.208 0.416-0.208-2.285-3.324s-8.31-8.102-16.62-12.673c-16.828-9.349-44.459-18.698-78.945-26.8-68.973-16.205-166.408-27.008-274.438-27.008s-205.673 10.595-274.438 27.008c-34.487 8.102-62.117 17.451-78.945 26.8-8.31 4.778-14.127 9.557-16.62 12.673-2.701 3.116-2.285 3.532-2.285 3.324v628.236c0-0.208-0.416 0.623 2.285 3.74s8.31 7.687 16.62 12.465c16.828 9.349 44.459 19.113 78.945 27.215 68.973 15.997 166.408 26.384 274.438 26.384zM314.326 878.562c-38.226 0-69.804-31.578-69.804-69.804s31.578-69.804 69.804-69.804h209.412c38.226 0 69.804 31.578 69.804 69.804s-31.578 69.804-69.804 69.804h-209.412zM314.326 832.026h209.412c13.296 0 23.268-9.972 23.268-23.268s-9.972-23.268-23.268-23.268h-209.412c-13.296 0-23.268 9.972-23.268 23.268s9.972 23.268 23.268 23.268zM102.836 704.052c-12.050-1.039-21.191-11.219-20.983-23.268v-279.216c0-12.881 10.388-23.268 23.268-23.268h628.236c12.881 0 23.268 10.388 23.268 23.268v279.216c0 12.881-10.388 23.268-23.268 23.268h-628.444c-0.623 0-1.454 0-2.078 0v0zM128.182 657.516h581.7v-232.68h-581.7v232.68zM174.718 343.398c-38.226 0-69.804-31.578-69.804-69.804s31.578-69.804 69.804-69.804 69.804 31.578 69.804 69.804-31.578 69.804-69.804 69.804v0zM663.346 343.398c-38.226 0-69.804-31.578-69.804-69.804s31.578-69.804 69.804-69.804c38.226 0 69.804 31.578 69.804 69.804s-31.578 69.804-69.804 69.804zM174.718 296.862c13.088 0 23.268-10.18 23.268-23.268s-10.18-23.268-23.268-23.268-23.268 10.18-23.268 23.268c0 13.088 10.18 23.268 23.268 23.268zM663.346 296.862c13.088 0 23.268-10.18 23.268-23.268s-10.18-23.268-23.268-23.268c-13.088 0-23.268 10.18-23.268 23.268s10.18 23.268 23.268 23.268zM229.148 109.887c56.716-7.271 121.326-10.803 189.884-10.803s133.168 3.74 189.884 10.803l44.251-68.973h-468.269l44.251 68.973z" />
<glyph unicode="&#xe916;" glyph-name="noun-news-1537014" d="M1002.609 533.366h-191.926v362.658c0 36.246-27.729 63.975-63.975 63.975h-682.733c-36.246 0-63.975-27.729-63.975-63.975v-827.717c0-72.492 59.816-132.308 132.308-132.308h763.544c70.313 0 127.95 57.637 127.95 127.95v447.827c0.198 13.072-8.319 21.589-21.193 21.589v0zM132.308-21.218c-49.12 0-89.526 40.603-89.526 89.526v827.717c0 12.874 8.517 21.391 21.391 21.391h682.535c12.874 0 21.391-8.517 21.391-21.391v-384.050c0-454.363-12.874-482.092 32.087-533.193h-667.878zM981.218 64.149c0-46.942-38.425-85.366-85.366-85.366s-85.366 38.425-85.366 85.366v426.634h170.733v-426.634zM149.342 575.95h170.733c12.874 0 21.391 8.517 21.391 21.391v213.317c0 12.874-8.517 21.391-21.391 21.391h-170.733c-12.874 0-21.391-8.517-21.391-21.391v-213.317c0-12.874 8.715-21.391 21.391-21.391v0zM170.733 789.267h127.95v-170.733h-127.95v170.733zM661.342 725.292h-213.317c-12.874 0-21.391-8.517-21.391-21.391s8.517-21.391 21.391-21.391h213.317c12.874 0 21.391 8.517 21.391 21.391-0.198 12.874-8.715 21.391-21.391 21.391zM362.658 490.584h-213.317c-12.874 0-21.391-8.517-21.391-21.391s8.517-21.391 21.391-21.391h213.317c12.874 0 21.391 8.517 21.391 21.391s-8.517 21.391-21.391 21.391v0zM661.342 490.584h-213.317c-12.874 0-21.391-8.517-21.391-21.391s8.517-21.391 21.391-21.391h213.317c12.874 0 21.391 8.517 21.391 21.391-0.198 12.874-8.715 21.391-21.391 21.391zM362.658 362.634h-213.317c-12.874 0-21.391-8.517-21.391-21.391s8.517-21.391 21.391-21.391h213.317c12.874 0 21.391 8.517 21.391 21.391s-8.517 21.391-21.391 21.391v0zM661.342 362.634h-213.317c-12.874 0-21.391-8.517-21.391-21.391s8.517-21.391 21.391-21.391h213.317c12.874 0 21.391 8.517 21.391 21.391-0.198 12.874-8.715 21.391-21.391 21.391zM362.658 234.683h-213.317c-12.874 0-21.391-8.517-21.391-21.391s8.517-21.391 21.391-21.391h213.317c12.874 0 21.391 8.517 21.391 21.391s-8.517 21.391-21.391 21.391v0zM661.342 234.683h-213.317c-12.874 0-21.391-8.517-21.391-21.391s8.517-21.391 21.391-21.391h213.317c12.874 0 21.391 8.517 21.391 21.391-0.198 12.874-8.715 21.391-21.391 21.391zM362.658 106.733h-213.317c-12.874 0-21.391-8.517-21.391-21.391s8.517-21.391 21.391-21.391h213.317c12.874 0 21.391 8.517 21.391 21.391s-8.517 21.391-21.391 21.391v0zM661.342 106.733h-213.317c-12.874 0-21.391-8.517-21.391-21.391s8.517-21.391 21.391-21.391h213.317c12.874 0 21.391 8.517 21.391 21.391s-8.715 21.391-21.391 21.391z" />
<glyph unicode="&#xe917;" glyph-name="noun-office-1665811" horiz-adv-x="1048" d="M925.013 9.5c33.451 0 24.804 45.284 24.804 83.74 0 32.768-49.835 32.768-49.835 0 0.228-38.684-8.42-83.74 25.031-83.74zM925.013 170.61c33.451 0 24.804 45.284 24.804 83.968 0 32.768-49.835 32.768-49.835 0 0.228-38.684-8.42-83.968 25.031-83.968zM925.013 328.306c33.451 0 24.804 45.284 24.804 83.968 0 32.768-49.835 32.768-49.835 0 0.228-38.684-8.42-83.968 25.031-83.968zM925.013 482.588c33.451 0 24.804 45.284 24.804 83.74 0 32.996-49.835 32.996-49.835 0 0.228-38.684-8.42-83.74 25.031-83.74zM925.013 636.644c33.451 0 24.804 45.284 24.804 83.74 0 32.996-49.835 32.996-49.835 0 0.228-38.457-8.42-83.74 25.031-83.74zM124.018 18.83l305.38 105.358c30.948 10.695 14.791 57.572-16.156 47.104l-305.38-105.358c-30.948-10.923-14.791-57.799 16.156-47.104v0zM124.018 131.698l305.38 105.358c30.948 10.695 14.791 57.572-16.156 46.876l-305.38-105.358c-30.948-10.468-14.791-57.572 16.156-46.876v0zM124.018 244.793l305.38 105.358c30.948 10.695 14.791 57.572-16.156 46.876l-305.38-105.358c-30.948-10.695-14.791-57.572 16.156-46.876v0zM124.018 357.66l305.38 105.358c30.948 10.695 14.791 57.572-16.156 47.104l-305.38-105.358c-30.948-10.695-14.791-57.799 16.156-47.104v0zM26.852-64h996.238c13.653 0 24.804 11.15 24.804 24.804v842.638c0 10.923-6.827 20.252-16.612 23.438l-291.271 131.072c-6.599 2.958-14.108 2.731-20.252 0l-293.319-131.755c-9.33-4.096-14.791-13.198-14.791-22.756h-0.228v-110.137l-397.312-192.512c-8.42-4.096-14.108-12.516-14.108-22.3l1.82-517.916c0.228-13.426 11.378-24.576 25.031-24.576v0zM799.63-14.165h-232.334v708.38l232.334-78.052v-630.329zM461.483 787.513l268.288 120.604 268.288-120.604v-801.678h-148.821v648.078c0 10.468-6.599 20.252-17.067 23.666l-280.121 94.436-22.3-1.365-68.267-33.223v70.087zM517.234 689.209v-703.602h-465.579l-1.82 477.412c155.876 75.548 311.751 150.869 467.399 226.19v0z" />
<glyph unicode="&#xe918;" glyph-name="noun-pdf-781710" horiz-adv-x="824" d="M596.962 280.753c14.941-3.791 36.125-2.453 49.951 1.338 43.707 11.15 45.045 43.707 46.16 57.533 1.338 18.732-10.035 51.289-58.648 59.986-22.523 3.791-37.463 3.791-51.289 3.791s-24.976-1.338-42.369-3.791c-4.906-1.338-11.15-2.453-14.941-2.453-12.488 12.488-21.185 24.976-35.010 43.707-26.314 37.463-42.369 63.777-68.683 109.937-3.791 6.244-7.582 13.826-11.15 20.070 2.453 11.15 4.906 23.638 7.582 38.801l3.791 17.394c10.035 47.498 12.488 63.777 4.906 102.355-8.697 42.369-38.801 52.404-52.404 51.289-7.582 0-37.463-4.906-49.951-48.613-8.697-29.882-7.582-52.404 0-83.624 4.906-22.523 16.279-49.951 35.010-83.624-6.244-26.314-13.826-49.951-27.429-89.868-13.826-41.254-20.070-57.533-22.523-67.345-3.791-11.15-3.791-11.15-11.15-29.882l-1.338-2.453c-8.697-23.638-23.638-52.404-33.672-71.136-14.941-7.582-29.882-14.941-51.289-27.429-45.045-26.314-76.265-45.045-87.415-74.927-6.244-16.279-21.185-56.195 11.15-82.509 11.15-10.035 26.314-14.941 39.916-14.941 14.941 0 28.767 4.906 39.916 14.941 14.941 13.826 21.185 26.314 33.672 49.951 3.791 6.244 7.582 13.826 12.488 23.638 20.070 38.801 32.557 64.892 35.010 68.683 0 1.338 1.338 2.453 2.453 3.791 8.697 3.791 18.732 7.582 29.882 12.488 41.254 17.394 58.648 22.523 96.111 35.010l17.394 6.244c13.826 4.906 23.638 7.582 33.672 11.15 12.488 4.906 22.523 7.582 32.557 11.15 8.697-7.582 17.394-16.279 28.767-24.976 25.199-20.739 41.254-30.774 58.871-35.679v0zM583.136 353.003c12.488 0 24.976 0 42.369-3.791 12.488-2.453 16.279-7.582 16.279-8.697v-8.697c0 0-1.338-1.338-7.582-2.453-8.697-2.453-21.185-2.453-24.976-1.338-6.244 2.453-16.279 6.244-37.463 23.638 5.129 1.338 7.582 1.338 11.373 1.338v0zM218.537 215.638c-4.906-8.697-8.697-17.394-12.488-23.638-12.488-23.638-14.941-28.767-22.523-36.125-4.906-3.791-11.15-1.338-14.941 1.338-1.338 1.338-4.906 3.791 3.791 26.314 4.906 12.488 28.767 27.429 49.951 41.254-1.338-4.014-2.453-6.467-3.791-9.143v0zM373.296 717.826c1.338 3.791 2.453 7.582 3.791 8.697 1.338-1.338 1.338-3.791 2.453-7.582 4.906-27.429 4.906-36.125-2.453-72.474-1.338 3.791-2.453 7.582-2.453 10.035-6.244 27.429-7.582 41.254-1.338 61.324v0zM460.711 377.979c-8.697-3.791-18.732-6.244-32.557-11.15l-17.394-6.244c-31.22-10.035-48.613-16.279-77.38-27.429 3.791 7.582 6.244 14.941 10.035 22.523l1.338 2.453c7.582 20.070 7.582 20.070 12.488 32.557 2.453 8.697 8.697 26.314 22.523 66.23 6.244 16.279 10.035 31.22 13.826 43.707 18.732-32.557 33.672-57.533 56.195-88.753 8.697-11.15 14.941-21.185 22.523-29.882-4.014-1.338-7.805-2.676-11.596-4.014v0zM824.195 808.808c0 83.624-66.23 151.192-148.516 151.192h-527.164c-82.509 0-148.516-67.345-148.516-151.192v-722.955c0-82.509 66.23-149.854 148.516-149.854h406.969c1.338 0 1.338 0 2.453 1.338 1.338 0 1.338 0 2.453 1.338 1.338 0 1.338 1.338 2.453 1.338 0 0 1.338 0 1.338 1.338l3.791 3.791 247.303 251.094c0 0 0 1.338 1.338 1.338 1.338 1.338 1.338 1.338 2.453 2.453 0 1.338 1.338 1.338 1.338 2.453 0 1.338 1.338 1.338 1.338 2.453 0 1.338 0 1.338 1.338 2.453v601.422h1.115zM49.951 87.192v721.617c0 54.857 45.045 101.24 98.564 101.24h526.941c54.857 0 98.564-45.045 98.564-101.24v-571.986h-161.003c-47.498 0-87.415-39.916-87.415-87.415v-163.679h-377.087c-53.519 0.223-98.564 45.268-98.564 101.463v0zM739.233 187.094l-162.341-165.017v127.331c0 21.185 16.279 37.463 37.463 37.463h124.878v0.223z" />
<glyph unicode="&#xe919;" glyph-name="noun-phone-3612570" horiz-adv-x="1023" d="M549.107 695.032c52.007-8.921 99.458-33.596 137.419-71.367 37.771-37.771 62.446-85.223 71.367-137.419 3.416-20.499 21.068-35.304 41.947-35.304 2.657 0 5.125 0.38 6.833 0.569 0.19 0 0.19 0 0.38 0.19 11.388 1.898 21.258 7.972 27.712 17.462 6.453 9.3 9.111 20.499 7.023 31.697-11.768 69.469-44.604 132.864-94.903 183.162-50.488 50.298-113.883 83.135-183.352 94.903h-0.19c-23.156 3.796-44.984-11.768-48.97-34.924-3.796-23.156 11.768-45.174 34.734-48.97v0zM810.849 338.767c-23.156 24.105-51.437 37.012-81.427 37.012-29.61 0-58.080-12.527-81.806-36.443l-59.029-59.029c-1.518 0.759-2.847 1.518-4.176 2.088l-3.037 1.518c-6.264 3.227-13.666 6.833-19.55 10.629-60.548 38.53-115.971 89.019-169.306 154.312-22.777 28.661-38.91 53.146-50.488 77.441 14.805 14.046 28.661 28.091 41.567 41.378 2.847 2.847 5.884 5.884 8.731 8.921s5.884 6.074 8.921 9.111c24.675 24.675 37.771 53.335 37.771 82.755s-13.097 57.891-37.771 82.376l-57.321 57.321c-3.416 3.416-6.643 6.643-9.87 9.87-3.227 3.416-6.453 6.643-9.68 9.87l-4.555 4.745c-11.388 11.578-22.966 23.536-34.924 34.355-22.966 22.966-51.058 35.114-80.477 35.114s-57.701-12.148-81.616-35.114c-0.19-0.19-0.19-0.19-0.19-0.19l-71.936-71.746c-29.42-29.42-46.123-65.103-49.729-106.481v-0.19c-3.796-48.78 4.935-100.217 27.901-162.094 34.545-93.384 86.551-179.935 163.233-272.371 93.574-111.606 206.129-199.675 334.057-261.552h0.19c49.349-23.536 115.591-51.247 190.185-55.993h0.949c4.176-0.19 8.731-0.38 13.476-0.38 52.386 0 96.611 18.981 131.345 56.562l0.569 0.569c0.38 0.38 0.759 0.759 0.949 1.139 10.439 12.527 22.397 23.915 35.683 36.822 9.3 8.731 18.601 17.842 27.901 27.522 23.536 24.675 36.063 53.335 35.873 82.755-0.19 29.61-12.717 58.080-36.632 81.806l-115.781 115.591zM799.46 49.504c-18.411-19.74-39.669-28.471-68.52-28.471-2.657 0-5.694 0.19-8.731 0.38-59.789 3.796-116.351 27.522-158.867 47.831-117.49 56.562-220.554 137.039-306.156 239.534-70.038 84.463-117.3 163.043-148.618 247.316-18.601 50.109-25.814 89.019-22.777 125.651 1.898 21.448 9.87 38.341 25.054 53.525l71.367 71.367c7.402 7.213 15.184 11.009 22.397 11.009 6.833 0 13.856-3.796 21.448-11.199 0.19-0.19 0.19-0.19 0.38-0.38 12.337-11.578 24.485-23.915 37.202-36.822l0.38-0.38c6.074-6.264 13.097-13.666 20.309-20.499l57.321-57.321c16.703-16.703 16.703-28.471 0-45.174-6.074-6.074-12.148-12.148-18.221-18.411l-4.176-4.366c-16.133-16.323-31.318-31.697-47.831-46.313-0.19-0.19-0.569-0.38-0.759-0.759l-0.949-0.949c-17.462-17.462-22.397-38.53-14.046-62.256 0.19-0.569 0.38-1.139 0.569-1.708 0.19-0.38 0.19-0.569 0.38-0.949 15.374-37.012 37.012-72.316 70.228-114.263 0-0.19 0.19-0.19 0.19-0.19 59.029-72.506 121.096-129.257 190.185-173.103 9.111-5.694 18.411-10.439 27.142-14.805 6.453-3.227 13.666-7.023 19.74-10.629 0.38-0.38 0.759-0.569 1.329-0.759l0.38-0.19c0.569-0.38 1.329-0.759 1.898-0.949 9.111-4.555 18.032-6.833 27.142-6.833 15.754 0 30.369 6.453 41.947 18.981l71.746 71.746c5.125 5.125 13.286 11.388 21.828 11.388 7.972 0 15.564-6.074 20.499-11.388 0.19-0.19 0.19-0.19 0.19-0.19l115.971-115.971c11.388-11.388 19.17-24.865-0.949-46.123l-0.19-0.19c-6.264-6.833-13.097-13.476-20.309-20.309-1.518-1.518-3.037-3.037-4.745-4.555-14.425-13.286-28.281-26.763-41.378-42.327v0zM1022.102 509.212c-19.17 112.365-72.316 215.049-153.742 296.476-81.806 81.616-184.301 134.762-296.856 153.742-23.156 3.796-44.984-11.768-48.97-34.924-3.796-23.156 11.768-44.984 34.734-48.97 95.092-16.133 181.834-61.307 250.733-130.017 68.899-68.899 113.883-155.64 130.017-250.733 3.416-20.499 21.068-35.304 41.947-35.304h0.38c2.657 0 4.745 0.38 6.453 0.569 0.19 0 0.19 0 0.38 0.19 11.388 1.898 21.258 7.972 27.712 17.462 6.643 9.111 9.3 20.309 7.213 31.508v0z" />
<glyph unicode="&#xe91a;" glyph-name="noun-play-1192900" d="M512-64c-281.885 0-512 230.115-512 512s230.115 512 512 512 512-230.115 512-512-230.115-512-512-512v0zM512 893.506c-246.026 0-445.506-199.481-445.506-445.506s199.481-445.506 445.506-445.506 445.506 199.481 445.506 445.506-199.481 445.506-445.506 445.506v0zM405.61 237.833c-8.074 0-15.911 2.612-22.56 6.649-14.724 8.074-23.985 23.985-23.985 39.896v327.243c0 15.911 9.262 31.822 23.985 39.896s31.822 8.074 46.545 0l279.273-163.622c14.724-8.074 22.56-23.985 22.56-39.896s-9.262-31.822-22.56-39.896l-279.273-163.622c-8.074-4.037-15.911-6.649-23.985-6.649v0zM425.558 575.763v-256.712l219.429 128.95-219.429 127.763z" />
<glyph unicode="&#xe91b;" glyph-name="noun-pool-1183250" horiz-adv-x="921" d="M894.531 251.091c-47.758 0-72.197-26.864-91.785-48.504s-29.476-31.341-52.982-31.341-34.326 10.447-52.982 31.341c-18.655 20.894-44.027 48.504-91.785 48.504s-72.010-26.864-91.785-48.504-29.476-31.341-52.982-31.341-34.326 10.447-52.982 31.341c-18.655 20.894-44.027 48.504-91.785 48.504s-72.010-26.864-91.785-48.504-29.476-31.341-52.982-31.341c-23.506 0-34.326 10.447-52.982 31.341s-44.027 48.504-91.598 48.504c-14.365 0-26.118-11.753-26.118-26.118s11.753-26.118 26.118-26.118c23.506 0 34.326-10.447 52.982-31.341s44.027-48.504 91.598-48.504 72.010 26.864 91.785 48.504c19.588 21.64 29.476 31.341 52.982 31.341s34.326-10.447 52.982-31.341c18.655-20.894 44.027-48.504 91.785-48.504s72.010 26.864 91.785 48.504 29.476 31.341 52.982 31.341 34.326-10.447 52.982-31.341c18.655-20.894 44.027-48.504 91.785-48.504s72.197 26.864 91.785 48.504 29.476 31.341 52.982 31.341c14.365 0 26.118 11.753 26.118 26.118s-11.566 26.118-26.118 26.118v0zM894.531 68.081c-47.758 0-72.197-26.864-91.785-48.504s-29.476-31.341-52.982-31.341-34.326 10.447-52.982 31.341c-18.655 20.894-44.027 48.504-91.785 48.504s-72.010-26.864-91.785-48.504c-19.588-21.64-29.289-31.341-52.795-31.341s-34.326 10.447-52.982 31.341c-18.655 20.894-44.027 48.504-91.785 48.504s-72.010-26.864-91.785-48.504c-19.588-21.64-29.476-31.341-52.982-31.341s-34.513 10.447-52.982 31.341c-18.655 20.894-44.027 48.504-91.598 48.504-14.365 0-26.118-11.753-26.118-26.118s11.753-26.118 26.118-26.118c23.506 0 34.326-10.447 52.982-31.341s43.84-48.504 91.598-48.504 72.010 26.864 91.785 48.504c19.588 21.64 29.476 31.341 52.982 31.341s34.326-10.447 52.982-31.341c18.655-20.894 44.027-48.504 91.785-48.504s72.010 26.864 91.785 48.504c19.588 21.64 29.476 31.341 52.982 31.341s34.326-10.447 52.982-31.341c18.655-20.894 43.84-48.504 91.598-48.504s72.197 26.864 91.785 48.504c19.588 21.64 29.476 31.341 52.982 31.341v0c14.365 0 26.118 11.753 26.118 26.118s-11.566 26.118-26.118 26.118v0zM370.312 907.578c8.582 0 16.976-2.425 24.252-6.903s13.059-11.007 16.79-18.655c6.343-12.872 22.013-18.282 34.886-11.94 6.156 2.985 11.007 8.395 13.245 14.924s1.866 13.805-1.306 19.961c-13.059 26.677-37.498 46.079-66.6 52.608s-59.511-0.56-82.644-19.215-36.751-46.825-36.751-76.488v-516.384c0-14.365 11.753-26.118 26.118-26.118s26.118 11.753 26.118 26.118v60.444h287.295v-60.63c0-14.365 11.753-26.118 26.118-26.118s26.118 11.753 26.118 26.118v516.571c0 13.805 6.343 26.864 17.163 35.445s24.998 11.94 38.43 8.955c13.432-2.985 24.998-11.94 30.968-24.439 6.343-12.872 22.013-18.282 34.886-11.94 6.156 2.985 11.007 8.395 13.245 14.924s1.866 13.805-1.306 19.961c-13.059 26.677-37.498 45.893-66.6 52.422-28.916 6.529-59.324-0.56-82.457-19.029s-36.751-46.639-36.751-76.301v-97.195h-287.295v97.195c0 12.126 4.85 23.692 13.432 32.274 8.955 8.582 20.521 13.432 32.647 13.432v0zM324.606 458.354v101.113h287.295v-101.113h-287.295zM611.9 712.442v-100.74h-287.295v100.74h287.295z" />
<glyph unicode="&#xe91c;" glyph-name="noun-search-1060325" horiz-adv-x="1025" d="M912.823 503.589c0 251.611-204.8 456.411-456.411 456.411s-456.411-204.8-456.411-456.411 204.8-456.411 456.411-456.411c108.878 0 209.398 38.661 287.974 103.027l214.204-214.204 66.664 66.664-214.204 212.95c63.112 78.576 101.773 179.096 101.773 287.974v0zM456.411 140.8c-200.202 0-362.789 162.586-362.789 362.789s162.586 362.789 362.789 362.789 362.789-162.586 362.789-362.789-162.586-362.789-362.789-362.789z" />
<glyph unicode="&#xe91d;" glyph-name="noun-share-1058859-1" d="M938.423 21.394v341.394c0 23.406 19.017 42.423 42.606 42.423s42.606-19.017 42.606-42.423v-384.366c0-23.406-19.017-42.423-42.606-42.423v0 0h-938.423c-11.703 0-22.491 4.754-30.171 12.434s-12.434 18.286-12.434 30.171v0 0 938.606c-0.183 23.771 18.834 42.789 42.24 42.789h384.366c23.406 0 42.423-19.017 42.423-42.606s-19.017-42.606-42.423-42.606h-341.394v-853.394h853.211zM938.423 814.263l-548.754-548.754c-16.64-16.64-43.703-16.823-60.343 0-16.64 16.64-16.64 43.703 0 60.343l548.754 548.754h-153.051c-23.406 0-42.606 19.017-42.606 42.606s19.017 42.606 42.606 42.606h256.183c11.703 0 22.309-4.754 29.989-12.434 7.68-7.863 12.434-18.469 12.434-30.171v-256.183c0-23.406-19.017-42.606-42.606-42.606s-42.606 19.017-42.606 42.606v153.234z" />
<glyph unicode="&#xe91e;" glyph-name="noun-share-1058859" d="M938.423 21.394v341.394c0 23.406 19.017 42.423 42.606 42.423s42.606-19.017 42.606-42.423v-384.366c0-23.406-19.017-42.423-42.606-42.423v0 0h-938.423c-11.703 0-22.491 4.754-30.171 12.434s-12.434 18.286-12.434 30.171v0 0 938.606c-0.183 23.771 18.834 42.789 42.24 42.789h384.366c23.406 0 42.423-19.017 42.423-42.606s-19.017-42.606-42.423-42.606h-341.394v-853.394h853.211zM938.423 814.263l-548.754-548.754c-16.64-16.64-43.703-16.823-60.343 0-16.64 16.64-16.64 43.703 0 60.343l548.754 548.754h-153.051c-23.406 0-42.606 19.017-42.606 42.606s19.017 42.606 42.606 42.606h256.183c11.703 0 22.309-4.754 29.989-12.434 7.68-7.863 12.434-18.469 12.434-30.171v-256.183c0-23.406-19.017-42.606-42.606-42.606s-42.606 19.017-42.606 42.606v153.234z" />
<glyph unicode="&#xe91f;" glyph-name="noun-share-2832870" d="M722.895 843.459h104.107l-352.305-352.305c-10.728-10.728-16.823-25.112-16.823-40.229s6.095-29.501 16.579-40.229c10.728-10.728 25.112-16.579 40.229-16.579s29.501 6.095 40.229 16.823l352.549 352.061v-104.107c0-20.236 10.728-39.010 28.526-49.25 17.554-10.24 39.253-10.24 56.808 0s28.526 29.013 28.526 49.25v241.371c0 15.116-6.095 29.501-16.823 40.229s-25.112 16.579-40.229 16.823h-241.371c-20.236 0-39.010-10.728-49.25-28.526-10.24-17.554-10.24-39.253 0-56.808 10.24-17.798 29.013-28.526 49.25-28.526v0zM967.192 502.37c-15.116 0-29.501-6.095-40.229-16.579-10.728-10.728-16.579-25.112-16.579-40.229v-395.703h-796.526v796.282h400.091c20.236 0 39.010 10.728 49.25 28.526s10.24 39.253 0 56.808-29.013 28.526-49.493 28.526h-399.848c-30.232 0-59.002-11.947-80.457-33.402-21.455-21.211-33.402-50.225-33.402-80.457v-796.526c0-30.232 11.947-59.002 33.402-80.457 21.211-21.455 50.225-33.402 80.457-33.402h796.526c30.232 0 59.002 11.947 80.457 33.402 21.455 21.211 33.402 50.225 33.402 80.457v395.947c0 15.116-6.095 29.501-16.579 40.229-10.971 10.728-25.356 16.579-40.472 16.579z" />
<glyph unicode="&#xe920;" glyph-name="noun-shop-865857" horiz-adv-x="820" d="M783.223-64h-747.075c-10.113 0-19.581 4.088-26.466 11.404s-10.328 17.214-9.683 27.112l48.198 674.992c0.646 9.037 4.734 17.644 11.404 23.884s15.492 9.683 24.745 9.683h650.678c9.252 0 18.074-3.443 24.745-9.683s10.759-14.847 11.404-23.884l48.198-674.777c0.646-10.113-2.797-19.796-9.683-27.112-6.885-7.531-16.353-11.619-26.466-11.619v0zM74.88 8.298h669.398l-43.034 602.48h-583.329l-43.034-602.48zM578.38 719.223c-9.683 0-18.72 3.873-25.605 10.543-6.67 6.885-10.543 15.923-10.543 25.605 0 47.338-25.175 91.017-66.273 114.686s-91.448 23.669-132.545 0-66.273-67.349-66.273-114.686c0-12.91-6.885-24.745-18.074-31.2s-24.96-6.455-36.149 0c-11.189 6.455-18.074 18.29-18.074 31.2 0 73.158 38.946 140.722 102.422 177.301s141.368 36.579 204.843 0 102.422-104.143 102.422-177.301c0-9.683-3.873-18.72-10.543-25.605-6.885-6.67-15.923-10.543-25.605-10.543v0zM240.992 430.033c-9.683 0-18.72 3.873-25.605 10.543-6.67 6.67-10.543 15.923-10.543 25.605v289.19c0 12.91 6.885 24.96 18.074 31.415s24.96 6.455 36.149 0 18.074-18.29 18.074-31.415v-289.19c0-9.683-3.873-18.72-10.543-25.605-6.885-6.67-15.923-10.543-25.605-10.543v0zM578.38 430.033c-9.683 0-18.72 3.873-25.605 10.543-6.67 6.67-10.543 15.923-10.543 25.605v289.19c0 12.91 6.885 24.96 18.074 31.415s24.96 6.455 36.149 0c11.189-6.455 18.074-18.29 18.074-31.415v-289.19c0-9.683-3.873-18.72-10.543-25.605-6.885-6.67-15.923-10.543-25.605-10.543v0z" />
<glyph unicode="&#xe921;" glyph-name="noun-shop-2258251" horiz-adv-x="1127" d="M0 806.299l717.001 153.701v-1024h-717.001v870.299zM640.151 865.044l-563.301-120.707v-731.486h563.301v852.193zM204.8 549.998h307.401v-76.85h-307.401v76.85zM204.8 345.198h307.401v-76.85h-307.401v76.85zM819.2 960l307.401-204.8v-819.2h-307.401v1024zM896.050 12.448h153.701v701.309l-153.701 102.601v-803.91z" />
<glyph unicode="&#xe922;" glyph-name="noun-solar-panel-2592568" horiz-adv-x="1177" d="M265.869 785.67c-2.347 4.694-7.255 8.322-11.949 7.255l-100.288-3.627 61.026 149.364c2.347 5.975 0 13.229-5.975 16.643-5.975 3.627-13.229 2.347-16.643-3.627l-189.053-236.636c-3.627-3.627-3.627-9.602-1.28-14.296s7.255-7.255 11.949-7.255l74.042 3.627-64.44-167.288c-2.347-5.975 0-13.229 5.975-15.577 2.347-1.28 4.694-2.347 7.255-2.347 3.627 0 7.255 1.28 9.602 4.694l218.712 254.56c3.414 3.627 3.414 9.602 1.067 14.51v0zM118.851 719.95c-2.347 3.627-5.975 5.975-10.669 5.975l-65.72-3.627 114.797 142.11-34.567-83.644c-1.28-3.627-1.28-8.322 1.28-11.949 2.347-3.627 7.255-5.975 10.669-5.975l89.619 3.627-148.084-174.543 45.449 115.864c0.854 3.627-0.427 8.535-2.774 12.163v0zM1115.326 110.543l-199.508 537.712c-2.347 7.255-9.602 11.949-16.643 11.949h-678.755c-7.255 0-14.296-4.694-16.643-11.949l-202.069-536.645c-2.347-5.975-1.28-11.949 2.347-16.643s8.322-8.322 14.296-8.322h474.339v-114.797h-56.118c-9.602 0-17.924-8.322-17.924-17.924s8.322-17.924 17.924-17.924h246.238c9.602 0 17.924 8.322 17.924 17.924s-8.322 17.924-17.924 17.924h-56.118v114.797h473.272c5.975 0 11.949 2.347 14.296 7.255 2.347 5.761 3.414 11.736 1.067 16.643v0zM400.723 122.492l21.551 174.543h272.483l22.618-174.543h-316.653zM427.182 333.95l16.643 142.11h227.034l19.204-142.11h-262.881zM177.317 476.059h230.661l-17.924-142.11h-266.509l53.771 142.11zM651.656 624.357l14.296-112.237h-217.432l13.229 112.237h189.906zM707.987 476.059h233.009l52.491-142.11h-266.509l-18.991 142.11zM927.767 511.907h-224.687l-14.296 112.237h197.161l41.822-112.237zM232.368 624.357h193.534l-13.229-112.237h-222.126l41.822 112.237zM110.53 296.822h276.111l-21.551-174.543h-320.28l65.72 174.543zM589.563-28.153h-59.746v114.797h59.746v-114.797zM754.504 122.492l-22.618 174.543h276.111l64.44-174.543h-317.933zM925.419 883.611c-9.602 0-17.924 8.322-17.924 17.924v40.542c0 9.602 8.322 17.924 17.924 17.924s17.924-8.322 17.924-17.924v-41.822c0-9.602-8.322-16.643-17.924-16.643v0zM734.233 697.119h-41.822c-9.602 0-17.924 8.322-17.924 17.924s8.322 17.924 17.924 17.924h41.822c9.602 0 17.924-8.322 17.924-17.924-1.28-10.669-8.322-17.924-17.924-17.924zM1159.495 698.399h-41.822c-9.602 0-17.924 8.322-17.924 17.924s8.322 17.924 17.924 17.924h41.822c9.602 0 17.924-8.322 17.924-17.924-1.067-9.602-8.322-17.924-17.924-17.924zM783.096 829.84c-3.627 0-8.322 1.28-10.669 3.627l-32.22 26.245c-7.255 5.975-8.322 16.643-2.347 25.179 5.975 7.255 16.643 8.322 25.179 2.347l32.22-26.245c7.255-5.975 8.322-16.643 2.347-25.179-4.908-4.908-9.602-5.975-14.51-5.975v0zM1066.462 824.932c-4.694 0-9.602 1.28-11.949 4.694-7.255 7.255-7.255 17.924 0 25.179l29.873 29.873c7.255 7.255 17.924 7.255 25.179 0s7.255-17.924 0-25.179l-29.873-29.873c-3.841-3.414-8.535-4.694-13.229-4.694v0zM1096.335 545.407c-4.694 0-9.602 1.28-11.949 4.694l-29.873 29.873c-7.255 7.255-7.255 17.924 0 25.179s17.924 7.255 25.179 0l29.873-29.873c7.255-7.255 7.255-17.924 0-25.179-4.908-2.347-8.535-4.694-13.229-4.694v0zM925.419 859.712c-78.95 0-143.39-64.44-143.39-143.39 0-9.602 1.28-17.924 2.347-26.245h35.847c-2.347 8.322-3.627 17.924-3.627 26.245 0 59.746 49.077 108.823 108.823 108.823s108.823-49.077 108.823-108.823c0-44.169-26.245-82.364-64.44-99.221l11.949-33.5c51.424 21.551 88.338 72.975 88.338 132.721-1.28 78.736-65.934 143.39-144.67 143.39v0z" />
<glyph unicode="&#xe923;" glyph-name="noun-sport-3489224" horiz-adv-x="1023" d="M614.765 26.799l18.269 17.904 1.644 1.644c4.202 4.202 7.673 8.404 11.875 12.789l13.154 14.433 1.644 2.192c45.491 55.539 73.991 123.318 81.482 194.752v2.192c1.279 12.606 2.010 25.394 2.010 38 0 12.789-0.548 25.394-2.010 38v2.192c-7.673 70.885-35.808 138.117-80.933 193.473l-1.644 2.010c-4.202 5.115-8.769 10.048-13.519 14.798-3.837 4.202-7.308 8.587-11.51 12.423l-1.644 2.923-18.269 17.904c-67.414 57.731-153.28 89.52-242.070 89.52s-174.655-31.789-242.070-89.52l-19.183-18.087v-1.644c-3.837-3.837-7.673-8.404-11.51-12.423-3.837-4.202-9.317-9.5-13.519-14.798v-2.010c-45.674-55.539-73.991-123.318-81.482-194.935v-2.192c-2.558-12.789-4.385-25.76-5.481-38.731 0-12.789 0.731-25.394 2.010-38v-2.192c7.673-71.433 35.991-139.213 81.482-194.752v-2.192l13.519-14.798 11.51-12.423v-1.644l18.269-17.904c67.231-57.914 153.28-89.885 242.070-89.885s174.655 31.971 242.070 89.885l3.837 1.096zM127.886 103.713l-6.029 7.673c-4.75 5.481-9.135 11.327-13.154 17.173l-4.385 7.125c-4.202 6.029-8.039 12.423-11.875 18.817l-3.471 6.029c-3.471 6.76-6.76 13.702-9.865 20.827l-2.923 7.125c-2.923 7.125-5.481 14.067-8.039 21.193v0c-0.731 2.74-1.462 5.481-2.558 8.039-2.010 7.125-3.837 14.433-5.481 21.375l-2.010 8.587c-1.644 7.308-2.558 14.981-3.471 22.289v8.587c-0.183 1.644-0.183 3.471 0 5.115h153.463c-5.298-67.779-32.154-132.088-76.731-183.425l-3.471 3.471zM54.626 349.254c0 7.673 2.010 14.981 3.471 22.289l2.010 8.587c1.644 7.308 3.471 14.433 5.481 21.375 2.010 7.125 2.010 5.481 2.558 8.039 0.731 2.558 5.115 14.433 8.039 21.193l2.923 7.125c3.288 7.125 6.394 14.067 9.865 20.827l3.471 6.76c3.837 6.394 7.673 12.789 11.875 18.817v0c1.279 2.375 2.74 4.75 4.385 6.942 3.837 5.664 8.039 11.327 12.423 16.625 2.010 2.558 3.837 5.481 6.029 8.039l2.923 3.288c44.577-51.337 71.433-115.645 76.731-183.425h-153.463c-0.183 1.827-0.183 3.654 0 5.481l1.279 8.039zM618.419 515.871c2.192-2.558 4.202-5.481 6.029-8.039 4.385-5.298 8.587-10.962 12.423-16.625l4.75-7.125c3.837-6.029 8.039-12.423 11.51-18.817l3.471-6.76c3.471-6.76 7.125-13.702 9.865-20.827l2.923-7.125c2.923-6.76 5.664-14.067 8.039-21.193 2.192-7.125 0-5.115 2.558-8.039s3.837-14.067 5.481-21.375v0c0.731-2.923 1.462-5.664 2.010-8.587 1.644-7.308 2.558-14.798 3.471-22.289v-13.885h-153.463c5.298 67.779 32.154 132.088 76.731 183.425l4.202-2.74zM690.949 270.147c0-7.308-2.010-14.981-3.471-22.289-0.548-2.923-1.096-5.846-2.010-8.587-1.644-7.125-3.471-14.433-5.481-21.375-2.010-7.125-1.644-5.115-2.558-8.039s-5.115-14.067-8.039-21.193l-2.923-7.125c-2.923-7.125-6.394-14.067-9.865-20.827l-3.471-6.76c-3.471-6.394-7.673-12.789-11.51-18.817l-4.75-7.125c-3.837-5.664-8.039-11.327-12.423-16.625l-6.029-7.673-2.923-3.471c-44.577 51.337-71.433 115.645-76.731 183.607h153.463v-5.115c-0.365-2.923-0.913-5.846-1.279-8.587v0zM486.88 283.849v0c5.481-81.116 37.818-158.213 91.712-219.050-50.972-42.568-113.818-68.328-179.954-73.443v292.493h88.241zM486.88 335.552h-88.241v293.589c66.135-5.298 129.165-30.875 179.954-73.443-54.077-61.202-86.414-138.665-91.712-220.146v0zM346.936 335.552h-87.876c-5.664 81.482-38 158.761-92.078 219.964 50.972 42.568 113.818 68.328 179.954 73.443v-293.407zM259.060 283.849h87.876v-293.589c-66.318 5.481-129.165 31.606-179.954 74.539 53.895 60.837 86.232 137.934 92.078 219.050v0zM684.92 960c-100.116 0-207.54-89.52-274.224-228.002l46.952-22.289c9.317 20.462 19.914 40.375 31.971 59.376h389.686c37.452-58.645 63.943-123.684 77.645-191.829h-52.981c-4.202 17.173-8.587 34.895-14.433 51.885l-49.51-16.991c4.202-11.51 7.308-23.019 10.596-34.895h-96.097v-52.068h106.693c2.558-17.173 4.202-34.529 5.115-52.068h-111.809v-51.885h111.809c0-17.539-2.558-34.895-5.115-52.068h-72.347v-52.068h61.385c-3.288-11.875-6.394-23.385-10.596-34.895l49.145-16.991c5.846 16.991 10.779 34.346 14.798 51.702h53.164c-13.885-68.145-40.193-133.184-77.645-191.829h-159.857v-52.068h119.847c-48.231-54.26-103.588-86.597-154.742-86.597-18.635 1.279-36.721 6.029-53.347 14.433l-19.548-48.231c23.202-10.048 48.049-15.346 73.26-15.712 156.386 0 338.349 223.8 338.349 511.543s-181.963 511.543-338.167 511.543v0zM531.092 821.153c48.231 54.443 103.588 86.597 153.828 86.597s106.328-31.789 154.742-86.597h-308.57zM914.749 526.467h52.433c2.010-16.991 3.471-34.164 4.202-52.068h-53.347c-0.731 17.539-2.192 34.895-4.385 52.068h1.096zM914.749 370.446c2.192 17.173 3.837 34.529 4.385 52.068h52.068c0-17.539-2.192-35.077-4.202-52.068h-52.25z" />
<glyph unicode="&#xe924;" glyph-name="noun-tick-446229" horiz-adv-x="1269" d="M388.169-64c-24.128 0-51.803 7.806-67.415 27.676l-290.24 273.918c-39.739 39.739-39.739 99.349-4.258 139.088 39.739 39.739 99.349 39.739 139.088 4.258l218.567-206.503 715.31 755.049c35.482 39.739 99.349 39.739 139.088 4.258s39.739-99.349 4.258-139.088l-782.725-827.432c-19.87-19.87-43.997-31.224-71.673-31.224v0z" />
<glyph unicode="&#xe925;" glyph-name="twitter" horiz-adv-x="1178" d="M1168.991 810.478c-4.531 4.531-4.531 4.531-9.062 9.062 9.062 18.124 18.124 40.779 22.655 63.434 4.531 18.124-4.531 36.248-18.124 45.31s-36.248 9.062-49.841 0c-31.717-22.655-67.965-36.248-104.212-40.779-86.088 81.558-212.956 99.681-321.699 45.31-108.743-58.903-167.646-181.239-140.46-303.575 4.531-27.186 27.186-40.779 54.372-36.248 18.124 0 36.248 22.655 31.717 49.841-18.124 81.558 18.124 163.115 90.619 203.894 77.027 40.779 172.177 22.655 231.080-45.31 9.062-9.062 27.186-13.593 40.779-13.593h9.062c-18.124-18.124-18.124-45.31 0-63.434 4.531-4.531 9.062-9.062 13.593-9.062-13.593-9.062-18.124-22.655-18.124-40.779 13.593-194.832-67.965-385.133-222.018-507.469-158.584-135.929-376.071-176.708-570.903-104.212 77.027 13.593 149.522 45.31 203.894 99.681 13.593 13.593 13.593 31.717 4.531 49.841 0 13.593-18.124 22.655-36.248 22.655-54.372 0-99.681 22.655-135.929 63.434 13.593 4.531 31.717 9.062 45.31 18.124 18.124 9.062 27.186 27.186 27.186 45.31-4.531 18.124-18.124 31.717-36.248 36.248-58.903 13.593-108.743 54.372-135.929 113.274 13.593 0 22.655-4.531 36.248-4.531 18.124 0 36.248 9.062 45.31 27.186 4.531 18.124 0 40.779-13.593 49.841-77.027 72.496-95.15 144.991-86.088 199.363 86.088-90.619 194.832-154.053 317.168-181.239 27.186-4.531 49.841 9.062 54.372 36.248s-13.593 49.841-36.248 54.372c-122.336 27.186-231.080 99.681-308.106 199.363-9.062 9.062-22.655 13.593-36.248 13.593-13.593 4.531-27.186-4.531-36.248-13.593-58.903-77.027-63.434-185.77-13.593-271.858h-4.531c-13.593-4.531-18.124-22.655-22.655-36.248 0-77.027 31.717-149.522 86.088-203.894-9.062-13.593-13.593-31.717-9.062-45.31 27.186-67.965 77.027-126.867 144.991-163.115-72.496-27.186-144.991-40.779-222.018-40.779-27.186 0-45.31-22.655-45.31-45.31 0-13.593 9.062-31.717 22.655-36.248 122.336-72.496 253.735-108.743 389.664-113.274 158.584 0 312.637 58.903 434.973 163.115 172.177 135.929 267.327 344.354 258.265 561.841 31.717 27.186 58.903 63.434 72.496 104.212 4.531 13.593 4.531 31.717-4.531 45.31z" />
<glyph unicode="&#xe926;" glyph-name="news" d="M702.056 671.196h-254.31c-22.414 0-40.582-18.166-40.582-40.582 0-22.414 18.166-40.582 40.582-40.582h254.31c22.428 0 40.582 18.166 40.582 40.582-0.002 22.416-18.168 40.582-40.582 40.582zM799.45 475.054h-351.704c-22.414 0-40.582-18.166-40.582-40.582 0-22.414 18.166-40.582 40.582-40.582h351.704c22.414 0 40.582 18.166 40.582 40.582s-18.168 40.582-40.582 40.582zM983.418 925.506h-718.288c-22.414 0-40.582-18.166-40.582-40.582v-382.816h-71.692c-84.288 0-152.856-68.582-152.856-152.856v-225.902c0-84.288 68.568-152.856 152.856-152.856 6.898 0 13.69 0.46 20.332 1.352h669.55c99.938 0 181.262 81.312 181.262 181.262v731.816c0 22.416-18.166 40.582-40.582 40.582zM224.55 123.35c0-34.778-24.904-63.862-57.814-70.34h-13.878v-1.352c-39.54 0-71.694 32.168-71.694 71.694v225.9c0 39.526 32.168 71.694 71.694 71.694h71.694v-297.596zM942.838 153.11c0-54.258-45.83-100.1-100.1-100.1h-554.192c10.97 21.062 17.166 44.992 17.166 70.34v720.994h637.126v-691.234zM702.056 291.072h-254.31c-22.414 0-40.582-18.166-40.582-40.582 0-22.414 18.166-40.582 40.582-40.582h254.31c22.428 0 40.582 18.166 40.582 40.582-0.002 22.416-18.168 40.582-40.582 40.582z" />
<glyph unicode="&#xe927;" glyph-name="youtube2" horiz-adv-x="1451" d="M778.985 917.273l-161.513-0.183-127.441-1.022-104.519-1.802-64.326-2.011-25.004-1.197-10.596-0.647c-96.939-5.383-142.477-26.384-183.312-96.102-39.445-65.737-57.653-170.021-59.46-337.762l-0.15-29.402c0-184.327 18.264-296.918 61.069-365.606 40.084-68.468 85.128-89.448 182.706-95.953l11.869-0.61 62.618-2.216 82.491-1.806 148.296-1.789 133.617-0.5 133.396 0.5 148.304 1.787 100.208 2.315 56.538 2.292c98.023 6.533 143.067 27.512 183.756 96.982 39.466 64.826 58.317 169.929 60.29 334.871l0.174 30.586c0 185.607-18.17 297.621-61.069 366.459-37.714 64.42-80.095 86.905-165.509 93.923l-39.527 2.647-42.127 1.875-72.445 1.972-139.959 1.866-108.378 0.531zM671.976 831.942l160.915-0.192 126.699-1.095 102.571-1.964 62.149-2.207 33.732-2.031c72.509-4.040 91.717-12.898 115.862-54.122 30.861-49.55 46.924-140.76 48.614-294.538l0.149-28.644c0-167.656-16.561-268.56-48.392-320.856-24.504-41.824-43.681-50.756-115.726-55.559l-55.17-2.22-98.836-2.259-146.929-1.758-132.28-0.495-132.501 0.495-146.92 1.76-114.959 2.796-39.28 1.708c-71.599 4.776-90.777 13.708-114.91 54.911-23.532 37.782-38.508 100.306-45.013 195.947l-2.401 46.524-1.2 51.41-0.15 28.448c0 170.189 15.958 269.925 47.68 322.795 22.75 38.838 41 49.144 101.488 53.576l35.448 2.087 58.528 2.078 76.479 1.596 170.192 1.625 54.161 0.184zM554.667 661.333v-426.667c0-33.512 36.862-53.943 65.28-36.181l341.333 213.333c26.738 16.711 26.738 55.651 0 72.363l-341.333 213.333c-28.418 17.761-65.28-2.669-65.28-36.181zM640 584.448l218.197-136.448-218.197-136.363v272.811z" />
<glyph unicode="&#xe928;" glyph-name="trend" d="M516.16 0c-0.074 0-0.162 0-0.25 0-196.525 0-355.84 159.315-355.84 355.84 0 81.327 27.283 156.282 73.196 216.212l-0.626-0.851c20.097 28.054 43.569 52.034 70.199 72.035l0.841 0.605c5.124 3.64 11.508 5.819 18.4 5.819s13.276-2.179 18.499-5.886l-0.099 0.067c7.994-5.888 13.123-15.265 13.123-25.839 0-3.576-0.587-7.015-1.669-10.227l0.066 0.226c-5.203-19.204-8.193-41.253-8.193-64s2.989-44.796 8.596-65.776l-0.404 1.776c10.129-32.183 39.699-55.116 74.627-55.116 1.215 0 2.423 0.028 3.624 0.083l-0.17-0.006c0.217-0.003 0.472-0.005 0.728-0.005 14.87 0 28.212 6.544 37.303 16.909l0.049 0.056c4.204 8.868 6.658 19.267 6.658 30.24s-2.455 21.372-6.844 30.679l0.186-0.439c-96 328.64 23.36 384 37.44 391.040 3.346 1.297 7.218 2.049 11.266 2.049 17.673 0 32-14.327 32-32 0-0.721-0.024-1.436-0.071-2.145l0.005 0.096c-5.12-55.36-9.28-99.2 84.8-157.76l5.44-2.88c193.92-101.76 234.88-243.52 234.88-344.32-0.182-196.918-159.857-356.481-356.8-356.481-0.338 0-0.675 0-1.013 0.001h0.052zM279.68 527.040c-34.404-47.289-55.040-106.523-55.040-170.576 0-161.179 130.661-291.84 291.84-291.84 161.072 0 291.667 130.488 291.84 291.519v0.017c0 83.2-34.88 200.64-200.64 288-4.48 2.56-8 4.16-9.6 5.44-44.535 24.289-79.96 60.435-102.709 104.223l-0.651 1.377c-0.59-10.126-0.927-21.97-0.927-33.892 0-71.372 12.057-139.927 34.244-203.741l-1.317 4.353c6.529-14.854 10.329-32.17 10.329-50.373 0-24.162-6.695-46.76-18.33-66.041l0.322 0.574c-19.988-27.007-51.602-44.425-87.3-44.8h-0.060c-2.182-0.12-4.737-0.188-7.307-0.188-63.105 0-116.601 41.14-135.13 98.063l-0.283 1.005c-5.893 19.584-9.285 42.089-9.285 65.387 0 0.525 0.002 1.050 0.005 1.574v-0.081z" />
<glyph unicode="&#xe929;" glyph-name="soundoff" horiz-adv-x="1012" d="M1000.121 572.155c-15.519 15.519-40.092 15.519-54.318 0l-69.837-69.837-69.837 69.837c-15.496 15.519-40.069 15.519-54.318 0-15.496-15.519-15.496-40.092 0-54.318l69.722-69.837-69.837-69.837c-15.496-15.519-15.496-40.092 0-54.318 6.848-7.178 16.488-11.641 27.17-11.641s20.322 4.463 27.156 11.626l0.014 0.015 69.837 69.837 69.814-69.837c6.848-7.178 16.488-11.641 27.17-11.641s20.322 4.463 27.156 11.626l0.014 0.015c15.519 15.519 15.519 40.092 0 54.318l-68.567 69.837 69.837 69.814c6.514 6.907 10.517 16.244 10.517 26.515 0 10.919-4.524 20.781-11.8 27.815l-0.011 0.010zM645.115 954.388c17.545-8.807 29.376-26.658 29.376-47.273 0-0.025 0-0.050 0-0.075v0.004-918.251c0-0.060 0-0.132 0-0.203 0-20.584-11.847-38.4-29.095-47.003l-0.304-0.137c-6.839-3.438-14.903-5.45-23.437-5.45-0.026 0-0.051 0-0.077 0h0.004c-0.048 0-0.105 0-0.162 0-12.038 0-23.121 4.084-31.941 10.942l0.117-0.088-295.861 225.492h-240.827c-0.027 0-0.060 0-0.092 0-29.17 0-52.817 23.647-52.817 52.817 0 0.024 0 0.049 0 0.073v-0.004 445.465c0 0.021 0 0.045 0 0.069 0 29.183 23.657 52.84 52.84 52.84 0.024 0 0.049 0 0.073 0h240.823l295.861 225.539c8.723 6.818 19.847 10.933 31.932 10.933 8.57 0 16.656-2.069 23.787-5.735l-0.293 0.137zM568.696 800.372l-204.338-155.678v-393.203l204.338-155.678zM258.448 617.928h-152.607v-339.671h152.607z" />
<glyph unicode="&#xe92a;" glyph-name="soundon" horiz-adv-x="1150" d="M645.115 954.388c17.559-8.815 29.399-26.681 29.399-47.313 0-0.011 0-0.021 0-0.032v0.002-918.251c0-0.060 0-0.132 0-0.203 0-20.584-11.847-38.4-29.095-47.003l-0.304-0.137c-6.839-3.438-14.903-5.45-23.437-5.45-0.026 0-0.051 0-0.077 0h0.004c-0.062 0-0.135 0-0.209 0-12.030 0-23.106 4.084-31.917 10.942l0.117-0.087-295.861 225.492h-240.873c-0.027 0-0.060 0-0.092 0-29.17 0-52.817 23.647-52.817 52.817 0 0.024 0 0.049 0 0.073v-0.004 445.465c0 0.021 0 0.045 0 0.069 0 29.183 23.657 52.84 52.84 52.84 0.024 0 0.049 0 0.073 0h240.869l295.861 225.539c8.723 6.818 19.847 10.933 31.932 10.933 8.57 0 16.656-2.069 23.787-5.735l-0.293 0.137zM568.696 800.372l-204.338-155.678v-393.203l204.338-155.678zM1020.813 757.463c79.544-79.079 128.775-188.575 128.775-309.569 0-0.401-0.001-0.802-0.002-1.203v0.062c0-115.702-45.727-225.123-128.774-308.193-9.422-9.541-22.503-15.451-36.963-15.451-0.101 0-0.202 0-0.303 0.001h0.016c-29.227 0.042-52.904 23.745-52.904 52.978 0 14.594 5.901 27.81 15.447 37.391l-0.002-0.002c63.047 63.14 97.758 145.979 97.758 233.391 0.001 0.224 0.001 0.489 0.001 0.755 0 91.898-37.371 175.067-97.745 235.14l-0.014 0.013c-10.705 9.715-17.4 23.682-17.4 39.213 0 29.208 23.678 52.886 52.886 52.886 15.537 0 29.509-6.7 39.185-17.368l0.040-0.044zM895.388 632.061c47.542-47.162 76.974-112.519 76.974-184.75 0-0.148 0-0.295 0-0.443v0.023c0-66.973-28.083-133.577-76.973-182.676-9.497-9.612-22.678-15.566-37.25-15.566-0.065 0-0.13 0-0.195 0h0.010c-0.012 0-0.027 0-0.042 0-29.259 0-52.978 23.719-52.978 52.978 0 14.594 5.901 27.81 15.447 37.391l-0.002-0.002c29.399 29.376 46.189 68.682 46.189 107.873-0.030 43.19-17.691 82.249-46.172 110.375l-0.016 0.016c-9.549 9.578-15.454 22.794-15.454 37.39 0 29.248 23.71 52.959 52.959 52.959 14.653 0 27.916-5.951 37.504-15.568l0.001-0.001zM258.402 617.905h-152.561v-339.647h152.561z" />
<glyph unicode="&#xe92b;" glyph-name="rectangle" horiz-adv-x="931" d="M465.455 876.092l460.776-460.776-460.776-460.776-460.776 460.776 460.776 460.776z" />
<glyph unicode="&#xe92c;" glyph-name="highway" horiz-adv-x="951" d="M44.079-63.998c-2.441 0-4.917 0.186-7.407 0.57-23.97 3.692-40.108 24.34-36.047 46.122l176.082 943.985c4.063 21.778 26.778 36.444 50.756 32.752 23.97-3.692 40.108-24.34 36.047-46.122l-176.082-943.985c-3.641-19.518-22.268-33.322-43.35-33.322zM914.185-63.428c23.97 3.692 40.108 24.34 36.047 46.122l-176.082 943.983c-4.063 21.78-26.798 36.444-50.756 32.752-23.97-3.692-40.108-24.34-36.047-46.122l176.082-943.985c3.641-19.52 22.268-33.322 43.35-33.322 2.441 0 4.919 0.188 7.407 0.572zM519.45 759.996v159.998c0 22.092-19.708 40-44.021 40s-44.021-17.908-44.021-40v-159.998c0-22.092 19.708-40 44.021-40s44.021 17.908 44.021 40zM519.45 368.001v160c0 22.092-19.708 40-44.021 40s-44.021-17.908-44.021-40v-160c0-22.092 19.708-40 44.021-40s44.021 17.908 44.021 40zM519.45-23.992v159.998c0 22.092-19.708 40-44.021 40s-44.021-17.908-44.021-40v-159.998c0-22.092 19.708-40 44.021-40s44.021 17.908 44.021 40z" />
<glyph unicode="&#xe92d;" glyph-name="swimming-pool" horiz-adv-x="1317" d="M29.922 146.627c9.769 0.066 19.528-0.687 29.183-2.253 0.778-0.232 1.565-0.342 2.358-0.508 20.638-4.362 40.279-12.86 57.845-25.027 35.508-24.698 77.366-37.431 119.967-36.492 42.162-1.052 83.623 11.434 118.827 35.786 0.395 0.216 0.775 0.43 1.167 0.675 26.251 18.905 57.523 28.64 89.359 27.82 31.914 0.752 63.255-8.963 89.65-27.788 35.395-24.72 77.171-37.457 119.688-36.492 42.599-0.852 84.443 11.861 120.008 36.46 26.25 18.904 57.521 28.64 89.356 27.82 32.108 0.719 63.626-9.104 90.146-28.096 35.424-24.475 77.101-37.093 119.515-36.184 28.58-0.661 56.98 4.894 83.411 16.315 12.591 5.832 24.788 12.559 36.505 20.133 26.538 18.588 57.831 28.293 89.742 27.832 16.526 0 29.922 14.047 29.922 31.375s-13.397 31.375-29.922 31.375c-11.634 0.147-23.259-0.714-34.757-2.573-30.41-4.755-59.486-16.323-85.251-33.916-9.516-6.176-19.412-11.682-29.623-16.484-19.027-8.143-39.477-11.991-60.018-11.295-32.201-0.851-63.83 9.029-90.338 28.218-25.107 16.994-53.314 28.32-82.824 33.257l-246.558 377.546 315.935 165.818c28.132 14.737 48.584 41.795 55.842 73.879s0.573 65.891-18.251 92.306c-30.704 41.543-84.638 55.463-130.224 33.612l-436.515-216.651c-30.667-15.237-53.884-43.193-64.062-77.138s-6.393-70.802 10.441-101.697l58.019-108.186-387.030-238.864c-10.45 1.426-20.976 2.15-31.514 2.168-16.526 0-29.922-14.047-29.922-31.375s13.397-31.375 29.922-31.375v0zM478.972 392.111c28.519 17.653 38.192 56.074 21.696 86.186l-58.294 107.147c-8.548 15.719-10.459 34.464-5.273 51.722s16.998 31.47 32.595 39.213l436.425 216.588c16.049 8.133 35.135 5.806 48.976-5.972s19.942-30.883 15.655-49.025c-3.085-13.915-11.998-25.625-24.255-31.864l-315.798-165.758c-15.695-8.051-27.28-22.855-31.747-40.567-4.498-17.909-1.352-36.984 8.621-52.27l223.569-340.897c-29.798-4.93-58.262-16.425-83.516-33.728-26.334-18.96-57.717-28.689-89.65-27.792-32.099-0.804-63.615 9.074-90.027 28.218-35.383 24.392-76.987 36.965-119.323 36.062-42.265 0.967-83.804-11.621-119.060-36.081-0.455-0.248-0.922-0.521-1.373-0.797-26.129-18.765-57.262-28.356-88.919-27.393-31.957-0.805-63.346 8.949-89.724 27.883-4.189 2.576-8.543 5.196-12.998 7.803l342.419 211.32zM1286.649 82.233c-42.571 1.050-84.396-13.572-119.907-41.918-54.557-42.727-124.844-42.727-179.401 0-73.211 55.891-166.561 55.891-239.772 0-26.348-21.757-57.7-32.968-89.62-32.045-31.888-0.92-63.207 10.291-89.518 32.045-35.457 28.346-77.237 42.97-119.763 41.918-42.546 1.051-84.346-13.572-119.826-41.918-26.331-21.758-57.669-32.969-89.575-32.045-31.902-0.921-63.235 10.29-89.563 32.045-35.466 28.341-77.252 42.964-119.784 41.918-16.526 0-29.922-16.162-29.922-36.099s13.397-36.099 29.922-36.099c31.899 0.913 63.227-10.304 89.548-32.063 35.473-28.345 77.266-42.968 119.805-41.918 42.544-1.050 84.342 13.573 119.82 41.918 26.331 21.758 57.669 32.969 89.575 32.045 31.888 0.92 63.207-10.291 89.518-32.045 35.457-28.346 77.237-42.97 119.763-41.918 42.557-1.052 84.369 13.571 119.862 41.918 54.525 42.727 124.789 42.727 179.314 0 73.231-55.891 166.597-55.891 239.828 0 26.375 21.763 57.75 32.979 89.694 32.063 16.526 0 29.922 16.162 29.922 36.099s-13.397 36.099-29.922 36.099zM877.714 521.134c0.005-121.187 98.251-219.424 219.438-219.419s219.424 98.251 219.419 219.438c-0.005 121.187-98.251 219.424-219.438 219.419-121.136-0.129-219.301-98.302-219.419-219.438v0zM1097.134 679.161c87.264 0 158.009-70.74 158.009-158.004s-70.735-158.008-157.999-158.014c-87.264-0.006-158.011 70.73-158.019 157.994 0.096 87.228 70.781 157.919 158.009 158.024v0z" />
<glyph unicode="&#xe92e;" glyph-name="spa" horiz-adv-x="1144" d="M1130.675 85.122c-11.027 6.026-24.915 2.096-31.028-8.782-33.016-58.787-95.793-95.305-163.837-95.305h-182.412c12.761 8.663 24.804 18.494 35.921 29.462 58.401 57.619 85.391 140.144 72.197 220.761-1.568 9.581-9.182 17.096-18.894 18.64-57.63 9.183-116.216-1.383-166.243-28.609-15.041 51.032-45.859 95.861-88.991 129.039h348.422c69.642 0 133.111-37.78 165.645-98.601 4.090-7.647 12.010-12.013 20.207-12.013 3.59 0 7.235 0.838 10.632 2.608 11.15 5.803 15.418 19.424 9.534 30.424-30.761 57.508-83.778 98.426-145.496 114.747 38.234 30.577 62.731 77.245 62.731 129.469 0 91.882-75.769 166.632-168.902 166.632h-41.628c20.216 22.939 32.498 52.856 32.498 85.568 0 72.014-59.387 130.604-132.383 130.604h-115.62c-72.995 0-132.383-58.589-132.383-130.604 0-32.712 12.282-62.629 32.498-85.568h-34.289c-42.931 0-83.513-15.853-114.518-44.137l-51.107 63.404c-4.328 5.368-10.894 8.496-17.844 8.503-0.007 0-0.014 0-0.021 0-6.941 0-13.508-3.116-17.837-8.471l-74.059-91.875c-34.016-42.201-33.694-101.2-1.045-142.849h-41.589c-3.659 0-7.265-0.869-10.511-2.531-105.059-53.77-170.322-159.647-170.322-276.31 0-49.74 11.549-97.275 34.326-141.284 21.713-41.958 53.414-79.139 91.68-107.521 3.953-2.936 8.769-4.522 13.718-4.522h796.086c84.631 0 162.712 45.412 203.767 118.512 6.11 10.878 2.125 24.583-8.902 30.611v0zM481.25 146.828c44.056-43.462 66.39-104.163 61.442-165.099-61.745-4.871-123.294 17.152-167.348 60.616s-66.39 104.165-61.442 165.101c61.75 4.88 123.292-17.154 167.348-60.618zM818.482 207.446c4.946-60.94-17.388-121.639-61.444-165.101-44.054-43.462-105.555-65.504-167.348-60.616-4.946 60.94 17.388 121.639 61.442 165.099 44.054 43.464 105.564 65.489 167.35 60.618v0zM636.207 194.282c-5.996-4.918-11.793-10.122-17.356-15.609-22.302-22.004-40.007-47.648-52.659-75.424-12.652 27.776-30.357 53.419-52.661 75.424-5.581 5.506-11.396 10.723-17.415 15.657 9.876 45.063 34.308 85.14 70.049 115.015 35.768-29.895 60.179-69.979 70.042-115.062v0zM546.294 769.161c0 47.182 38.909 85.568 86.734 85.568h115.62c47.824 0 86.734-38.386 86.734-85.568s-38.909-85.568-86.734-85.568h-115.62c-47.824 0-86.734 38.386-86.734 85.568v0zM890.16 638.557c67.96 0 123.253-54.55 123.253-121.596s-55.293-121.596-123.253-121.596h-338.533c-25.68 28.652-56.557 52.53-91.228 70.276-3.248 1.662-6.854 2.531-10.511 2.531h-41.584c30.829 39.332 32.808 94.12 4.284 135.639 22.946 22.23 53.677 34.747 86.263 34.747h391.308zM259.194 582.988l56.167 69.682 56.165-69.682c22.724-28.19 20.394-68.652-5.425-94.122-8.114-8.005-17.707-13.673-27.915-17.033v70.235c0 12.434-10.221 22.518-22.825 22.518s-22.825-10.084-22.825-22.518v-70.235c-10.209 3.362-19.805 9.030-27.917 17.033-25.819 25.468-28.15 65.932-5.425 94.122v0zM45.649 189.326c0 97.984 53.83 187.074 140.869 233.81h257.681c36.339-19.53 67.602-47.011 91.463-80.281-38.252-32.288-65.744-74.259-79.694-121.545-50.016 27.213-108.586 37.771-166.204 28.589-9.712-1.549-17.326-9.057-18.894-18.638-13.197-80.616 13.791-163.144 72.194-220.763 11.118-10.968 23.16-20.8 35.919-29.462h-231.469c-64.84 50.832-101.864 126.325-101.864 208.29zM138.931 810.144c-6.438-7.057-6.438-18.499 0-25.557 3.22-3.527 7.438-5.293 11.658-5.293s8.438 1.765 11.658 5.293c24.611 26.976 24.611 70.864 0 97.84-11.754 12.883-11.754 33.844 0 46.725 6.438 7.057 6.438 18.499 0 25.557-6.44 7.055-16.877 7.055-23.319 0-24.611-26.976-24.611-70.864 0-97.84 11.756-12.883 11.756-33.844 0.002-46.725zM78.694 689.673c-6.439-7.056-6.439-18.499 0-25.557 3.22-3.527 7.439-5.293 11.658-5.293s8.439 1.765 11.659 5.293c24.612 26.976 24.612 70.863 0 97.837-11.754 12.884-11.754 33.844 0 46.728 6.439 7.056 6.439 18.497-0.002 25.555-6.437 7.058-16.879 7.056-23.317-0.002-24.61-26.974-24.61-70.861 0-97.837 11.756-12.882 11.756-33.844 0.002-46.725zM1135.643 168.117c-5.599 5.602-13.369 8.824-21.29 8.824s-15.691-3.219-21.293-8.824c-5.602-5.605-8.824-13.375-8.824-21.295s3.22-15.691 8.824-21.289c5.602-5.602 13.372-8.827 21.293-8.827s15.691 3.222 21.29 8.827c5.605 5.599 8.827 13.369 8.827 21.289s-3.223 15.691-8.827 21.295z" />
<glyph unicode="&#xe92f;" glyph-name="sea-link" horiz-adv-x="1812" d="M1798.076 478.357c-271.35 81.336-317.524 380.405-320.162 399.32v63.547c0 10.369-8.646 18.776-19.311 18.776h-92.19c-10.665 0-19.311-8.406-19.311-18.776v-43.672c-17.398-53.733-45.847-103.467-83.621-146.182-85.58-97.338-205.903-146.691-357.63-146.691s-272.050 49.353-357.63 146.691c-37.777 42.714-66.227 92.45-83.621 146.187v43.667c0 10.369-8.646 18.776-19.311 18.776h-92.19c-10.665 0-19.311-8.406-19.311-18.776v-63.547c-2.632-18.915-48.812-317.984-320.162-399.32-10.193-3.056-15.908-13.567-12.764-23.478s13.954-15.467 24.147-12.411c13.655 4.098 26.947 8.878 39.984 14.119v-117.144h-41.921c-10.665 0-19.311-8.406-19.311-18.776v-89.769c0-10.369 8.646-18.776 19.311-18.776h276.701v-238.043c-7.581-0.295-15.658-0.472-24.453-0.472-40.978-0.802-81.846 4.416-121.222 15.476-42.577 11.881-86.738 17.519-131.026 16.726-10.665 0-19.311-8.406-19.311-18.776s8.646-18.776 19.311-18.776c40.978 0.802 81.846-4.416 121.222-15.476 42.577-11.878 86.739-17.511 131.026-16.71 44.287-0.8 88.45 4.832 131.026 16.71 39.376 11.061 80.244 16.279 121.222 15.476 40.968 0.745 81.82-4.471 121.2-15.476 85.895-21.861 176.131-21.861 262.025 0 39.369 11.061 80.229 16.278 121.2 15.476 40.973 0.802 81.835-4.415 121.206-15.476 42.569-11.878 86.724-17.51 131.004-16.71 44.28-0.8 88.435 4.832 131.004 16.71 39.369 11.060 80.229 16.278 121.2 15.476 40.975 0.803 81.839-4.415 121.211-15.476 42.571-11.878 86.728-17.51 131.010-16.71 10.665 0 19.311 8.406 19.311 18.776s-8.646 18.776-19.311 18.776c-40.973-0.802-81.835 4.416-121.206 15.476-42.574 11.876-86.732 17.508-131.015 16.71-8.717 0-16.833-0.161-24.481-0.44v206.752h276.701c10.665 0 19.311 8.406 19.311 18.776v89.769c0 10.369-8.646 18.776-19.311 18.776h-41.932v117.144c13.038-5.241 26.329-10.021 39.984-14.119 10.193-3.056 21.004 2.5 24.147 12.411s-2.572 20.422-12.764 23.478h0.011zM1601.040 550.842c31.618-30.492 67.684-56.288 107.037-76.556v-134.841h-107.037v211.397zM1477.892 736.801c5.727-14.017 12.265-28.598 19.725-43.452 17.781-35.708 39.541-69.409 64.89-100.498 0-0.29-0.088-0.536-0.088-0.848v-252.543h-61.077v140.887c0 10.369-8.646 18.776-19.311 18.776h-4.138v237.678zM1385.703 922.449h53.568v-423.326h-53.568v423.326zM1362.254 461.556h100.466v-122.111h-100.444l-0.022 122.111zM1227.393 666.189c24.335 18.444 46.66 39.267 66.622 62.142 20.129 23.116 37.901 48.077 53.066 74.534v-303.741h-4.138c-10.665 0-19.311-8.406-19.311-18.776v-140.887h-96.217l-0.022 326.728zM1044.707 582.197c50.943 11.478 99.609 30.991 144.064 57.765v-300.517h-144.042l-0.022 242.753zM805.596 574.762c66.427-10.185 134.085-10.185 200.512 0v-235.323h-200.512v235.323zM622.91 639.956c44.455-26.774 93.121-46.287 144.064-57.765v-242.753h-144.064v300.517zM464.6 802.864c15.165-26.456 32.937-51.418 53.066-74.534 19.963-22.875 42.287-43.698 66.622-62.142v-326.744h-96.239v140.903c0 10.369-8.646 18.776-19.311 18.776h-4.138v303.741zM372.411 922.449h53.568v-423.326h-53.568v423.326zM348.962 461.572h100.466v-122.111h-100.466v122.111zM314.064 693.317c7.459 14.87 13.998 29.451 19.725 43.452v-237.646h-4.138c-10.665 0-19.311-8.406-19.311-18.776v-140.887h-61.055v252.527c0 0.29-0.072 0.536-0.088 0.848 25.34 31.084 47.093 64.78 64.868 100.482v0zM103.626 474.286c39.353 20.268 75.419 46.064 107.037 76.556v-211.397h-107.037v134.841zM459.993 1.982c-21.428-2.874-42.628-7.176-63.45-12.875-19.082-5.24-38.507-9.219-58.142-11.909v234.926h121.592v-210.142zM1313.089-25.72c-8.828-0.413-18.356-0.654-28.883-0.654-40.971-0.801-81.831 4.417-121.2 15.476-42.572 11.876-86.728 17.508-131.010 16.71-44.282 0.797-88.438-4.835-131.010-16.71-31.184-7.961-130.243-33.34-242.406 0-31.819 9.463-65.469 16.71-131.010 16.71-10.483 0-20.011-0.236-28.955-0.633v206.945h814.474v-237.844zM1473.307 2.53c-22.948-2.807-45.646-7.29-67.902-13.411-17.649-4.813-35.58-8.59-53.695-11.308v234.314h121.597v-209.595zM1769.32 301.867v-52.191h-1726.936v52.202l1726.936-0.011z" />
<glyph unicode="&#xe930;" glyph-name="sanjeevani-hospital" d="M984.615 644.923h-275.692v275.692c0 21.88-17.504 39.385-39.385 39.385h-315.077c-21.88 0-39.385-17.504-39.385-39.385v-275.692h-275.692c-21.88 0-39.385-17.504-39.385-39.385v-315.077c0-21.88 17.504-39.385 39.385-39.385h275.692v-275.692c0-21.88 17.504-39.385 39.385-39.385h315.077c21.88 0 39.385 17.504 39.385 39.385v275.692h275.692c21.88 0 39.385 17.504 39.385 39.385v315.077c-2.188 21.88-19.692 39.385-39.385 39.385zM955.733 326.982h-283.9c-22.354 0-40.238-17.929-40.238-40.339v-282.376h-241.427v282.376c0 22.411-17.883 40.339-40.238 40.339h-281.664v242.036h281.664c22.354 0 40.238 17.929 40.238 40.339v282.376h243.662v-282.376c0-22.411 17.883-40.339 40.238-40.339h281.664v-242.036z" />
<glyph unicode="&#xe931;" glyph-name="ritz-carlton" horiz-adv-x="626" d="M526.969-64h-428.162c-54.482 0-98.807 43.063-98.807 95.994v623.958c0 81.205 32.544 157.543 91.637 214.954 122.263 118.784 320.222 118.802 442.504 0 58.475-56.81 91.015-132.335 91.627-212.664 0.41-53.734-43.524-97.823-97.932-98.277-55.163-0.344-99.671 42.717-99.671 95.99 0 62.5-52.596 112.432-115.674 111.992-93.724-0.322-148.7-105.941-91.734-186.579 15.142-21.409 36.336-37.657 61.281-46.975l259.289-96.897c50.513-18.873 84.451-66.878 84.451-119.458v-286.041c0-52.932-44.327-95.996-98.809-95.996zM312.888 895.936c-136.536 0-247.017-107.313-247.017-239.984v-623.958c0-17.643 14.776-31.998 32.936-31.998h428.162c18.16 0 32.936 14.355 32.936 31.998v286.041c0 26.29-16.97 50.291-42.225 59.728l-259.287 96.893c-80.031 29.894-128.478 105.401-126.623 181.938 1.509 96.13 81.217 175 180.489 175.344 100.482 0.454 181.778-78.811 181.778-175.988 0-17.997 15.198-32.218 33.234-31.996 17.826 0.148 32.769 15.633 32.635 33.812-1.007 131.521-110.812 238.17-247.017 238.17zM475.591 163.556h-325.404c-20.107 0-36.409 12.736-36.409 28.444s16.302 28.444 36.409 28.444h325.404c20.107 0 36.409-12.736 36.409-28.444s-16.3-28.444-36.409-28.444zM475.591 49.778h-325.404c-20.107 0-36.409 12.736-36.409 28.444s16.302 28.444 36.409 28.444h325.404c20.107 0 36.409-12.736 36.409-28.444s-16.3-28.444-36.409-28.444z" />
<glyph unicode="&#xe932;" glyph-name="multipurpose-court" horiz-adv-x="1536" d="M1536 938.791c0 11.71-9.405 21.209-21 21.209h-1493.952c-5.577 0-10.929-2.22-14.877-6.198s-6.171-9.378-6.171-15.010v-981.583c0-11.71 9.405-21.209 21-21.209h1493.952c11.595 0 20.993 9.498 21 21.209-0.024 179.17 0.048 889.719 0.048 981.583v0zM1114.86 447.964c0.058 45.326 31.181 84.571 74.964 94.53v-189.060c-43.781 9.963-74.901 49.206-74.964 94.53zM1306.8 447.964c-0.063-45.324-31.183-84.567-74.964-94.53v189.060c43.783-9.958 74.906-49.204 74.964-94.53v0zM1309.752 544.917h184.248v-193.907h-184.26c52.096 53.929 52.096 139.978 0 193.907h0.012zM1494 587.334h-283.2c-25.438-0.021-50.369-7.193-72-20.712 46.993 109.897 154.123 181.11 272.652 181.243h82.548v-160.531zM1210.8 308.593h283.2v-160.47h-82.488c-118.551 0.108-225.711 71.326-272.712 181.243 21.625-13.54 46.556-20.733 72-20.772v0zM747 273.714c-87.287 10.672-152.94 85.488-152.94 174.286s65.653 163.614 152.94 174.286v-348.573zM789 622.286c87.287-10.672 152.94-85.488 152.94-174.286s-65.653-163.614-152.94-174.286v348.573zM421.2 447.964c-0.067-45.322-31.186-84.563-74.964-94.53v189.060c43.781-9.963 74.901-49.206 74.964-94.53v0zM229.2 447.964c0.058 45.326 31.181 84.571 74.964 94.53v-189.060c-43.781 9.963-74.901 49.206-74.964 94.53v0zM226.248 351.010h-184.248v193.907h184.26c-52.096-53.929-52.096-139.978 0-193.907h-0.012zM42 308.593h283.2c25.438 0.021 50.369 7.193 72 20.712-47.012-109.877-154.145-181.065-272.664-181.182h-82.536v160.47zM325.2 587.334h-283.2v160.543h82.488c118.551-0.108 225.711-71.326 272.712-181.243-21.633 13.515-46.563 20.682-72 20.7v0zM42 105.705h82.488c187.185 0 338.928 153.251 338.928 342.295s-151.743 342.295-338.928 342.295h-82.488v127.288h705v-252.552c-110.603-10.896-194.953-104.799-194.953-217.031s84.35-206.134 194.953-217.031v-252.552h-705v127.288zM788.952-21.546v252.516c110.603 10.896 194.953 104.799 194.953 217.031s-84.35 206.134-194.953 217.031v252.552h705.048v-127.252h-82.488c-187.185 0-338.928-153.251-338.928-342.295s151.743-342.295 338.928-342.295h82.488v-127.252l-705.048-0.036z" />
<glyph unicode="&#xe933;" glyph-name="metro" horiz-adv-x="1676" d="M0 445.892c0-24.533 20.935-44.437 46.766-44.437h651.198c18.914 0 35.964 10.832 43.198 27.438 7.246 16.606 3.24 35.723-10.133 48.43l-200.377 190.386c-8.769 8.332-20.655 13.019-33.065 13.019h-450.821c-25.831 0-46.766-19.893-46.766-44.437s20.935-44.437 46.766-44.437h431.456l106.832-101.512h-538.288c-25.831-0.012-46.766-19.904-46.766-44.449zM1626.545 23.438h-427.973c25.543 28.588 43.645 62.652 51.686 99.882h201.196c123.609 0 224.182 89.555 224.182 199.706 0 62.072-27.141 120.432-76.423 164.321l-439.351 391.261c-58.922 52.485-137.263 81.392-220.615 81.392h-890.156c-27.115 0-49.091-19.571-49.091-43.719s21.976-43.719 49.091-43.719h558.064l375.482-334.404c29.161-25.935 67.896-40.224 109.074-40.224h356.753l81.32-72.421c30.746-27.37 47.672-63.768 47.672-102.546 0-61.878-56.518-112.223-126.013-112.223h-1402.351c-27.115 0-49.091-19.571-49.091-43.719 0-54.227 21.145-104.128 56.416-143.589h-7.325c-27.115 0-49.091-19.571-49.091-43.719s21.976-43.719 49.091-43.719h1577.455c27.115 0 49.091 19.571 49.091 43.719s-21.976 43.719-49.091 43.719v0zM1091.71 585.373c-14.97 0-29.071 5.203-39.669 14.63l-306.038 272.56h193.244c57.119 0 110.812-19.81 151.185-55.776l259.849-231.402-258.571-0.011zM1149.162 123.319c-20.812-57.871-81.805-99.882-153.652-99.882-71.77 0-132.737 42-153.55 99.882h307.202zM792.537 23.438h-330.111c25.543 28.588 43.645 62.652 51.686 99.882h226.739c8.041-37.229 26.143-71.294 51.686-99.882zM105.827 123.319h307.189c-20.812-57.871-81.805-99.882-153.601-99.882s-132.776 42.011-153.588 99.882z" />
</font>
</defs>
</svg>
