<?xml version="1.0" encoding="UTF-8"?>
<svg width="53px" height="53px" viewBox="0 0 53 53" version="1.1" xmlns="http://www.w3.org/2000/svg" xmlns:xlink="http://www.w3.org/1999/xlink">
    <title>Group 9</title>
    <g id="Designs" stroke="none" stroke-width="1" fill="none" fill-rule="evenodd">
        <g id="About" transform="translate(-1166.000000, -3452.000000)">
            <g id="Group-8" transform="translate(107.000000, 3422.000000)">
                <g id="Group-9" transform="translate(1059.000000, 30.000000)">
                    <circle id="Oval" fill="#9A6E41" cx="26.5" cy="26.5" r="26.5"></circle>
                    <g id="close" transform="translate(18.000000, 18.000000)" fill="#EEEDE8" fill-rule="nonzero">
                        <path d="M10.6490693,9.00013344 L17.6579075,1.99093622 C18.1140308,1.535017 18.1140308,0.797858637 17.6579075,0.341939416 C17.2019978,-0.113979805 16.4648547,-0.113979805 16.008945,0.341939416 L8.99989321,7.35113669 L1.99105503,0.341939416 C1.53493175,-0.113979805 0.798002218,-0.113979805 0.342092462,0.341939416 C-0.114030821,0.797858637 -0.114030821,1.535017 0.342092462,1.99093622 L7.35093069,9.00013344 L0.342092462,16.0093307 C-0.114030821,16.4652499 -0.114030821,17.2024083 0.342092462,17.6583275 C0.569299941,17.8857533 0.868043621,18 1.16657378,18 C1.46510387,18 1.76363403,17.8857533 1.99105503,17.6583275 L8.99989321,10.6491302 L16.008945,17.6583275 C16.236366,17.8857533 16.5348961,18 16.8334263,18 C17.1319564,18 17.4304865,17.8857533 17.6579075,17.6583275 C18.1140308,17.2024083 18.1140308,16.4652499 17.6579075,16.0093307 L10.6490693,9.00013344 Z" id="Path"></path>
                    </g>
                </g>
            </g>
        </g>
    </g>
</svg>