<?xml version="1.0" encoding="UTF-8"?>
<svg width="61px" height="52px" viewBox="0 0 61 52" version="1.1" xmlns="http://www.w3.org/2000/svg" xmlns:xlink="http://www.w3.org/1999/xlink">
    <title>credit-card</title>
    <g id="Designs" stroke="none" stroke-width="1" fill="none" fill-rule="evenodd">
        <g id="payment" transform="translate(-1061.000000, -217.000000)" fill="#9A6E41" fill-rule="nonzero">
            <g id="credit-card" transform="translate(1061.985507, 217.000000)">
                <path d="M57.5620471,33.3636364 C56.5442971,33.3636364 55.7182971,34.1985455 55.7182971,35.2272727 L55.7182971,48.2727273 L4.0932971,48.2727273 L4.0932971,25.9090909 L24.3745471,25.9090909 C25.3922971,25.9090909 26.2182971,25.0741818 26.2182971,24.0454545 C26.2182971,23.0167273 25.3922971,22.1818182 24.3745471,22.1818182 L4.0932971,22.1818182 L4.0932971,14.7272727 L24.3745471,14.7272727 C25.3922971,14.7272727 26.2182971,13.8923636 26.2182971,12.8636364 C26.2182971,11.8349091 25.3922971,11 24.3745471,11 L4.0932971,11 C2.0577971,11 0.405797101,12.6698182 0.405797101,14.7272727 L0.405797101,48.2727273 C0.405797101,50.3301818 2.0577971,52 4.0932971,52 L55.7182971,52 C57.7537971,52 59.4057971,50.3301818 59.4057971,48.2727273 L59.4057971,35.2272727 C59.4057971,34.1985455 58.5797971,33.3636364 57.5620471,33.3636364 Z" id="Path"></path>
                <path d="M16.5724638,33 L9.23913043,33 C8.22713043,33 7.4057971,33.896 7.4057971,35 C7.4057971,36.104 8.22713043,37 9.23913043,37 L16.5724638,37 C17.5844638,37 18.4057971,36.104 18.4057971,35 C18.4057971,33.896 17.5844638,33 16.5724638,33 Z" id="Path"></path>
                <path d="M58.2695471,5.69721743 L45.1445471,0.147078677 C44.6682971,-0.0490262257 44.1395471,-0.0490262257 43.6632971,0.147078677 L30.5382971,5.69721743 C29.8520471,5.98952474 29.4057971,6.65924148 29.4057971,7.39925998 L29.4057971,14.799445 C29.4057971,24.9783995 33.2195471,30.9281482 43.4720471,36.7557939 C43.7607971,36.918598 44.0832971,37 44.4057971,37 C44.7282971,37 45.0507971,36.918598 45.3395471,36.7557939 C55.5920471,30.9429486 59.4057971,24.9931998 59.4057971,14.799445 L59.4057971,7.39925998 C59.4057971,6.65924148 58.9595471,5.98952474 58.2695471,5.69721743 Z M55.6557971,14.799445 C55.6557971,23.3429586 52.7907971,28.0457761 44.4057971,33.0039001 C36.0207971,28.0346759 33.1557971,23.3318583 33.1557971,14.799445 L33.1557971,8.62029051 L44.4057971,3.86197155 L55.6557971,8.62029051 L55.6557971,14.799445 Z" id="Shape"></path>
                <path d="M51.7026202,11.4025803 C50.8964052,10.7710376 49.7189562,10.8936312 49.0664845,11.692347 L43.1717401,18.9959527 L40.8393412,15.5410426 C40.2581164,14.6866025 39.0919169,14.4599901 38.2407038,15.0246636 C37.3819911,15.593052 37.1457513,16.7484037 37.7194764,17.5991288 L41.4693139,23.1715646 C41.8030494,23.6656539 42.3505257,23.9702803 42.9504997,24 C42.9767485,24 43.0067472,24 43.0292462,24 C43.5954717,24 44.1354483,23.7473829 44.4954327,23.3015881 L51.9951075,14.0141952 C52.6400796,13.2117645 52.5125851,12.0452679 51.7026202,11.4025803 Z" id="Path"></path>
            </g>
        </g>
    </g>
</svg>