<?xml version="1.0" encoding="UTF-8"?>
<svg width="46px" height="61px" viewBox="0 0 46 61" version="1.1" xmlns="http://www.w3.org/2000/svg" xmlns:xlink="http://www.w3.org/1999/xlink">
    <title>google-forms</title>
    <g id="Designs" stroke="none" stroke-width="1" fill="none" fill-rule="evenodd">
        <g id="payment" transform="translate(-666.000000, -215.000000)" fill="#9A6E41" fill-rule="nonzero">
            <g id="google-forms" transform="translate(666.028986, 216.000000)">
                <path d="M44.8550881,14.0733648 L31.0093958,0.245585513 C30.6810111,-0.0824867527 30.2322804,-0.260869565 29.7853958,-0.260869565 L5.55462653,-0.260869565 C2.69158807,-0.260869565 0.362318841,2.06536676 0.362318841,4.92467731 L0.362318841,53.5535836 C0.362318841,56.4128941 2.69158807,58.7391304 5.55462653,58.7391304 L40.1700111,58.7391304 C43.0330496,58.7391304 45.3623188,56.4128941 45.3623188,53.5535836 L45.3623188,15.2957711 C45.3623188,14.8214664 45.1612035,14.3788511 44.8550881,14.0733648 Z M31.516165,5.64062848 L39.4531265,13.5672554 L33.2469342,13.5672554 C32.2925881,13.5672554 31.516165,12.7918433 31.516165,11.8387398 L31.516165,5.64062848 Z M40.1700111,55.2820992 L5.55462653,55.2820992 C4.60028038,55.2820992 3.8238573,54.5066871 3.8238573,53.5535836 L3.8238573,4.92467731 C3.8238573,3.97157379 4.60028038,3.19616168 5.55462653,3.19616168 L28.0546265,3.19616168 L28.0546265,11.8387398 C28.0546265,14.6980504 30.3838958,17.0242867 33.2469342,17.0242867 L41.9007804,17.0242867 L41.9007804,53.5535836 C41.9007804,54.5066871 41.1243573,55.2820992 40.1700111,55.2820992 Z" id="Shape"></path>
                <path d="M32.6123188,28.7391304 L15.1123188,28.7391304 C14.1458522,28.7391304 13.3623188,29.4107304 13.3623188,30.2391304 C13.3623188,31.0675304 14.1458522,31.7391304 15.1123188,31.7391304 L32.6123188,31.7391304 C33.5787855,31.7391304 34.3623188,31.0675304 34.3623188,30.2391304 C34.3623188,29.4107304 33.5787855,28.7391304 32.6123188,28.7391304 Z" id="Path"></path>
                <path d="M32.6123188,35.7391304 L15.1123188,35.7391304 C14.1458522,35.7391304 13.3623188,36.4107304 13.3623188,37.2391304 C13.3623188,38.0675304 14.1458522,38.7391304 15.1123188,38.7391304 L32.6123188,38.7391304 C33.5787855,38.7391304 34.3623188,38.0675304 34.3623188,37.2391304 C34.3623188,36.4107304 33.5787855,35.7391304 32.6123188,35.7391304 Z" id="Path"></path>
                <path d="M32.6123188,41.7391304 L15.1123188,41.7391304 C14.1458522,41.7391304 13.3623188,42.4107304 13.3623188,43.2391304 C13.3623188,44.0675304 14.1458522,44.7391304 15.1123188,44.7391304 L32.6123188,44.7391304 C33.5787855,44.7391304 34.3623188,44.0675304 34.3623188,43.2391304 C34.3623188,42.4107304 33.5787855,41.7391304 32.6123188,41.7391304 Z" id="Path"></path>
                <circle id="Oval" cx="8.86231884" cy="30.2391304" r="1.5"></circle>
                <circle id="Oval" cx="8.86231884" cy="37.2391304" r="1.5"></circle>
                <circle id="Oval" cx="8.86231884" cy="43.2391304" r="1.5"></circle>
            </g>
        </g>
    </g>
</svg>