<?xml version="1.0" encoding="UTF-8"?>
<svg width="69px" height="64px" viewBox="0 0 69 64" version="1.1" xmlns="http://www.w3.org/2000/svg" xmlns:xlink="http://www.w3.org/1999/xlink">
    <title>Group 8</title>
    <g id="Designs" stroke="none" stroke-width="1" fill="none" fill-rule="evenodd">
        <g id="payment" transform="translate(-239.000000, -212.000000)" fill="#9A6E41" fill-rule="nonzero">
            <g id="Group-8" transform="translate(239.000000, 212.000000)">
                <path d="M34.5015747,60.6790615 L12.8266007,60.6768475 C10.4275209,60.6746335 8.48196575,58.7086379 8.47758387,56.2843528 L8.47758387,26.8652653 L30.5732184,7.23409061 C32.8211233,5.24152748 36.182026,5.24152748 38.4299309,7.23409061 L60.9900448,27.2814896 L61.0119542,27.2992012 L66.2702113,31.9772967 C66.9515938,32.5839214 67.9900996,32.5152887 68.5904173,31.8267475 C69.190735,31.1382062 69.1228158,30.0887896 68.4414333,29.4821648 L63.7966396,25.3553452 L63.7966396,8.59124749 C63.7199567,3.77145869 59.7916004,-0.0741881339 55.021923,0.00108647292 C50.3596017,0.0763610798 46.595566,3.87772873 46.521074,8.59124749 L46.521074,10.0126092 L40.6055348,4.74781462 C37.1153666,1.65934178 31.9009283,1.65934178 28.4107602,4.74781462 L0.557334104,29.4799509 C-0.12404838,30.0865757 -0.189776594,31.1382062 0.410541093,31.8267475 C1.01085878,32.5152887 2.0515555,32.5817075 2.73293798,31.9750827 L5.19555506,29.7854772 L5.19555506,56.2843528 C5.19993694,60.54401 8.61561312,63.9955721 12.8309826,64 L34.5015747,64 C35.408624,64 36.14478,63.2561098 36.14478,62.3395307 C36.14478,61.4207377 35.408624,60.6790615 34.5015747,60.6790615 Z M49.8118666,8.59124749 C49.871022,5.60461676 52.3161116,3.23346665 55.2716902,3.29324354 C58.1418222,3.35080648 60.4576463,5.69096117 60.5146108,8.59124749 L60.5146108,22.4329193 L49.8118666,12.9128955 L49.8118666,8.59124749 Z" id="Shape"></path>
                <path d="M35.5,17 C31.3584254,17 28,20.3584254 28,24.5 C28,28.6415746 31.3584254,32 35.5,32 C39.6415746,32 42.9979282,28.6436464 43,24.5020718 C42.9958564,20.3604972 39.6395028,17.0041436 35.5,17 Z M39.8922652,24.5020718 C39.8881215,26.926105 37.9240331,28.8901934 35.5,28.8922652 C33.073895,28.8922652 31.1077348,26.926105 31.1077348,24.5 C31.1077348,22.073895 33.073895,20.1077348 35.5,20.1077348 C37.926105,20.1077348 39.8922652,22.073895 39.8922652,24.5 L39.8922652,24.5020718 Z" id="Shape"></path>
                <path d="M54.5,35 C46.4920103,35 40,41.4920103 40,49.5 C40,57.5079897 46.4920103,64 54.5,64 C62.5079897,64 69,57.5079897 69,49.5 C68.9889667,41.494217 62.5035763,35.0088267 54.5,35 L54.5,35 Z M54.5,60.6877949 C48.3191295,60.6877949 43.3099985,55.6786638 43.3099985,49.4977933 C43.3099985,43.3169228 48.3191295,38.3077918 54.5,38.3077918 C60.6808705,38.3077918 65.6900015,43.3169228 65.6900015,49.4977933 L65.6900015,49.5 C65.6811749,55.6764572 60.6764572,60.6811749 54.5,60.6877949 L54.5,60.6877949 Z" id="Shape"></path>
                <path d="M59.2874676,45.5017563 L59.2938065,45.5085022 L54.2755296,50.9254693 L51.6871552,48.1776346 C51.0574935,47.5300271 50.0538381,47.5480162 49.445306,48.2181101 C48.8515647,48.8724635 48.8515647,49.9068366 49.445306,50.5611901 L53.1514356,54.5052998 C53.4472498,54.8223577 53.8508249,55 54.2713037,55 C54.6938954,54.9977514 55.0974706,54.8178604 55.3932848,54.4985539 L61.5419946,47.8740686 C62.1568655,47.2107206 62.1526396,46.1426179 61.5293168,45.4882645 C60.905994,44.8316624 59.9023386,44.8384083 59.2874676,45.5017563 Z" id="Path"></path>
            </g>
        </g>
    </g>
</svg>