<svg id="Layer_1" data-name="Layer 1" xmlns="http://www.w3.org/2000/svg" viewBox="0 0 269.41 123.94"><defs><style>.cls-1{fill:#f27023;}.cls-2{fill:#000209;}</style></defs><path class="cls-1" d="M513.93,1991.29c-.44,0-.94.26-1.33-.19H514c.07.05.1.09.07.13A.12.12,0,0,1,513.93,1991.29Z" transform="translate(-405.29 -1991.1)"/><path class="cls-1" d="M513.93,1991.29a1.23,1.23,0,0,0,0-.19h1.35C514.89,1991.48,514.39,1991.29,513.93,1991.29Z" transform="translate(-405.29 -1991.1)"/><path class="cls-2" d="M535.39,2078.77c-6.29,0-12.57,0-18.86,0-.88,0-1.2-.12-1.19-1.12q.06-15.24,0-30.49c0-1,.29-1.15,1.19-1.15q18.36,0,36.7,0c.92,0,1.28.18,1.17,1.14a10.48,10.48,0,0,0,0,2.24c.05.71-.21.88-.89.87-2.58,0-5.16,0-7.74,0-7.34,0-14.67,0-22,0-1,0-1.24.3-1.2,1.25q.1,2.68,0,5.37c0,.93.23,1.19,1.16,1.18,9.13,0,18.26,0,27.39-.05,1.08,0,1.39.26,1.36,1.35-.09,2.65,0,2.66-2.67,2.66-8.68,0-17.36,0-26,0-1,0-1.22.3-1.2,1.25,0,3.47,0,6.95,0,10.42,0,.92.21,1.18,1.15,1.18,10.18,0,20.35,0,30.53,0,.93,0,1.4.13,1.24,1.19-.15.91.39,2.13-.22,2.67s-1.7.14-2.6.14C546.91,2078.78,541.15,2078.77,535.39,2078.77Z" transform="translate(-405.29 -1991.1)"/><path class="cls-2" d="M674.68,2062.41c0,5.12,0,10.24,0,15.35,0,.83-.19,1.07-1,1-1.86-.08-3.73-.05-5.6,0-.64,0-.8-.18-.8-.81q0-15.57,0-31.14c0-.64.17-.83.81-.82,1.9,0,3.81.06,5.72,0,.76,0,.9.23.9.93C674.67,2052.11,674.68,2057.26,674.68,2062.41Z" transform="translate(-405.29 -1991.1)"/><path class="cls-2" d="M460.06,2102.55c0-3.81,0-7.62,0-11.43,0-.74.2-.92.92-.92q8.09,0,16.16,0c.74,0,.93.19.92.92,0,2.05,0,2.05-2,2.05-3.89,0-7.78,0-11.67,0-.8,0-1,.23-1,1,.05,1.9.06,3.81,0,5.71,0,.77.25.9.94.9,3.89,0,7.78,0,11.67,0,1,0,1.17.28,1.14,1.18-.08,1.78,0,1.78-1.87,1.78-3.62,0-7.25,0-10.88,0-.76,0-1,.16-1,1,.06,2.16.05,4.33,0,6.5,0,.74.21.92.93.92,4.38,0,8.75,0,13.13,0,.93,0,1.31.23,1.17,1.17a2.33,2.33,0,0,0,0,.79c.12.75-.22.91-.92.9-4.72,0-9.43,0-14.14,0-1.14,0-2.67.5-3.32-.22s-.16-2.13-.16-3.25C460.05,2108.45,460.06,2105.5,460.06,2102.55Z" transform="translate(-405.29 -1991.1)"/><path class="cls-2" d="M651.92,2090.3a2.51,2.51,0,0,1,.27-.07c3.62-.13,3.63-.13,5.61,2.92l5.49,8.44c1.53-2.34,3-4.56,4.43-6.8.85-1.31,1.71-2.61,2.53-3.95a1.18,1.18,0,0,1,1.17-.64c1,.05,2.07,0,3.13,0a1.89,1.89,0,0,1-.53,1c-2.84,4.16-5.67,8.32-8.53,12.46a2.93,2.93,0,0,0-.54,1.76c0,2.84,0,5.68,0,8.51,0,.76-.21.93-.94.93-2.42,0-2.42,0-2.42-2.43s0-4.7,0-7.06a2.52,2.52,0,0,0-.48-1.55q-4.3-6.27-8.58-12.55C652.37,2091,652.18,2090.7,651.92,2090.3Z" transform="translate(-405.29 -1991.1)"/><path class="cls-2" d="M612.49,2104c0-3.21,0-6.42,0-9.63,0-1.08-.34-1.28-1.31-1.25-2,.07-4,0-5.94,0-.7,0-1-.13-1-.9,0-2.07,0-2.07,2-2.07,5.57,0,11.14,0,16.71,0,.85,0,1.07.21,1,1.05-.05,1.92,0,1.92-1.93,1.92-1.76,0-3.52,0-5.27,0-.84,0-1.07.19-1.06,1,0,6.54,0,13.07,0,19.61,0,.88-.21,1.12-1.1,1.1-2.27-.06-2.27,0-2.27-2.24Z" transform="translate(-405.29 -1991.1)"/><path class="cls-2" d="M560.15,2102.49c0-3.77,0-7.55,0-11.32,0-.79.21-1,1-1,2.37,0,2.38,0,2.38,2.39,0,6.16,0,12.32,0,18.48,0,.76.16,1,1,1,3.36-.05,6.73,0,10.09,0,.79,0,1,.21,1,1,0,1.85,0,1.85-1.88,1.85-4.19,0-8.37,0-12.56,0-.8,0-1-.22-1-1C560.17,2110.1,560.15,2106.3,560.15,2102.49Z" transform="translate(-405.29 -1991.1)"/><path class="cls-1" d="M585.28,2028.48a2.55,2.55,0,0,0-.23-.24q-7.11-7.17-14.2-14.35a2,2,0,0,0-1.56-.65q-11.06,0-22.11,0c-.27,0-.59-.14-.86.2,1.77,1.57,3.54,3.1,5.27,4.69a2.31,2.31,0,0,0,1.71.63c4,0,8,0,12,0a2,2,0,0,1,1.51.53c2.65,2.59,5.33,5.13,8,7.69.13.12.32.23.23.47a1.7,1.7,0,0,1-.31.06h-15a1.84,1.84,0,0,1-1.2-.49c-1.74-1.36-3.3-2.93-4.92-4.42q-5.45-5-10.87-10a3.26,3.26,0,0,1,.25-.3q7.83-7.14,15.65-14.3a1.78,1.78,0,0,1,1.33-.42H574.3c.27,0,.6-.15.84.21-2.83,2.72-5.67,5.42-8.49,8.15a1.66,1.66,0,0,1-1.34.38H553.19c-.36,0-.76-.11-1.07.17-2,1.77-3.89,3.54-6,5.47l.67,0c7.55,0,15.11,0,22.67,0a1.58,1.58,0,0,0,1.26-.54q7.24-7.52,14.51-15a5.76,5.76,0,0,0,1-1.57,2.35,2.35,0,0,0-1.19-3.34c-.35-.17-.74-.3-1.11-.44H554.81a41.31,41.31,0,0,0-4.79,4.36c-2.35,2.24-4.73,4.45-7.07,6.71-1.5,1.45-3,2.88-4.51,4.35-.5.49-.85.52-1.4,0-3.13-2.88-6.17-5.86-9.22-8.82-2.06-2-4.27-3.85-6.23-6a4.81,4.81,0,0,0-.91-.64H515.3c-.44.24-.91.05-1.35.11s-.92.13-1.35-.11h-.45c-.24.21-.49.42-.72.65q-8.78,8.43-17.57,16.85a1.69,1.69,0,0,0-.55,1.37c0,1.75,0,3.51,0,5.27a1.73,1.73,0,0,0,.62,1.45q8.7,8.34,17.39,16.71a1.82,1.82,0,0,0,1.38.56c2.28,0,4.56,0,6.84,0a2.14,2.14,0,0,0,1.67-.67c5.22-5.09,10.48-10.14,15.69-15.24.66-.65,1-.53,1.55,0q7.9,7.71,15.86,15.38a1.92,1.92,0,0,0,1.44.69c9,0,18.1,0,27.16,0a3.46,3.46,0,0,0,3.51-1.93C587.09,2030.68,586.15,2029.58,585.28,2028.48Zm-53.53-15.42q-7.51,7-15,14c-.35.32-.57.48-1,.07q-7.51-7.23-15.06-14.41a.85.85,0,0,1-.13-.22l11.74-11.21c1.14-1.08,2.29-2.15,3.4-3.25.42-.42.7-.52,1.18-.06q7.44,7.07,14.92,14.07C532.26,2012.46,532.16,2012.69,531.75,2013.06Z" transform="translate(-405.29 -1991.1)"/><path class="cls-2" d="M457.41,2051.46c-3.94-3.17-8.65-4.53-13.54-5.43a56.64,56.64,0,0,0-16.08-.46,35.62,35.62,0,0,0-16.33,5.53,12.79,12.79,0,0,0-5.94,8.94c0,.16-.06.29-.23.35v4.26a16,16,0,0,0,2.84,5.47,22.56,22.56,0,0,0,11.43,7.28,53.23,53.23,0,0,0,21.82,1.86,33.76,33.76,0,0,0,15.74-5.86c3.7-2.62,6.21-6,6.3-10.74S461,2054.33,457.41,2051.46Zm-5.86,19a16.68,16.68,0,0,1-6,3.41,33.58,33.58,0,0,1-11.21,1.65c-5.09,0-9.91-.62-14.33-3-3.13-1.68-5.64-4-6.42-7.63a11.51,11.51,0,0,1,6.32-12.75,32.82,32.82,0,0,1,16.87-3,26.76,26.76,0,0,1,13.32,4C454.82,2056.21,457.9,2064.63,451.55,2070.44Z" transform="translate(-405.29 -1991.1)"/><path class="cls-2" d="M508.44,2061.28a16,16,0,0,0-4.71-1.42,13.61,13.61,0,0,0,5.17-2.29c3.46-2.62,3.45-6.61,0-9.18a12.91,12.91,0,0,0-7.91-2.33c-11,0-22.06,0-33.09,0-.9,0-1.09.25-1.09,1.11q0,15.73,0,31.49c0,.93.3,1.06,1.12,1.06q13,0,25.91,0a45.45,45.45,0,0,0,7.38-.47c3.6-.59,7.06-1.57,9.95-3.94a6.74,6.74,0,0,0,2.84-5.45C513.9,2065.83,511.83,2063.13,508.44,2061.28Zm-34.28-10c0-.65.1-.9.84-.9,7.55,0,15.1,0,22.66,0a7.15,7.15,0,0,1,4.23,1.21,3.05,3.05,0,0,1,.25,5.12,6.57,6.57,0,0,1-4.42,1.61c-3.74,0-7.48,0-11.21,0s-7.63,0-11.44,0c-.76,0-.93-.22-.91-.93C474.2,2055.42,474.2,2053.36,474.16,2051.31Zm28,22.4a10.93,10.93,0,0,1-6.57,1.82c-6.84,0-13.68,0-20.52,0-.7,0-1-.13-1-.91.05-3.74,0-7.47,0-11.2,0-.69.15-.88.86-.88,3.74,0,7.47,0,11.21,0h10a9.6,9.6,0,0,1,6.32,2.15C505.72,2067.34,505.56,2071.33,502.2,2073.71Z" transform="translate(-405.29 -1991.1)"/><path class="cls-2" d="M603.74,2073.08c-.55-2-1-4.12-1.6-6.15-.85-2.84-1.78-5.66-4.93-7l.56,0c3.79-.35,6.14-2.53,6.49-6,.29-2.83-1.2-5-4.38-6.26a23.63,23.63,0,0,0-8.66-1.54c-10.36-.08-20.72,0-31.08-.06-.65,0-.82.2-.82.83q0,15.59,0,31.16c0,.59.16.77.75.76,1.95,0,3.89-.06,5.84,0,.85,0,1-.22,1-1.05,0-4.82,0-9.64,0-14.46,0-.72.17-.92.91-.92,7,0,14.07,0,21.1,0,3,0,4.47,1.11,5.41,4q1.88,5.77,3.76,11.55c.12.37.11.82.71.81,2.53,0,5.05,0,7.77,0A12.51,12.51,0,0,1,603.74,2073.08ZM595,2056.76a13.45,13.45,0,0,1-5.94,1.38c-1.79.09-3.59.06-5.38.07h-5.27v0c-3.52,0-7,0-10.55,0-.72,0-1-.17-.93-.91.05-2.21.05-4.41,0-6.62,0-.73.22-.84.88-.84,6.43,0,12.87,0,19.3,0a19.76,19.76,0,0,1,6.52.88,4.54,4.54,0,0,1,2.34,1.63A2.83,2.83,0,0,1,595,2056.76Z" transform="translate(-405.29 -1991.1)"/><path class="cls-2" d="M660,2053.74a21.06,21.06,0,0,0-10.66-6.48,54.53,54.53,0,0,0-26.38-1,28.57,28.57,0,0,0-13.4,6.56c-4.31,3.83-6.36,11.52-1.25,17.4a22.71,22.71,0,0,0,6.67,5.19c6.22,3.25,13,4,19.83,4.26a57.52,57.52,0,0,0,6.94-.48,32.65,32.65,0,0,0,15.74-5.87C664.37,2068.41,665.41,2060.16,660,2053.74Zm-12.51,19.44a28.9,28.9,0,0,1-11,2.33c-7.13,0-12.07-.53-16.52-3-3.92-2.16-6.49-5.36-6.36-10.13a11.06,11.06,0,0,1,6.57-10.34,32.56,32.56,0,0,1,19-2.72,27.08,27.08,0,0,1,9.37,2.72c4.55,2.42,6.83,6.2,6.58,11.26S651.8,2071.27,647.48,2073.18Z" transform="translate(-405.29 -1991.1)"/><path class="cls-2" d="M426.5,2108.83c-.74-2.08-1.74-4-3.89-5,.74-.32,1.38-.55,2-.86a6.52,6.52,0,0,0,3.33-6.57c-.45-3.24-2.21-5.3-5.12-5.87a15.9,15.9,0,0,0-3-.28c-3.55,0-7.1,0-10.66,0-1,0-1.13.31-1.12,1.2,0,7,0,14,0,21.07,0,2.44,0,2.42,2.42,2.43.7,0,.95-.13.94-.9-.05-2.87,0-5.75,0-8.63,0-.75.21-.93.93-.9,1.61.05,3.22,0,4.82,0a5.68,5.68,0,0,1,5.75,4c.46,1.18.87,2.37,1.29,3.56,1.08,3.08,1.08,3.09,4.37,2.85,0,0,.07,0,.19-.08C428,2112.79,427.21,2110.82,426.5,2108.83Zm-6.62-7.42c-1.3.09-2.61,0-3.92,0v0c-1.31,0-2.62,0-3.93,0-.54,0-.69-.15-.69-.68,0-2.36,0-4.71,0-7.06,0-.48,0-.77.65-.75,2.87.09,5.76-.14,8.63.14a4.19,4.19,0,0,1,3.39,6.35C423.14,2101.11,421.49,2101.29,419.88,2101.41Z" transform="translate(-405.29 -1991.1)"/><path class="cls-2" d="M530,2113.66q-4.31-10.57-8.62-21.16c-.94-2.29-.93-2.26-3.45-2.3a1.27,1.27,0,0,0-1.47,1c-1.88,5-3.85,10.06-5.78,15.09-1.09,2.83-2.17,5.67-3.31,8.64,1,0,1.91,0,2.79,0,.6,0,.83-.22,1-.76.69-2,1.44-4,2.15-6a.86.86,0,0,1,1-.69c2.95,0,5.91.05,8.86,0a1,1,0,0,1,1.12.8c.43,1.22.92,2.43,1.38,3.65,1.22,3.2,1.22,3.2,4.72,2.89A2.22,2.22,0,0,0,530,2113.66Zm-14.67-8.81c-.73,0-.78-.19-.54-.84,1.28-3.43,2.51-6.89,3.83-10.55l4.31,11.38C520.21,2104.84,517.75,2104.82,515.29,2104.85Z" transform="translate(-405.29 -1991.1)"/></svg>