<svg width="80" height="80" viewBox="0 0 80 80" fill="none" xmlns="http://www.w3.org/2000/svg">
<circle cx="40" cy="40" r="40" fill="#9C6D41" fill-opacity="0.1"/>
<path d="M18.1406 38.9029C18.2882 37.9815 18.3894 37.0493 18.5918 36.1398C20.249 28.7136 26.2204 23.1232 33.7442 21.9303C43.6466 20.3589 52.9501 26.9541 54.7632 36.8303C54.8013 37.0351 54.8382 37.2398 54.8644 37.4458C54.9347 38.0029 54.6573 38.4101 54.1513 38.5017C53.6692 38.5898 53.268 38.2577 53.1359 37.7232C52.8478 36.5577 52.5406 35.3958 52.2287 34.2363C52.168 34.0113 52.049 33.8029 51.9692 33.6172C51.1978 33.8053 50.468 34.0065 49.7287 34.1577C49.0025 34.3065 48.4466 34.6839 48.018 35.2732C47.6942 35.7172 47.3906 36.1803 47.0382 36.6005C45.8966 37.9577 44.118 37.9863 42.9216 36.6732C42.6013 36.322 42.3121 35.9422 42.0132 35.572C41.6549 35.1279 41.1894 34.9053 40.6228 34.8791C39.5835 34.8303 38.5418 34.8113 37.5073 34.7136C36.5942 34.6267 35.8478 34.2148 35.5394 33.2779C35.224 32.3184 35.4263 31.4422 36.1263 30.7232C36.5287 30.3101 37.0049 29.9696 37.4454 29.5934C37.6823 29.391 37.9275 29.1946 38.1454 28.9732C38.4359 28.6779 38.5597 28.3136 38.4311 27.9077C38.2561 27.3565 38.0775 26.8053 37.8632 26.2696C37.5121 25.391 37.2251 24.5065 37.374 23.4708C33.9406 23.3494 30.7918 24.1601 27.8823 25.9172C23.7299 28.4244 21.3073 32.5315 20.5442 35.722C20.7204 35.6601 20.8632 35.6124 21.0049 35.5589C22.8347 34.8624 24.7156 34.4553 26.6787 34.722C27.3168 34.8089 27.9692 34.9839 28.5501 35.2577C30.1799 36.0267 30.7168 37.7565 29.8811 39.3577C29.7097 39.6863 29.5049 39.9982 29.3001 40.3089C29.0001 40.7624 28.9323 41.2422 29.1037 41.7553C29.599 43.2363 29.5097 44.672 28.8311 46.0874C28.4704 46.8386 28.7347 47.2708 29.574 47.3791C30.2823 47.4696 30.9978 47.5017 31.7037 47.6005C34.5061 47.997 35.6525 51.0351 34.7859 53.2232C34.3811 54.247 33.7085 55.0636 32.8847 55.7708C32.7049 55.9244 32.518 56.0708 32.3311 56.2232C34.5347 57.4577 41.2311 56.8124 43.8513 55.1696C43.549 54.297 43.1513 53.4684 42.9835 52.5958C42.5716 50.447 43.1311 48.4482 44.2775 46.6363C46.4418 43.2184 49.5609 41.2851 53.593 40.8601C56.1513 40.5898 58.6025 40.991 60.9287 42.0946C62.1573 42.6779 63.2311 43.4446 63.8549 44.7101V45.3351C63.4644 45.6624 63.1097 46.0493 62.6775 46.3053C61.8144 46.816 61.0442 47.422 60.5573 48.2982C60.1406 49.047 59.7894 49.8386 59.4859 50.6398C58.9192 52.1339 58.2561 53.5696 57.2942 54.8553C54.0204 59.2291 48.9109 59.4493 45.4109 56.6541C45.3061 56.5708 45.0513 56.5791 44.9156 56.6458C41.174 58.4708 37.2656 59.0267 33.1609 58.2946C26.049 57.0267 20.0823 51.2648 18.6013 44.172C18.4037 43.2243 18.2918 42.2648 18.1406 41.3136C18.1406 40.5101 18.1406 39.7065 18.1406 38.9029ZM61.8454 44.772C61.487 44.5089 61.2144 44.2767 60.9121 44.0922C59.5454 43.2565 58.0478 42.7946 56.4632 42.6255C52.7644 42.2303 49.5359 43.2172 46.9621 45.9791C45.4263 47.6255 44.5109 49.5493 44.6585 51.8672C44.7001 52.5172 44.8632 53.1386 45.2323 53.7351C45.3323 53.5624 45.4073 53.4351 45.4799 53.3065C46.6513 51.2517 48.0525 49.3755 49.8311 47.8029C50.2871 47.4005 50.768 47.0208 51.2644 46.6708C51.6728 46.3827 52.1728 46.4898 52.4525 46.8672C52.7287 47.2398 52.6656 47.7458 52.2966 48.0684C52.174 48.1755 52.0359 48.266 51.9061 48.366C49.5287 50.1851 47.8347 52.547 46.4704 55.1863C46.5466 55.2589 46.6061 55.3244 46.674 55.3779C49.0168 57.2172 52.2121 57.1696 54.493 55.2553C56.1168 53.8922 57.0966 52.1017 57.7751 50.1386C58.5371 47.9327 59.6013 45.972 61.8454 44.7696V44.772ZM19.8704 40.3315C20.174 46.7601 23.0716 51.7815 28.943 54.9874C30.1394 55.641 30.1537 55.6208 31.2561 54.8148C32.0692 54.2184 32.799 53.5446 33.1513 52.5624C33.7049 51.0232 32.8656 49.5684 31.2621 49.3101C30.7501 49.2279 30.2263 49.2041 29.7073 49.1684C27.2894 48.997 26.2847 47.1029 27.2894 45.1863C27.7573 44.2946 27.7775 43.3696 27.4632 42.4196C27.2251 41.7017 27.1073 40.9577 27.4144 40.2374C27.6335 39.722 27.9275 39.2351 28.2132 38.7517C28.7668 37.816 28.5251 37.0839 27.5132 36.697C27.3751 36.6446 27.2311 36.5994 27.0871 36.5708C24.6287 36.0863 22.374 36.697 20.2323 37.8708C20.1216 37.9315 20.0382 38.1279 20.024 38.2684C19.9621 38.8886 19.9287 39.5124 19.8716 40.3303L19.8704 40.3315ZM51.1525 32.0184C51.124 31.9267 51.1168 31.8815 51.0966 31.8446C51.0406 31.7398 50.9823 31.6363 50.9192 31.5351C48.3537 27.4077 44.6978 24.8232 39.9466 23.7958C39.0835 23.6089 38.9347 23.7779 39.1632 24.6565C39.2156 24.8577 39.2859 25.0541 39.3609 25.2482C39.5418 25.7196 39.7406 26.1839 39.9109 26.6589C40.5692 28.4946 40.2287 29.6505 38.6906 30.8529C38.3037 31.1553 37.9156 31.4553 37.5442 31.7755C37.2751 32.0065 37.0156 32.3374 37.2168 32.6601C37.3442 32.8648 37.7275 32.9815 38.0073 33.0041C38.8359 33.072 39.6704 33.0767 40.5025 33.0994C41.7573 33.1327 42.768 33.6327 43.5275 34.6398C43.7513 34.9363 43.9859 35.2267 44.2347 35.5017C44.699 36.0172 45.2728 35.9994 45.7156 35.4553C45.9406 35.1791 46.1442 34.8851 46.3394 34.5863C47.1382 33.3648 48.2263 32.597 49.687 32.366C50.1787 32.2886 50.6585 32.1374 51.1525 32.0172V32.0184Z" fill="#9C6D41"/>
</svg>
