<svg width="80" height="80" viewBox="0 0 80 80" fill="none" xmlns="http://www.w3.org/2000/svg">
<circle cx="40" cy="40" r="40" fill="#9C6D41" fill-opacity="0.1"/>
<path d="M39.4621 59.99C38.6002 59.8598 37.7307 59.7668 36.8776 59.5929C33.3503 58.8744 30.2845 57.2535 27.6814 54.7707C27.4157 54.5181 27.2341 54.5071 26.9147 54.6548C25.1013 55.498 22.9707 55.1218 21.5204 53.7339C20.0811 52.3558 19.6304 50.2296 20.384 48.3757C21.1245 46.5547 22.9445 45.2936 24.9034 45.3363C26.9421 45.3811 28.4733 46.3359 29.3297 48.1909C30.173 50.0163 29.8853 51.7564 28.6538 53.3412C28.5783 53.4375 28.4941 53.5282 28.3968 53.6409C29.4369 54.6854 30.5766 55.5997 31.865 56.2975C38.0949 59.6695 44.2439 59.5043 50.2956 55.8174C50.3536 55.7824 50.4104 55.743 50.4684 55.7069C50.8643 55.4652 51.2264 55.509 51.4473 55.8229C51.6781 56.1521 51.5851 56.536 51.1881 56.8018C48.9186 58.3176 46.438 59.3031 43.743 59.7384C43.1382 59.8357 42.53 59.9057 41.923 59.9889H39.4621V59.99ZM24.8552 53.7831C26.8054 53.817 28.4394 52.2464 28.4711 50.3094C28.5039 48.3068 26.9541 46.6914 24.9548 46.6443C23.032 46.5984 21.3728 48.1952 21.3356 50.1279C21.2962 52.125 22.8602 53.7492 24.8552 53.7831Z" fill="#9C6D41" stroke="#9C6D41" stroke-width="0.4"/>
<path d="M41.3501 17.9911C42.1125 18.1989 42.865 18.4187 43.5201 18.8945C45.2395 20.1424 45.9723 22.2763 45.3642 24.3073C44.7823 26.2476 42.9164 27.6979 40.928 27.7547C38.7449 27.8171 36.856 26.5637 36.1079 24.5567C36.0652 24.444 36.0225 24.3314 35.958 24.1608C35.339 24.3773 34.7221 24.5523 34.138 24.8039C27.9978 27.4398 24.3633 32.0553 23.3166 38.6559C23.1295 39.8338 23.1952 41.0522 23.1591 42.252C23.1503 42.5408 23.1241 42.7978 22.8539 42.963C22.4022 43.2397 21.8772 42.9466 21.8543 42.3603C21.8225 41.5411 21.7788 40.7143 21.8543 39.9016C22.5422 32.5157 26.2215 27.1751 32.8901 23.9212C33.7071 23.5231 34.5963 23.2716 35.4593 22.973C35.6911 22.8921 35.8071 22.8002 35.8333 22.5322C36.0685 20.1424 37.5953 18.4986 39.9688 18.0523C40.0202 18.0425 40.0683 18.0119 40.1186 17.99C40.5287 17.99 40.9389 17.99 41.3491 17.99L41.3501 17.9911ZM40.6775 26.4434C42.6495 26.4488 44.2496 24.864 44.2639 22.8921C44.2781 20.9343 42.6714 19.3123 40.7081 19.3057C38.7416 19.2992 37.1371 20.8894 37.1217 22.8614C37.1064 24.8214 38.712 26.439 40.6764 26.4445L40.6775 26.4434Z" fill="#9C6D41" stroke="#9C6D41" stroke-width="0.4"/>
<path d="M30.8156 41.1004C30.8276 35.6438 35.2616 31.2099 40.7008 31.2142C46.1443 31.2186 50.5783 35.6613 50.5772 41.1091C50.5772 46.5603 46.1465 50.9844 40.6909 50.9811C35.2343 50.9778 30.8024 46.5439 30.8145 41.1004H30.8156ZM43.1989 41.7851C44.2161 42.1865 45.1009 42.7618 45.8446 43.5416C46.5873 44.3214 47.1167 45.2325 47.4634 46.265C49.6957 43.7231 50.2994 38.4787 46.6442 34.9438C43.0479 31.4647 37.2653 31.795 34.0869 35.6515C31.0004 39.3953 32.0427 44.2569 33.9349 46.2398C34.671 44.1169 36.0929 42.6415 38.2103 41.7708C37.3069 40.9538 36.7972 39.9815 36.7841 38.8036C36.7699 37.607 37.2216 36.5921 38.1217 35.7947C39.6475 34.4418 41.9783 34.5173 43.4428 35.949C44.7596 37.2363 45.3021 39.7781 43.2 41.7851H43.1989ZM40.7456 49.6741C42.7406 49.6566 44.5387 49.0047 46.1235 47.7404C46.3357 47.5709 46.3981 47.4112 46.3434 47.1487C45.7998 44.5675 43.4133 42.6644 40.7019 42.6622C37.9916 42.659 35.604 44.5555 35.0516 47.1388C34.9958 47.3981 35.0494 47.5632 35.2627 47.7338C36.8585 49.0091 38.6675 49.6653 40.7456 49.6741ZM40.6822 36.1305C39.2549 36.1393 38.0714 37.3413 38.0911 38.7598C38.1097 40.1762 39.2767 41.3345 40.6898 41.3399C42.1139 41.3454 43.3061 40.1565 43.3028 38.7314C43.2995 37.3052 42.1062 36.1207 40.6822 36.1294V36.1305Z" fill="#9C6D41" stroke="#9C6D41" stroke-width="0.4"/>
<path d="M57.7875 45.4612C57.9352 44.4036 58.1637 43.3448 58.2184 42.2774C58.505 36.7005 56.6511 31.9581 52.5561 28.1279C51.4121 27.0582 50.1204 26.192 48.7281 25.4745C48.6428 25.4308 48.5563 25.3914 48.4721 25.3454C48.0379 25.1114 47.8935 24.7723 48.074 24.4136C48.2567 24.0483 48.6285 23.9378 49.0562 24.1741C49.7966 24.5831 50.5524 24.9747 51.2459 25.4537C55.786 28.5905 58.5072 32.8943 59.3723 38.3433C59.7562 40.7571 59.6304 43.1677 59.0409 45.5421C58.9501 45.9074 59.0453 46.066 59.3264 46.2662C60.9287 47.4036 61.6932 49.4325 61.2448 51.2831C60.7603 53.2824 59.1919 54.7491 57.2144 55.051C54.6682 55.4403 52.2127 53.7286 51.6932 51.2C51.1693 48.6527 52.7618 46.112 55.2916 45.4874C55.6853 45.3901 56.101 45.3442 56.5067 45.3376C56.8983 45.3321 57.2909 45.4076 57.7875 45.459V45.4612ZM56.428 53.7833C58.3759 53.8183 60.01 52.2521 60.0504 50.3119C60.092 48.3224 58.5301 46.6949 56.533 46.6446C54.6102 46.5965 52.9444 48.1988 52.9149 50.1259C52.8843 52.1395 54.4297 53.7483 56.4291 53.7833H56.428Z" fill="#9C6D41" stroke="#9C6D41" stroke-width="0.4"/>
</svg>
