<svg width="80" height="80" viewBox="0 0 80 80" fill="none" xmlns="http://www.w3.org/2000/svg">
<circle cx="40" cy="40" r="40" fill="#9C6D41" fill-opacity="0.1"/>
<path d="M42.7009 18.9911C43.528 19.1784 44.3703 19.3158 45.1811 19.5605C50.776 21.2504 54.183 24.9994 55.2461 30.7133C55.6391 32.8243 56.3417 34.7308 57.4286 36.5376C57.8888 37.3019 58.3575 38.0608 58.822 38.8218C58.9551 39.0405 59.1002 39.2549 59.2182 39.4822C59.6664 40.3472 59.5322 41.1299 58.8198 41.7957C58.0836 42.4842 57.1667 42.8577 56.2638 43.255C55.5644 43.5625 55.5763 43.5592 55.6023 44.3062C55.6499 45.6421 55.7885 46.9867 55.6932 48.3129C55.5352 50.5084 54.4536 51.5671 52.2462 51.8627C51.392 51.9763 50.5227 51.9828 49.6599 52.0305C49.4304 52.0435 49.1998 52.0207 48.9702 52.0218C48.272 52.0272 48.2438 52.0575 48.2449 52.7406C48.2471 54.0527 48.2373 55.3648 48.2568 56.6769C48.2752 57.8948 47.7307 58.736 46.6448 59.2556C45.0599 60.0145 43.3645 60.3198 41.6334 60.4822C41.4472 60.4995 41.2632 60.5352 41.077 60.5623H38.3975C37.5953 60.4551 36.7898 60.3674 35.992 60.2343C34.8552 60.0448 33.751 59.7341 32.7193 59.2058C31.6291 58.6483 31.2177 57.8277 31.3433 56.6185C31.432 55.7589 31.4937 54.8939 31.5035 54.03C31.523 52.2827 31.2112 50.5885 30.5952 48.9505C30.5346 48.7903 30.4761 48.6084 30.4945 48.4439C30.5302 48.1158 30.7781 47.9567 31.0824 47.9221C31.4136 47.8842 31.6345 48.0769 31.7157 48.3778C32.0285 49.5362 32.3966 50.6859 32.6056 51.8627C32.9 53.5233 32.8286 55.2057 32.5969 56.8761C32.5244 57.4001 32.6835 57.8288 33.1599 58.0139C34.0238 58.3484 34.9007 58.6959 35.8036 58.8767C38.4917 59.4148 41.2047 59.5274 43.8972 58.9168C44.6593 58.7446 45.3998 58.3928 46.0894 58.0139C46.7238 57.6653 47.0335 57.0753 47.0042 56.2893C46.9566 54.9924 46.9902 53.6922 46.9912 52.3931C46.9912 51.4383 47.3994 50.9208 48.3597 50.8158C49.1218 50.7324 49.9056 50.8255 50.6634 50.7238C51.6086 50.5971 52.545 50.3806 53.4696 50.1435C53.9784 50.0125 54.3497 49.678 54.3486 49.0728C54.3454 47.8452 54.3584 46.6186 54.3508 45.391C54.3465 44.6353 54.3086 43.8808 54.3021 43.1251C54.2999 42.809 54.4818 42.6282 54.7784 42.4961C55.7149 42.0783 56.647 41.6463 57.5607 41.1819C58.2742 40.8192 58.3391 40.4566 57.931 39.7734C57.1201 38.417 56.306 37.0605 55.5222 35.6878C54.7849 34.3984 54.3465 33.0246 54.1375 31.5328C53.3072 25.6035 49.0114 21.2981 43.096 20.3735C38.745 19.6937 34.6625 20.4342 30.9427 22.8278C30.0539 23.3994 29.2917 24.1734 28.4895 24.8738C28.1084 25.2073 27.7544 25.2408 27.4751 24.8998C27.2521 24.6292 27.2857 24.3131 27.5801 23.9948C28.9226 22.5463 30.5172 21.4485 32.2992 20.6149C33.9621 19.8366 35.7083 19.3288 37.5249 19.0658C37.6007 19.0549 37.6722 19.016 37.7469 18.99C39.3978 18.99 41.0488 18.99 42.6998 18.99L42.7009 18.9911Z" fill="#9C6D41" stroke="#9C6D41" stroke-width="0.4"/>
<path d="M31.6274 29.5224C32.3203 28.5221 32.9666 27.5239 33.6843 26.5788C34.0892 26.0451 34.5797 25.5644 35.0885 25.1249C35.6958 24.5999 36.0119 24.6312 36.5998 25.1552C37.8535 26.2724 38.8787 27.5726 39.6993 29.0363C39.7913 29.1998 39.8812 29.3643 39.9829 29.5483C41.1662 28.9573 42.3852 28.5264 43.6692 28.3023C44.2679 28.1984 44.872 28.1269 45.4772 28.0663C46.0629 28.0067 46.2978 28.1139 46.4342 28.6909C46.6258 29.5007 46.7601 30.3321 46.8239 31.1625C46.8889 31.995 46.838 32.8362 46.838 33.6546C47.8069 33.9155 48.7575 34.1277 49.6766 34.433C50.364 34.6603 51.032 34.9688 51.6697 35.3142C52.2099 35.6065 52.316 35.8923 52.1168 36.4639C50.8664 40.0592 48.8332 43.0265 45.3072 44.75C44.3469 45.2198 43.3055 45.3844 42.2348 45.3757C40.128 45.3584 38.0992 44.9514 36.1538 44.1481C35.9178 44.0506 35.7391 44.081 35.5107 44.1708C32.9189 45.1939 30.2287 45.6496 27.4853 45.0899C25.2378 44.6309 23.5414 43.2008 22.1557 41.4135C21.0005 39.9249 20.1756 38.2599 19.5769 36.4791C19.3831 35.9042 19.4362 35.6151 19.985 35.3261C20.7093 34.9439 21.4693 34.6127 22.2444 34.3507C23.0726 34.0703 23.9366 33.896 24.8178 33.6665C24.8178 33.0061 24.7756 32.3306 24.8275 31.6626C24.9001 30.737 24.9899 29.806 25.1718 28.8966C25.3212 28.1475 25.5605 28.0252 26.3194 28.0814C28.0472 28.2103 29.7036 28.6238 31.2745 29.3621C31.4076 29.4249 31.5419 29.4845 31.6285 29.5234L31.6274 29.5224ZM35.8279 42.3986C40.704 37.973 41.3005 30.7067 35.8409 26.2129C30.6 30.4599 30.718 37.6861 35.8279 42.3986ZM33.9485 42.3304C33.889 42.2254 33.8705 42.1756 33.8381 42.1377C32.7879 40.9458 32.029 39.5807 31.4553 38.1094C30.7364 36.2679 30.3575 34.3723 30.6898 32.3934C30.7851 31.8294 30.9822 31.2816 31.138 30.7035C29.6408 29.9424 28.0472 29.505 26.3356 29.3416C25.6752 32.6186 25.9231 35.6963 27.848 38.4775C29.3139 40.5961 31.4109 41.7588 33.9485 42.3304ZM45.3234 29.3307C43.5891 29.5299 41.9955 29.9392 40.5946 30.6699C40.7635 31.5663 41.0028 32.3912 41.0612 33.2291C41.2204 35.508 40.5675 37.6212 39.5098 39.6066C39.0118 40.5409 38.3774 41.4026 37.8102 42.2882C40.3835 41.7523 42.5357 40.4727 43.9962 38.1841C45.7392 35.4538 46.0022 32.4832 45.3234 29.3307ZM38.3103 43.5635C40.0988 44.1708 41.8883 44.3516 43.7114 43.8547C46.2523 43.1618 48.0624 41.5304 49.4341 39.3512C50.0317 38.4017 50.4885 37.3873 50.8047 36.295C49.4796 35.652 48.1263 35.2222 46.7341 35.0057C45.7446 39.6683 42.5779 42.1291 38.3103 43.5635ZM33.3314 43.5418C29.0454 42.1096 25.8809 39.638 24.9261 34.9753C23.5143 35.2222 22.1589 35.6455 20.8522 36.2939C21.3361 37.7067 21.9879 39.0026 22.8269 40.2021C24.6511 42.81 27.0729 44.2682 30.3423 44.0701C31.3492 44.0095 32.3397 43.8547 33.3303 43.5408L33.3314 43.5418Z" fill="#9C6D41" stroke="#9C6D41" stroke-width="0.4"/>
</svg>
