<?xml version="1.0" encoding="UTF-8"?>
<svg width="18px" height="18px" viewBox="0 0 18 18" version="1.1" xmlns="http://www.w3.org/2000/svg" xmlns:xlink="http://www.w3.org/1999/xlink">
    <title>Group 5</title>
    <defs>
        <filter color-interpolation-filters="auto" id="filter-1">
            <feColorMatrix in="SourceGraphic" type="matrix" values="0 0 0 0 0.525490 0 0 0 0 0.525490 0 0 0 0 0.525490 0 0 0 1.000000 0"></feColorMatrix>
        </filter>
    </defs>
    <g id="Designs" stroke="none" stroke-width="1" fill="none" fill-rule="evenodd">
        <g id="contact" transform="translate(-737.000000, -3186.000000)">
            <g id="Group-6" transform="translate(-647.834184, 2876.000000)">
                <g id="Filter-form" transform="translate(826.834184, 178.000000)">
                    <g id="Group-5" transform="translate(558.000000, 130.000000)" filter="url(#filter-1)">
                        <g transform="translate(0.000000, 2.000000)">
                            <path d="M15.3000733,16.6499807 L2.70031243,16.6499807 C2.3421762,16.6499807 1.99877428,16.5077273 1.74566821,16.2546179 C1.49256213,16.0015086 1.3503105,15.6581023 1.3503105,15.2999614 L1.3503105,6.75009643 L16.6500752,6.75009643 L16.6500752,15.2999614 C16.6500752,15.6581023 16.5078236,16.0015086 16.2547175,16.2546179 C16.0015729,16.5077273 15.6582095,16.6499807 15.3000733,16.6499807 L15.3000733,16.6499807 Z M16.6500752,5.40007714 L1.3503105,5.40007714 L1.3503105,4.05005786 C1.3503105,3.69191703 1.49252356,3.34851069 1.74566821,3.09540136 C1.99877428,2.84229203 2.3421762,2.70003857 2.70031243,2.70003857 L4.50036643,2.70003857 L4.50036643,3.37504821 L4.50021214,3.37504821 C4.50021214,3.61612309 4.62888661,3.83895341 4.83771263,3.95949085 C5.04653864,4.08018257 5.30388758,4.08018257 5.51271359,3.95949085 C5.7215396,3.83895341 5.85021407,3.61612309 5.85021407,3.37504821 L5.85021407,2.70003857 L12.1504802,2.70003857 L12.1504802,3.37053529 C12.1504802,3.61161017 12.2791547,3.83444049 12.4879807,3.95513222 C12.6968067,4.07566965 12.9541556,4.07566965 13.1629817,3.95513222 C13.3718077,3.83444049 13.5004821,3.61161017 13.5004821,3.37053529 L13.5004821,2.70003857 L15.3005361,2.70003857 L15.3003819,2.70003857 C15.6585181,2.70003857 16.00192,2.84225346 16.2550261,3.09540136 C16.5081322,3.34851069 16.6503838,3.69191703 16.6503838,4.05005786 L16.6500752,5.40007714 Z M12.8251726,0 C12.6460466,0 12.4744035,0.0711267304 12.3478505,0.197681395 C12.2212975,0.324236061 12.1501716,0.495842798 12.1501716,0.675009643 L12.1501716,1.35001929 L5.8499055,1.35001929 L5.8499055,0.675009643 C5.8499055,0.433780483 5.72123103,0.210950156 5.51240502,0.0904127202 C5.30357901,-0.0301247161 5.04623007,-0.0301247161 4.83740405,0.0904127202 C4.62857804,0.210950156 4.49990357,0.433780483 4.49990357,0.675009643 L4.49990357,1.35001929 L2.70000386,1.35001929 C1.98388569,1.35001929 1.29712042,1.63448764 0.790715415,2.14074487 C0.284464692,2.64715639 0,3.33393048 0,4.05005786 L0,15.2999614 C0,16.0160888 0.284464692,16.7028629 0.790715415,17.2092744 C1.29712042,17.7155317 1.98388569,18 2.70000386,18 L15.3001504,18 L15.2999961,18 C16.0161143,18 16.7028796,17.7155317 17.2092846,17.2092744 C17.7155353,16.7028629 18,16.0160888 18,15.2999614 L18,4.05005786 C18,3.33393048 17.7155353,2.64715639 17.2092846,2.14074487 C16.7028796,1.63448764 16.0161143,1.35001929 15.2999961,1.35001929 L13.5000964,1.35001929 L13.5000964,0.675009643 C13.5000964,0.495842798 13.4289706,0.324236061 13.3024176,0.197681395 C13.1757103,0.0711267304 13.0041057,0 12.8250955,0 L12.8251726,0 Z" id="Fill-1" fill="#000000"></path>
                            <path d="M12.5,9 C11.8369286,9 11.2010357,9.26339286 10.7321429,9.73214286 C10.2633929,10.2010357 10,10.8369286 10,11.5 C10,12.1629286 10.2633929,12.7988214 10.7321429,13.2677143 C11.2010357,13.7366071 11.8369286,14 12.5,14 C13.1629286,14 13.7988214,13.7366071 14.2677143,13.2677143 C14.7366071,12.7988214 15,12.1629286 15,11.5 C15,10.8369286 14.7366071,10.2010357 14.2677143,9.73214286 C13.7988214,9.26339286 13.1629286,9 12.5,9 M12.5,10.25 C12.8314643,10.25 13.1494286,10.3817143 13.3837857,10.6160714 C13.6182857,10.8504643 13.75,11.1683929 13.75,11.5 C13.75,11.8314643 13.6182857,12.1494286 13.3837857,12.3837857 C13.1494286,12.6182857 12.8314643,12.75 12.5,12.75 C12.1683929,12.75 11.8504286,12.6183214 11.6160714,12.3837857 C11.3817143,12.1494286 11.25,11.8314643 11.25,11.5 C11.25,11.1683929 11.3817143,10.8504286 11.6160714,10.6160714 C11.8504643,10.3817143 12.1683929,10.25 12.5,10.25" id="Fill-3" fill="#000000"></path>
                        </g>
                    </g>
                </g>
            </g>
        </g>
    </g>
</svg>