<?xml version="1.0" encoding="utf-8"?>
<!-- Generator: Adobe Illustrator 26.0.0, SVG Export Plug-In . SVG Version: 6.00 Build 0)  -->
<svg version="1.1" id="Layer_1" xmlns="http://www.w3.org/2000/svg" xmlns:xlink="http://www.w3.org/1999/xlink" x="0px" y="0px"
	 viewBox="0 0 12.2 21" style="enable-background:new 0 0 12.2 21;" xml:space="preserve">
<path d="M11.8,0.2c-1-0.1-2-0.2-3-0.2C5.4,0,3.3,2.1,3.3,5.6v2.3H0.5C0.2,7.9,0,8.2,0,8.4v3.9c0,0.3,0.2,0.5,0.5,0.5h2.8v7.7
	c0,0.3,0.2,0.5,0.5,0.5h4c0.3,0,0.5-0.2,0.5-0.5v-7.7h2.8c0.3,0,0.5-0.2,0.5-0.4l0.5-3.9c0-0.3-0.2-0.5-0.4-0.6c0,0,0,0-0.1,0H8.3V6
	c0-1,0.2-1.4,1.4-1.4l2,0c0.3,0,0.5-0.2,0.5-0.5V0.7C12.3,0.4,12.1,0.2,11.8,0.2z M11.2,3.6l-1.5,0C7.6,3.6,7.3,5,7.3,6v2.5
	c0,0.3,0.2,0.5,0.5,0.5H11l-0.4,2.9H7.8c-0.3,0-0.5,0.2-0.5,0.5V20h-3v-7.7c0-0.3-0.2-0.5-0.5-0.5H1V8.9h2.8c0.3,0,0.5-0.2,0.5-0.5
	V5.6C4.3,2.7,6,1,8.8,1c1,0,1.9,0.1,2.5,0.1V3.6z"/>
</svg>
