<?xml version="1.0" encoding="UTF-8"?>
<svg width="700pt" height="700pt" version="1.1" viewBox="0 0 700 700" xmlns="http://www.w3.org/2000/svg" xmlns:xlink="http://www.w3.org/1999/xlink">
 <defs>
  <symbol id="v" overflow="visible">
   <path d="m18.766-1.125c-0.96875 0.5-1.9805 0.875-3.0312 1.125-1.043 0.25781-2.1367 0.39062-3.2812 0.39062-3.3984 0-6.0898-0.94531-8.0781-2.8438-1.9922-1.9062-2.9844-4.4844-2.9844-7.7344 0-3.2578 0.99219-5.8359 2.9844-7.7344 1.9883-1.9062 4.6797-2.8594 8.0781-2.8594 1.1445 0 2.2383 0.13281 3.2812 0.39062 1.0508 0.25 2.0625 0.625 3.0312 1.125v4.2188c-0.98047-0.65625-1.9453-1.1406-2.8906-1.4531-0.94922-0.3125-1.9492-0.46875-3-0.46875-1.875 0-3.3516 0.60547-4.4219 1.8125-1.0742 1.1992-1.6094 2.8555-1.6094 4.9688 0 2.1055 0.53516 3.7617 1.6094 4.9688 1.0703 1.1992 2.5469 1.7969 4.4219 1.7969 1.0508 0 2.0508-0.14844 3-0.45312 0.94531-0.3125 1.9102-0.80078 2.8906-1.4688z"/>
  </symbol>
  
 </defs>
 <g>
  <path d="m468.16 218.96c-9.5195-7.8398-34.16-25.199-36.398-26.879-29.121-25.762-40.32-49.84-29.121-94.641 2.8008-11.199-4.4805-22.398-15.68-25.199-4.4805-1.1211-9.5195-0.55859-14 1.6797-68.879 33.602-96.879 104.16-91.281 166.88-8.9609-13.441-14-28.559-15.121-44.801-1.1211-11.762-11.199-20.16-22.961-19.039-6.1602 0.55859-12.32 4.4805-15.68 9.5195-34.719 53.758-45.918 85.68-45.918 137.2 0 92.961 75.039 168 168 168s168-75.039 168-168c0-44.801-17.922-77.84-49.84-104.72zm-118.16 231.28c-69.441 0-126-56-126-125.44v-0.55859c0-42.559 8.9609-57.68 15.121-72.801 15.68 30.801 42 50.961 68.879 50.961 11.762 0 21.281-9.5195 21.281-20.719 0-1.6797 0-2.8008-0.55859-4.4805-17.922-84.559 14-127.12 28-140.56 2.2383 35.281 19.602 61.602 47.039 86.801 4.4805 3.9219 30.238 21.84 36.961 28 22.961 19.602 35.281 41.441 35.281 72.801 0.55859 69.441-55.441 126-124.32 126-0.5625-0.003907-1.125-0.003907-1.6836-0.003907z"/>
  
 </g>
</svg>
