<?xml version="1.0" encoding="utf-8"?>
<!-- Generator: Adobe Illustrator 26.0.0, SVG Export Plug-In . SVG Version: 6.00 Build 0)  -->
<svg version="1.1" id="Layer_1" xmlns="http://www.w3.org/2000/svg" xmlns:xlink="http://www.w3.org/1999/xlink" x="0px" y="0px"
	 viewBox="0 0 560 560" style="enable-background:new 0 0 560 560;" xml:space="preserve">
<g>
	<path d="M476.9,0H83.1C61.1,0.1,40,8.8,24.4,24.4C8.8,40,0.1,61.1,0,83.1v393.9c0.1,22,8.8,43.1,24.4,58.7
		C40,551.2,61.1,559.9,83.1,560h393.9c22-0.1,43.1-8.8,58.7-24.4c15.6-15.6,24.3-36.7,24.4-58.7V83.1c-0.1-22-8.8-43.1-24.4-58.7
		C520,8.8,498.9,0.1,476.9,0L476.9,0z M513.3,476.9c0,9.7-3.8,18.9-10.7,25.7s-16.1,10.7-25.7,10.7H83.1c-9.7,0-18.9-3.8-25.7-10.7
		s-10.7-16.1-10.7-25.7V83.1c0-9.7,3.8-18.9,10.7-25.7s16.1-10.7,25.7-10.7h393.9c9.7,0,18.9,3.8,25.7,10.7s10.7,16.1,10.7,25.7
		V476.9z"/>
	<path d="M280,140c-37.1,0-72.7,14.8-99,41c-26.3,26.3-41,61.9-41,99s14.8,72.7,41,99c26.3,26.3,61.9,41,99,41s72.7-14.8,99-41
		c26.3-26.3,41-61.9,41-99s-14.8-72.7-41-99C352.7,154.8,317.1,140,280,140z M280,373.3c-24.8,0-48.5-9.8-66-27.3
		s-27.3-41.2-27.3-66s9.8-48.5,27.3-66s41.2-27.3,66-27.3s48.5,9.8,66,27.3s27.3,41.2,27.3,66s-9.8,48.5-27.3,66
		S304.8,373.3,280,373.3z"/>
	<path d="M466.7,128.3c0,19.3-15.7,35-35,35c-19.3,0-35-15.7-35-35c0-19.3,15.7-35,35-35C451,93.3,466.7,109,466.7,128.3"/>
</g>
</svg>
