<?xml version="1.0" encoding="UTF-8"?>
<svg width="44px" height="22px" viewBox="0 0 44 22" version="1.1" xmlns="http://www.w3.org/2000/svg" xmlns:xlink="http://www.w3.org/1999/xlink">
    <title>Shape</title>
    <g id="Page-1" stroke="none" stroke-width="1" fill="none" fill-rule="evenodd">
        <g id="Insvestor" transform="translate(-87.000000, -44.000000)" fill="#F27023" fill-rule="nonzero">
            <g id="logo" transform="translate(45.000000, 44.000000)">
                <path d="M85.3554074,18.3213498 C85.3217668,18.2799198 85.2855502,18.2408058 85.2469885,18.204257 C83.0126152,15.8721595 80.7813846,13.5384357 78.5532965,11.2030856 C78.3654864,10.9901155 78.0962854,10.8740223 77.8179332,10.8859594 C74.3422415,10.8859594 70.8681211,10.8859594 67.395572,10.8859594 C67.2682976,10.8859594 67.1174538,10.8176553 66.9901794,10.9835367 C67.8245339,11.7495185 68.6588885,12.4959848 69.4743876,13.2717244 C69.6910276,13.4841813 69.9824248,13.5952959 70.2804589,13.5790929 C72.166006,13.5790929 74.051553,13.5790929 75.9371,13.5790929 C76.1987947,13.5590014 76.456739,13.6527072 76.648894,13.8376727 C77.8980689,15.1012988 79.1613854,16.3405305 80.4199881,17.58952 C80.4812683,17.6480664 80.5708318,17.7017339 80.528407,17.8188267 C80.48068,17.8332554 80.431759,17.8430554 80.3822771,17.8480999 L73.3114758,17.8480999 C73.1011462,17.8420633 72.900108,17.7570994 72.7458117,17.6090355 C71.9255987,16.9455098 71.1902354,16.179528 70.4265888,15.4525771 C68.7138836,13.8262887 67.0058923,12.2000004 65.3026148,10.573712 C65.3390358,10.5225299 65.3783886,10.4736535 65.4204615,10.427346 C67.8811003,8.10500627 70.3401679,5.77941391 72.7976642,3.45056897 C72.971013,3.29683973 73.1973963,3.22284795 73.4246086,3.24565663 L80.1795808,3.24565663 C80.3068552,3.24565663 80.4624129,3.17247366 80.5755457,3.3481128 C79.2415212,4.67516411 77.9027828,5.99245768 76.5734721,7.32438785 C76.3993628,7.47904456 76.1684454,7.54682072 75.9418139,7.50978472 L70.2286064,7.50978472 C70.0589072,7.50978472 69.8703525,7.45611721 69.7242226,7.59272543 C68.781449,8.45628455 67.8905281,9.31984367 66.895902,10.2614646 L67.2117311,10.2614646 C70.7707012,10.2614646 74.334385,10.2614646 77.8980689,10.2614646 C78.1244668,10.2717404 78.3430692,10.1747744 78.4920162,9.99800592 C80.767243,7.55206822 83.0471836,5.11263568 85.3318381,2.67970828 C85.5280524,2.45252138 85.6872598,2.19381674 85.8032248,1.91372646 C85.9603782,1.62461648 85.9888459,1.27922915 85.8812772,0.966745953 C85.7737086,0.654262757 85.5406484,0.405316005 85.2422746,0.284185524 C85.0772892,0.201244818 84.8934484,0.137819572 84.7190353,0.0695154604 L70.9922529,0.0695154604 C70.1869742,0.716319492 69.4320066,1.42756692 68.7343104,2.19670064 C67.6265515,3.28956642 66.504651,4.36779561 65.401606,5.47041912 C64.6945259,6.17785455 63.9874457,6.87553226 63.2756517,7.59272543 C63.0399584,7.83178982 62.874973,7.84642642 62.6157103,7.59272543 C61.1402697,6.18761229 59.707254,4.73371049 58.2695244,3.28956642 C57.2984677,2.3137934 56.2567029,1.41120336 55.3327849,0.362247366 C55.2019477,0.241342861 55.0579978,0.136559706 54.9038229,0.05 L52.3677622,0.05 C52.160352,0.167092762 51.9388002,0.0743943255 51.7313901,0.103667516 C51.5239799,0.132940707 51.2977142,0.167092762 51.0950179,0.05 L50.8828939,0.05 C50.7697611,0.152456167 50.6519144,0.254912334 50.5434954,0.367126231 C47.7843116,3.10904841 45.0235565,5.84934431 42.2612301,8.58801391 C42.0803856,8.75790382 41.9848269,9.00426338 42.0019674,9.25641843 C42.0019674,10.1102198 42.0019674,10.9689001 42.0019674,11.8275803 C41.9838412,12.0983083 42.0925908,12.3615444 42.2942272,12.5350158 C45.0282704,15.2476648 47.7607423,17.9651926 50.4916429,20.6875993 C50.6609069,20.8705299 50.8975936,20.9699385 51.1421566,20.9608158 C52.2169184,20.9608158 53.2916802,20.9608158 54.366442,20.9608158 C54.6625086,20.9768774 54.9504123,20.8573281 55.1536579,20.6339318 C57.6142968,18.1505895 60.0937911,15.6867626 62.5497161,13.1985414 C62.8608314,12.8814152 63.0211029,12.9399616 63.2803656,13.1985414 C65.7630025,15.7062781 68.2550672,18.2075096 70.7565596,20.7022359 C70.9248727,20.9111272 71.1725999,21.0339847 71.4353565,21.0388776 C75.6778373,21.0388776 79.9674568,21.0388776 84.2382208,21.0388776 C84.9270601,21.120927 85.5907221,20.7432342 85.8927883,20.0972567 C86.2086174,19.3947001 85.7655139,18.8580249 85.3554074,18.3213498 Z M60.1220743,10.7981398 C57.761998,13.0749435 55.4050642,15.3517472 53.051273,17.6285509 C52.8862876,17.7846746 52.7825825,17.8627364 52.5798862,17.662703 C50.2198099,15.31109 47.8534483,12.9676085 45.4808017,10.6322584 C45.4552657,10.5998806 45.4346055,10.5636934 45.4195214,10.5249234 L50.9536019,5.05571558 C51.4909828,4.52879815 52.0330776,4.00675959 52.5563169,3.47008443 C52.7542993,3.2651721 52.8862876,3.21638344 53.1125533,3.44081124 C55.4506316,5.74038299 57.794995,8.02857071 60.1456437,10.3053744 C60.3624816,10.5054079 60.3153429,10.6176218 60.1220743,10.7981398 Z" id="Shape"></path>
            </g>
        </g>
    </g>
</svg>