<?xml version="1.0" encoding="UTF-8"?>
<svg width="121px" height="57px" viewBox="0 0 121 57" version="1.1" xmlns="http://www.w3.org/2000/svg" xmlns:xlink="http://www.w3.org/1999/xlink">
    <title>logo</title>
    <g id="Page-1" stroke="none" stroke-width="1" fill="none" fill-rule="evenodd">
        <g id="Insvestor" transform="translate(-180.000000, -4796.000000)" fill-rule="nonzero">
            <g id="Group" transform="translate(180.000000, 4767.000000)">
                <g id="logo" transform="translate(0.000000, 29.950000)">
                    <path d="M48.897688,0.0557640026 C48.6007085,0.0557640026 48.2632318,0.0817640026 48,0.0367640026 L48.9449347,0.0367640026 C48.9921815,0.0417640026 49.0124301,0.0457640026 48.9921815,0.0497640026 C48.9743854,0.0548489402 48.9348142,0.0573615716 48.897688,0.0557640026 L48.897688,0.0557640026 Z" id="Path" fill="#F27023"></path>
                    <path d="M48,0.057125 C48.0036288,0.0508011401 48.0036288,0.0444488599 48,0.038125 L49,0.038125 C48.7111111,0.076125 48.3407407,0.057125 48,0.057125 Z" id="Path" fill="#F27023"></path>
                    <path d="M57.9624603,38.9397492 C55.1508274,38.9397492 52.3436646,38.9397492 49.5320318,38.9397492 C49.1386714,38.9397492 48.9956312,38.885208 49,38.4306979 C49.0179813,33.8128758 49.0179813,29.1935387 49,24.5726866 C49,24.1181765 49.1297314,24.05 49.5320318,24.05 C55.0033173,24.05 60.4716228,24.05 65.9369483,24.05 C66.3481887,24.05 66.5091089,24.1318118 66.4599388,24.5681415 C66.4241674,24.9065344 66.4241674,25.247851 66.4599388,25.586244 C66.4822889,25.9089461 66.3660688,25.9862128 66.0621084,25.9816677 C64.9088473,25.9816677 63.7555861,25.9816677 62.602325,25.9816677 C59.3213416,25.9816677 56.0448283,25.9816677 52.768315,25.9816677 C52.3213146,25.9816677 52.2140345,26.1180207 52.2319145,26.5498053 C52.2617145,27.3618632 52.2617145,28.1754362 52.2319145,28.9905242 C52.2319145,29.4132186 52.3347246,29.5313912 52.750435,29.5268461 C56.8315491,29.5268461 60.9126633,29.5268461 64.9937774,29.5041206 C65.4765379,29.5041206 65.615108,29.6222932 65.601698,30.1177091 C65.5614679,31.3221608 65.601698,31.3267059 64.4082068,31.3267059 C60.5282429,31.3267059 56.648279,31.3267059 52.7861951,31.3267059 C52.3391946,31.3267059 52.2408545,31.4630589 52.2497945,31.8948434 C52.2497945,33.4719933 52.2497945,35.0536883 52.2497945,36.6308381 C52.2497945,37.0489874 52.3436646,37.16716 52.763845,37.16716 C57.3143096,37.16716 61.8603042,37.16716 66.4107688,37.16716 C66.8264792,37.16716 67.0365694,37.2262463 66.9650494,37.7080269 C66.8979993,38.1216311 67.1393795,38.6761333 66.8667093,38.9215688 C66.594039,39.1670042 66.1068085,38.9852002 65.7045081,38.9852002 C63.1119055,38.9442943 60.5371829,38.9397492 57.9624603,38.9397492 Z" id="Path" fill="#000209"></path>
                    <path d="M120.987887,31.5634735 C120.987887,33.9062332 120.987887,36.2489929 120.987887,38.5871769 C120.987887,38.9669602 120.911171,39.0767771 120.584118,39.0447472 C119.833109,39.0081415 119.078062,39.0218686 118.323015,39.0447472 C118.064603,39.0447472 118,38.9623845 118,38.6741152 C118,33.924536 118,29.1749567 118,24.4253775 C118,24.1325325 118.068641,24.0455941 118.327052,24.0501698 C119.094213,24.0501698 119.86541,24.0776241 120.636608,24.0501698 C120.943472,24.0501698 121,24.155411 121,24.4757102 C120.983849,26.8504998 120.987887,29.2069866 120.987887,31.5634735 Z" id="Path" fill="#000209"></path>
                    <path d="M25.0754375,50.4863898 C25.0754375,48.8092525 25.0754375,47.1321153 25.0754375,45.454978 C25.0754375,45.1292348 25.1714615,45.05 25.5171478,45.05 C28.1065943,45.05 30.69284,45.05 33.2758849,45.05 C33.6311736,45.05 33.7223964,45.1336368 33.7175952,45.454978 C33.7175952,46.3573747 33.7175952,46.3573747 32.7573554,46.3573747 C30.8896891,46.3573747 29.0220228,46.3573747 27.1543565,46.3573747 C26.7702606,46.3573747 26.6742367,46.4586192 26.6742367,46.7975682 C26.6982427,47.6339359 26.7030439,48.4747055 26.6742367,49.3110731 C26.6742367,49.6500221 26.7942666,49.7072473 27.1255493,49.7072473 C28.9932156,49.7072473 30.8608819,49.7072473 32.7285482,49.7072473 C33.2086681,49.7072473 33.2902885,49.8305015 33.2758849,50.2266756 C33.2374753,51.01022 33.2758849,51.01022 32.3780607,51.01022 C30.6400268,51.01022 28.8971917,51.01022 27.1543565,51.01022 C26.7894654,51.01022 26.6742367,51.080651 26.6742367,51.4504136 C26.7030439,52.4012315 26.6982427,53.3564514 26.6742367,54.3116713 C26.6742367,54.6374145 26.7750618,54.7166494 27.1207481,54.7166494 C29.2236732,54.7166494 31.321797,54.7166494 33.4247221,54.7166494 C33.8712335,54.7166494 34.0536791,54.8178939 33.9864623,55.2316758 C33.9648724,55.3467483 33.9648724,55.464356 33.9864623,55.5794286 C34.0440767,55.9095737 33.8808359,55.9800047 33.544752,55.9756028 C31.2785862,55.9756028 29.0172216,55.9756028 26.755857,55.9756028 C26.2085204,55.9756028 25.473937,56.1956995 25.1618591,55.8787602 C24.8497812,55.5618209 25.0850399,54.941148 25.0850399,54.4481313 C25.0706363,53.0835315 25.0754375,51.7849606 25.0754375,50.4863898 Z" id="Path" fill="#000209"></path>
                    <path d="M111,45.0993517 C111.039166,45.0867246 111.078998,45.0763048 111.119311,45.0681405 C112.718957,45.010177 112.723376,45.010177 113.598321,46.3700906 L116.024304,50.1332613 C116.700398,49.0899177 117.349978,48.100079 117.981882,47.1013228 C118.35749,46.5172288 118.737517,45.9375935 119.099867,45.3401233 C119.197305,45.146439 119.402687,45.0330809 119.61688,45.0547643 C120.058772,45.077058 120.531595,45.0547643 121,45.0547643 C120.968903,45.2240381 120.88717,45.3796408 120.765798,45.5006376 C119.510826,47.3554706 118.260274,49.2103035 116.996465,51.056219 C116.835431,51.2851357 116.751759,51.5603024 116.757844,51.840956 C116.757844,53.1072362 116.757844,54.3735164 116.757844,55.6353378 C116.757844,55.9742015 116.665046,56.05 116.342466,56.05 C115.273089,56.05 115.273089,56.05 115.273089,54.9665279 C115.273089,53.8830557 115.273089,52.8709233 115.273089,51.8186624 C115.279834,51.570999 115.205264,51.3280303 115.060981,51.1275587 C113.794226,49.2638083 112.530417,47.3985717 111.269554,45.5318488 C111.198851,45.411463 111.114892,45.277701 111,45.0993517 Z" id="Path" fill="#000209"></path>
                    <path d="M92.7648063,51.2227312 C92.7648063,49.7920837 92.7648063,48.3614363 92.7648063,46.9307889 C92.7648063,46.4494495 92.6096506,46.3603126 92.1670007,46.3736832 C91.2543204,46.4048811 90.34164,46.3736832 89.4563402,46.3736832 C89.136902,46.3736832 89,46.3157442 89,45.972567 C89,45.05 89,45.05 89.9126803,45.05 C92.454495,45.05 94.9963096,45.05 97.5381243,45.05 C97.9260134,45.05 98.0264082,45.1435938 97.9944644,45.5179688 C97.9716474,46.3736832 97.9944644,46.3736832 97.1137279,46.3736832 C96.3105692,46.3736832 95.5074106,46.3736832 94.7088153,46.3736832 C94.3254896,46.3736832 94.2205313,46.4583632 94.2250947,46.8193677 C94.2250947,49.7341448 94.2250947,52.6444649 94.2250947,55.559242 C94.2250947,55.9514444 94.1292633,56.0584087 93.7231206,56.049495 C92.6872284,56.0227539 92.6872284,56.049495 92.6872284,55.0511616 L92.7648063,51.2227312 Z" id="Path" fill="#000209"></path>
                    <path d="M69,50.5322006 C69,48.8546117 69,47.1725728 69,45.4949838 C69,45.1434466 69.0950226,45.05 69.4524887,45.05 C70.5248869,45.05 70.5294118,45.05 70.5294118,46.1135113 C70.5294118,48.8546117 70.5294118,51.595712 70.5294118,54.3368123 C70.5294118,54.675 70.60181,54.7817961 70.9819005,54.7817961 C72.5022624,54.7595469 74.0271493,54.7817961 75.5475113,54.7817961 C75.9049774,54.7817961 76,54.8752427 76,55.2267799 C76,56.05 76,56.05 75.1493213,56.05 C73.2533937,56.05 71.361991,56.05 69.4660633,56.05 C69.1040724,56.05 69.0135747,55.9521036 69.0135747,55.6050162 C69.0090498,53.9185275 69,52.227589 69,50.5322006 Z" id="Path" fill="#000209"></path>
                    <path d="M80.3993569,16.5812212 C80.36801,16.5437369 80.3342627,16.5083481 80.2983302,16.4752801 C78.2163006,14.3652872 76.1371993,12.2538228 74.0610263,10.140887 C73.8860214,9.94819974 73.6351751,9.84316304 73.3758014,9.85396324 C70.1370887,9.85396324 66.8998401,9.85396324 63.6640557,9.85396324 C63.5454591,9.85396324 63.4049001,9.79216428 63.2863035,9.94224746 C64.0637703,10.6352786 64.841237,11.310653 65.6011339,12.0125126 C65.803003,12.2047354 66.0745322,12.3052677 66.3522458,12.2906079 C68.1092328,12.2906079 69.8662198,12.2906079 71.6232068,12.2906079 C71.8670587,12.2724298 72.1074159,12.3572113 72.2864694,12.5245611 C73.4504733,13.6678418 74.6276546,14.7890514 75.8004434,15.9190895 C75.8575455,15.9720601 75.9410024,16.0206164 75.9014702,16.1265575 C75.8569972,16.139612 75.8114118,16.1484787 75.7653037,16.1530427 L69.1766024,16.1530427 C68.9806135,16.1475811 68.7932825,16.070709 68.6495063,15.9367464 C67.885217,15.3364136 67.1999921,14.6433825 66.4884123,13.985665 C64.8924825,12.5142612 63.3009451,11.0428575 61.7138001,9.57145372 C61.7477379,9.52514606 61.7844076,9.48092463 61.8236118,9.43902738 C64.1164799,7.33786281 66.4078837,5.23375544 68.6978235,3.12670526 C68.859353,2.9876169 69.0703011,2.92067195 69.2820216,2.94130838 L75.5764276,2.94130838 C75.6950242,2.94130838 75.8399756,2.87509521 75.9453949,3.03400682 C74.7023266,4.23467229 73.4548658,5.42650933 72.2161899,6.63158901 C72.0539517,6.77151651 71.8387787,6.83283779 71.6275993,6.79932904 L66.3039287,6.79932904 C66.1457999,6.79932904 65.9701012,6.75077271 65.8339347,6.87437063 C64.9554412,7.65568602 64.1252648,8.43700142 63.1984542,9.28894419 L63.4927495,9.28894419 C66.8090624,9.28894419 70.1297679,9.28894419 73.4504733,9.28894419 C73.6614349,9.29824134 73.8651327,9.21051016 74.0039242,9.05057679 C76.1240219,6.83758553 78.248512,4.6304799 80.3773946,2.42925988 C80.5602307,2.22370982 80.708583,1.98964371 80.8166413,1.73622871 C80.9630797,1.474653 80.9896064,1.16215971 80.889372,0.879436814 C80.7891376,0.596713923 80.5719679,0.371476385 80.2939377,0.261882141 C80.1402013,0.186840549 79.9688951,0.129455803 79.8063738,0.0676568451 L67.0155084,0.0676568451 C66.2651351,0.652860493 65.5616426,1.29637007 64.9115165,1.99225296 C63.8792866,2.98103629 62.8338794,3.95657698 61.806042,4.95418872 C61.1471718,5.59424936 60.4883017,6.22548157 59.8250391,6.87437063 C59.6054157,7.09066698 59.4516794,7.10390961 59.2100937,6.87437063 C57.8352513,5.60307778 56.4999412,4.28764282 55.1602386,2.98103629 C54.2553903,2.09819403 53.284655,1.28156495 52.4237314,0.332509521 C52.3018149,0.223119731 52.1676798,0.128315925 52.0240168,0.05 L49.6608693,0.05 C49.4676007,0.155941071 49.2611548,0.0720710564 49.0678862,0.098556324 C48.8746176,0.125041592 48.6637792,0.155941071 48.4749031,0.05 L48.277242,0.05 C48.1718228,0.142698437 48.0620111,0.235396873 47.9609844,0.336923733 C45.3899267,2.81771047 42.8174049,5.2970258 40.243419,7.77486973 C40.0749048,7.92857965 39.9858615,8.15147639 40.0018333,8.37961667 C40.0018333,9.15210365 40.0018333,9.92900483 40.0018333,10.705906 C39.9849429,10.9508504 40.0862778,11.1890163 40.2741662,11.3459666 C42.8217974,13.8002681 45.3679644,16.2589838 47.9126672,18.7221137 C48.0703905,18.8876223 48.2909395,18.9775634 48.5188278,18.9693095 C49.5203103,18.9693095 50.5217929,18.9693095 51.5232755,18.9693095 C51.7991558,18.9838415 52.0674297,18.8756778 52.2568176,18.6735574 C54.5496856,16.4267238 56.8601235,14.1975471 59.1485991,11.9462994 C59.438502,11.6593756 59.5878459,11.7123462 59.8294316,11.9462994 C62.1427978,14.215204 64.464949,16.478223 66.795885,18.7353563 C66.9527223,18.9243532 67.183559,19.03551 67.4284004,19.0399369 C71.3816211,19.0399369 75.3787665,19.0399369 79.3583421,19.0399369 C80.000215,19.114172 80.6186274,18.77245 80.9000982,18.1879941 C81.1943935,17.5523477 80.7815016,17.0667845 80.3993569,16.5812212 Z M56.8864784,9.77450743 C54.6873163,11.8344727 52.4910825,13.894438 50.2977771,15.9544032 C50.1440407,16.095658 50.0474064,16.1662854 49.8585303,15.9853027 C47.6593683,13.8576529 45.4543496,11.73736 43.2434743,9.62442425 C43.2196794,9.59513005 43.2004279,9.56238926 43.1863722,9.5273116 L48.3431291,4.57898077 C48.8438704,4.10224595 49.3490041,3.62992534 49.836568,3.1443621 C50.0210516,2.95896523 50.1440407,2.91482312 50.3548792,3.11787683 C52.5335431,5.19844175 54.7180636,7.26870684 56.9084407,9.3286721 C57.1104942,9.50965476 57.0665695,9.61118162 56.8864784,9.77450743 Z" id="Shape" fill="#F27023"></path>
                    <path d="M23.310947,26.9556827 C21.548761,25.4835547 19.4421885,24.8519792 17.25511,24.4340249 C14.8798193,24.007903 12.458112,23.9359706 10.0632446,24.2204038 C7.46288167,24.4425206 4.95485847,25.324384 2.75956529,26.7885009 C1.3305297,27.7009519 0.359278998,29.2187473 0.102868722,30.9401805 C0.102868722,31.0144835 0.0760334034,31.0748547 0,31.1027183 L0,33.0810354 C0.260848704,34.0052518 0.692252828,34.868 1.27020509,35.6212689 C2.60030377,37.2655355 4.38487942,38.4457227 6.38233333,39.0020549 C9.54255284,39.9891774 12.8659096,40.2833254 16.1414443,39.8658272 C18.6713617,39.5889511 21.0928966,38.652868 23.1812429,37.1444802 C24.8360876,35.9277687 25.9586984,34.358118 25.9989514,32.156892 C26.0392044,29.9556659 24.9165936,28.2884925 23.310947,26.9556827 Z M20.6900308,35.7791627 C19.9116217,36.4954945 18.9975491,37.034899 18.006499,37.3627452 C16.3891213,37.9111968 14.6937474,38.1703011 12.9927669,38.1289948 C10.7162373,38.1289948 8.56046672,37.8410707 6.58359823,36.7358137 C5.18368909,35.9556323 4.06107825,34.878239 3.71221911,33.1924899 C3.2257448,30.7780293 4.3937108,28.3314792 6.53887269,27.2714704 C8.89075672,26.1215526 11.4945633,25.6407733 14.0840698,25.8782893 C16.1928502,25.9414904 18.2480754,26.5823251 20.0415106,27.735864 C22.1525557,29.1615527 23.5301021,33.0717475 20.6900308,35.7698748 L20.6900308,35.7791627 Z" id="Shape" fill="#000209"></path>
                    <path d="M46.521822,31.2856496 C45.86005,30.9467561 45.1531799,30.7191844 44.4262712,30.6110023 C45.255881,30.4242977 46.0395285,30.0536368 46.7264831,29.5230147 C48.2658898,28.2782429 48.2614407,26.382579 46.7264831,25.1615623 C45.6982568,24.3916631 44.4620786,24.0028224 43.2072034,24.0545706 C38.3131356,24.0545706 33.3923729,24.0545706 28.4849576,24.0545706 C28.0845339,24.0545706 28,24.1733465 28,24.5819358 C28,29.5641904 28,34.5511961 28,39.5429528 C28,39.9847993 28.1334746,40.0465628 28.4983051,40.0465628 C32.3542373,40.0465628 36.196822,40.0465628 40.0260593,40.0465628 C41.1244139,40.0674925 42.2225393,39.9928125 43.3095339,39.823264 C44.9112288,39.5429528 46.4506356,39.0773511 47.7364407,37.9513552 C48.5230506,37.3554495 48.9932502,36.3919055 49,35.3620398 C48.9510593,33.4473717 48.0300847,32.1645916 46.521822,31.2856496 Z M31.2701271,26.5346122 C31.2701271,26.2257947 31.3146186,26.1070188 31.6438559,26.1070188 C35.0029661,26.1070188 38.3620763,26.1070188 41.7256356,26.1070188 C42.3939563,26.082652 43.0524727,26.2838032 43.6076271,26.6818943 C44.0067455,26.9282393 44.2614495,27.37411 44.2839321,27.8657964 C44.3064147,28.3574827 44.0936008,28.8277303 43.7188559,29.1144255 C43.1742242,29.6198414 42.4737811,29.892292 41.7523305,29.8793425 C40.0883475,29.8793425 38.4243644,29.8793425 36.7648305,29.8793425 C35.1052966,29.8793425 33.3701271,29.8793425 31.675,29.8793425 C31.3368644,29.8793425 31.2612288,29.7748197 31.2701271,29.4374961 C31.2879237,28.5015417 31.2879237,27.522828 31.2701271,26.5488653 L31.2701271,26.5346122 Z M43.7277542,37.1769361 C42.8646399,37.7905843 41.8404367,38.0935568 40.804661,38.0416249 C37.7614407,38.0416249 34.7182203,38.0416249 31.675,38.0416249 C31.3635593,38.0416249 31.2300847,37.9798615 31.2300847,37.6092805 C31.2523305,35.8323925 31.2300847,34.0602555 31.2300847,32.2881186 C31.2300847,31.960297 31.296822,31.8700273 31.6127119,31.8700273 C33.2766949,31.8700273 34.9362288,31.8700273 36.6002119,31.8700273 L41.0493644,31.8700273 C42.0709053,31.8403485 43.0685552,32.2027673 43.8612288,32.8915003 C45.3116525,34.1647784 45.2404661,36.0604423 43.7455508,37.1911892 L43.7277542,37.1769361 Z" id="Shape" fill="#000209"></path>
                    <path d="M89.7422222,36.4208447 C89.4977778,35.5048251 89.2977778,34.5338444 89.0311111,33.6040845 C88.6533333,32.3033366 88.24,31.011749 86.84,30.3980159 L87.0888889,30.3980159 C88.7733333,30.2377124 89.8177778,29.2392511 89.9733333,27.649957 C90.1022222,26.3537893 89.44,25.359908 88.0266667,24.7828157 C86.797847,24.3015389 85.4922701,24.062283 84.1777778,24.0774806 C79.5733333,24.0408398 74.9688889,24.0774806 70.3644444,24.05 C70.0755556,24.05 70,24.141602 70,24.4301481 C70,29.1903967 70,33.9475918 70,38.7017336 C70,38.9719593 70.0711111,39.0544011 70.3333333,39.049821 C71.2,39.049821 72.0622222,39.0223404 72.9288889,39.049821 C73.3066667,39.049821 73.3733333,38.9490588 73.3733333,38.5689107 C73.3733333,36.3613035 73.3733333,34.1536962 73.3733333,31.946089 C73.3733333,31.6163219 73.4488889,31.52472 73.7777778,31.52472 C76.8888889,31.52472 80.0311111,31.52472 83.1555556,31.52472 C84.4888889,31.52472 85.1422222,32.0331108 85.56,33.3567592 C86.117037,35.1185702 86.6740741,36.8819079 87.2311111,38.6467724 C87.2844444,38.816236 87.28,39.0223404 87.5466667,39.0177603 C88.6711111,39.0177603 89.7911111,39.0177603 91,39.0177603 C90.3714096,38.2777123 89.9382532,37.3833806 89.7422222,36.4208447 Z M85.8577778,28.9461248 C85.0363429,29.3623259 84.1331298,29.578568 83.2177778,29.5781783 C82.4222222,29.6193992 81.6222222,29.6056589 80.8266667,29.610239 L78.4844444,29.610239 L78.4844444,29.610239 C76.92,29.610239 75.3733333,29.610239 73.7955556,29.610239 C73.4755556,29.610239 73.3511111,29.5323773 73.3822222,29.1934501 C73.4044444,28.1812484 73.4044444,27.1736268 73.3822222,26.1614252 C73.3822222,25.827078 73.48,25.776697 73.7733333,25.776697 C76.6311111,25.776697 79.4933333,25.776697 82.3511111,25.776697 C83.3321062,25.743227 84.3116058,25.8794645 85.2488889,26.1797456 C85.6643679,26.3070251 86.0290312,26.5687959 86.2888889,26.9263016 C86.5450099,27.2351873 86.6457663,27.6499605 86.5610717,28.0467679 C86.4763771,28.4435753 86.2160324,28.7764984 85.8577778,28.9461248 L85.8577778,28.9461248 Z" id="Shape" fill="#000209"></path>
                    <path d="M114.457657,28.0487086 C113.198011,26.5736551 111.536397,25.5280491 109.691563,25.0495428 C105.856018,23.897579 101.805831,23.7386437 97.8970475,24.5867086 C95.6754695,25.0315906 93.6079198,26.0793827 91.9058984,27.6229011 C89.9788944,29.3955562 89.062338,32.9547513 91.3470225,35.6762166 C92.1871295,36.6630265 93.198696,37.477836 94.3291841,38.0783262 C97.1101503,39.5825374 100.141493,39.9296631 103.195191,40.05 C104.232866,40.0408193 105.269053,39.9666302 106.298069,39.8278396 C108.832614,39.5731302 111.258706,38.6365158 113.335434,37.1110027 C116.411487,34.8384866 116.876471,31.0201043 114.457657,28.0487086 Z M108.864427,37.0462059 C107.309072,37.7355264 105.638081,38.1019279 103.94632,38.1246096 C100.758492,38.1246096 98.5498145,37.8793075 96.5602165,36.736107 C94.8075818,35.736385 93.658533,34.2553155 93.7166561,32.0475963 C93.674981,29.9854157 94.8329795,28.0988005 96.6541076,27.2618904 C99.2992259,25.968183 102.259513,25.5294814 105.149021,26.0029813 C106.607577,26.1565896 108.027056,26.5831481 109.338354,27.2618904 C111.372662,28.3819492 112.392052,30.1314626 112.280276,32.4734038 C112.168501,34.8153449 110.791431,36.1621925 108.859956,37.0462059 L108.864427,37.0462059 Z" id="Shape" fill="#000209"></path>
                    <path d="M9.0222354,53.3004135 C8.70065949,52.3767961 8.26609744,51.5242262 7.33178905,51.0801793 C7.65336496,50.9380844 7.93148467,50.8359536 8.20091314,50.6982991 C9.22613225,50.1240538 9.80089436,48.9653131 9.64800474,47.7809113 C9.45245182,46.3421996 8.68762263,45.4274631 7.42304708,45.1743564 C6.99331638,45.0908373 6.55679489,45.0492061 6.11936094,45.0500115 C4.57666568,45.0500115 3.03397043,45.0500115 1.48692955,45.0500115 C1.0523675,45.0500115 0.995874438,45.1876778 1.00022006,45.5828795 C1.00022006,48.6912073 1.00022006,51.7995352 1.00022006,54.9389464 C1.00022006,56.0224207 1.00022006,56.0135397 2.05186021,56.0179802 C2.35605364,56.0179802 2.46469415,55.9602541 2.46034853,55.618338 C2.43862043,54.3439236 2.46034853,53.0650687 2.46034853,51.7862138 C2.46034853,51.4531787 2.55160656,51.3732503 2.86449123,51.3865717 C3.56413612,51.408774 4.26378101,51.3865717 4.95908028,51.3865717 C6.09264323,51.3209392 7.12381334,52.0539316 7.45781204,53.162759 C7.65771058,53.6867343 7.83588102,54.21515 8.01839708,54.7435658 C8.48772409,56.11123 8.48772409,56.1156705 9.91743321,56.0090993 C9.91743321,56.0090993 9.94785255,56.0090993 10,55.9735755 C9.67407847,55.058839 9.33077445,54.1840668 9.0222354,53.3004135 Z M6.14543467,50.005586 C5.58050401,50.0455502 5.01122773,50.005586 4.44195145,50.005586 L4.44195145,50.005586 C3.87267517,50.005586 3.30339889,50.005586 2.73412262,50.005586 C2.49945911,50.005586 2.43427481,49.938979 2.43427481,49.7036341 C2.43427481,48.6556836 2.43427481,47.6121735 2.43427481,46.5686635 C2.43427481,46.355521 2.43427481,46.2267474 2.71674013,46.2356283 C3.9639332,46.2755925 5.21981751,46.1734618 6.46701058,46.2977949 C7.10776046,46.3286951 7.68532762,46.7018317 7.98742384,47.2800559 C8.28952006,47.8582802 8.27157175,48.5562765 7.94017591,49.1174923 C7.56210693,49.8723719 6.84507956,49.9523004 6.14543467,50.005586 Z" id="Shape" fill="#000209"></path>
                    <path d="M55.8305821,55.4772614 C54.5823921,52.3479341 53.3342021,49.2156462 52.0860122,46.0803977 C51.6776716,45.0634404 51.6820156,45.076763 50.5873154,45.0589995 C50.2916936,45.0046384 50.0078531,45.2020304 49.9487402,45.5030857 C49.1320591,47.7235166 48.2762815,49.9705927 47.4378801,52.2043462 C46.9643788,53.4611101 46.4952215,54.7223149 46,56.0412509 C46.4344049,56.0412509 46.8297133,56.0412509 47.2119896,56.0412509 C47.4726325,56.0412509 47.5725456,55.9435519 47.6463944,55.7037454 C47.9461338,54.815573 48.2719374,53.9274006 48.5803649,53.0392283 C48.6177479,52.8321117 48.8120905,52.6950268 49.0147698,52.7328088 C50.2962641,52.7328088 51.5821025,52.7550131 52.8635969,52.7328088 C53.0923793,52.7001512 53.3061495,52.8562472 53.3501303,53.0880777 C53.5369244,53.6298629 53.7497828,54.1672072 53.949609,54.7089923 C54.479583,56.1300681 54.479583,56.1300681 56,55.9924014 C55.991855,55.8078527 55.9331516,55.6293564 55.8305821,55.4772614 Z M49.4578627,51.5648621 C49.1407472,51.5648621 49.1190269,51.4804858 49.2232841,51.1918297 C49.7793223,49.6686141 50.3136403,48.1320759 50.8870547,46.5067205 L52.7593397,51.5604213 C51.5777585,51.5604213 50.5091225,51.5515395 49.4404865,51.5648621 L49.4578627,51.5648621 Z" id="Shape" fill="#000209"></path>
                </g>
            </g>
        </g>
    </g>
</svg>