<svg width="15" height="16" viewBox="0 0 15 16" fill="none" xmlns="http://www.w3.org/2000/svg">
<path d="M5.25834 15.0905C4.65334 14.5097 4.36167 13.8616 4.38334 13.1462C3.718 13.5192 2.993 13.6019 2.20834 13.3943C1.42384 13.1866 0.821921 12.7295 0.402587 12.023C-0.00757948 11.3385 -0.10433 10.5921 0.112337 9.78375C0.329004 8.97542 0.791171 8.38083 1.49884 8C0.798837 7.623 0.339504 7.03517 0.120837 6.2365C-0.097663 5.43783 -0.00757933 4.69617 0.391087 4.0115C0.789754 3.32683 1.38884 2.86308 2.18834 2.62025C2.98767 2.37725 3.7155 2.44225 4.37184 2.81525C4.35 2.07425 4.64167 1.41983 5.24684 0.852C5.852 0.284 6.55267 0 7.34884 0C8.145 0 8.84567 0.284 9.45084 0.852C10.0558 1.41983 10.3475 2.07425 10.3258 2.81525C10.9898 2.44225 11.7113 2.37433 12.4901 2.6115C13.2689 2.84867 13.8616 3.31533 14.2681 4.0115C14.6668 4.70383 14.7588 5.4465 14.5441 6.2395C14.3293 7.03233 13.868 7.61917 13.1603 8C13.868 8.38083 14.3312 8.9735 14.5498 9.778C14.7683 10.5823 14.6783 11.3307 14.2796 12.023C13.8604 12.7448 13.2678 13.2057 12.5018 13.4057C11.7357 13.6057 11.0142 13.5192 10.3373 13.1462C10.3592 13.8616 10.0675 14.5097 9.46234 15.0905C8.85717 15.6712 8.1565 15.9615 7.36034 15.9615C6.56417 15.9615 5.8635 15.6712 5.25834 15.0905ZM7.32959 11.0192C8.16042 11.0192 8.87134 10.7238 9.46234 10.1328C10.0533 9.54175 10.3488 8.83083 10.3488 8C10.3488 7.16917 10.0533 6.45825 9.46234 5.86725C8.87134 5.27625 8.16042 4.98075 7.32959 4.98075C6.49875 4.98075 5.78784 5.27625 5.19684 5.86725C4.60584 6.45825 4.31034 7.16917 4.31034 8C4.31034 8.83083 4.60584 9.54175 5.19684 10.1328C5.78784 10.7238 6.49875 11.0192 7.32959 11.0192Z" fill="#7C6349"/>
</svg>
