<svg id="Layer_1" data-name="Layer 1" xmlns="http://www.w3.org/2000/svg" viewBox="0 0 497.79 443.4"><path d="M380.45,130.73a22.85,22.85,0,0,1,12.73,20.5V548.84a22.73,22.73,0,0,1-12.73,20.5,23,23,0,0,1-10.18,2.36A22.52,22.52,0,0,1,356.41,567L228.3,469.36H124a22.87,22.87,0,0,1-22.91-22.9V253.57A22.88,22.88,0,0,1,124,230.66H228.3L356.41,133a22.56,22.56,0,0,1,24-2.31Zm-33.09,66.69-88.48,67.41V435.09l88.48,67.41ZM543.13,216a189,189,0,0,1,55.76,134.54c0,50.1-19.8,97.48-55.76,133.45A22.49,22.49,0,0,1,527,490.68a22.94,22.94,0,0,1-16.22-39.13c27.3-27.34,42.33-63.21,42.33-101.06a143.63,143.63,0,0,0-42.33-102.15A22.9,22.9,0,1,1,543.13,216ZM488.82,270.3a112.67,112.67,0,0,1,33.33,80.18c0,29-12.16,57.84-33.33,79.1a22.67,22.67,0,0,1-16.21,6.74,22.94,22.94,0,0,1-16.27-39.13c12.73-12.72,20-29.74,20-46.71a67.23,67.23,0,0,0-20-47.8,22.93,22.93,0,0,1,32.48-32.38ZM213,276.43H146.94V423.5H213Z" transform="translate(-101.11 -128.3)"/></svg>