<svg id="Layer_1" data-name="Layer 1" xmlns="http://www.w3.org/2000/svg" viewBox="0 0 438.12 443.4"><path d="M564,296.24c-6.72-6.72-17.36-6.72-23.52,0l-30.24,30.24L480,296.24c-6.71-6.72-17.35-6.72-23.52,0-6.71,6.72-6.71,17.36,0,23.52L486.67,350l-30.24,30.24c-6.71,6.72-6.71,17.36,0,23.52a16.25,16.25,0,0,0,23.53,0l30.24-30.24,30.23,30.24a16.25,16.25,0,0,0,23.53,0c6.72-6.72,6.72-17.36,0-23.52L534.27,350l30.24-30.23a16.75,16.75,0,0,0-.56-23.53Z" transform="translate(-130.94 -128.3)"/><path d="M410.28,130.73A22.83,22.83,0,0,1,423,151.23V548.84a22.73,22.73,0,0,1-12.73,20.5,23,23,0,0,1-10.18,2.36A22.55,22.55,0,0,1,386.24,567L258.13,469.36H153.85a22.87,22.87,0,0,1-22.91-22.9V253.57a22.88,22.88,0,0,1,22.91-22.91H258.13L386.24,133a22.56,22.56,0,0,1,24-2.31Zm-33.09,66.69-88.48,67.41V435.09l88.48,67.41Zm-134.34,79H176.77V423.5h66.08Z" transform="translate(-130.94 -128.3)"/></svg>