<?xml version="1.0" encoding="utf-8"?>
<!-- Generator: Adobe Illustrator 26.0.0, SVG Export Plug-In . SVG Version: 6.00 Build 0)  -->
<svg version="1.1" id="Layer_1" xmlns="http://www.w3.org/2000/svg" xmlns:xlink="http://www.w3.org/1999/xlink" x="0px" y="0px"
	 viewBox="0 0 26 22.6" style="enable-background:new 0 0 26 22.6;" xml:space="preserve">
<path d="M25.8,3.3c-0.1-0.1-0.1-0.1-0.2-0.2c0.2-0.4,0.4-0.9,0.5-1.4c0.1-0.4-0.1-0.8-0.4-1c-0.3-0.2-0.8-0.2-1.1,0
	c-0.7,0.5-1.5,0.8-2.3,0.9c-1.9-1.8-4.7-2.2-7.1-1c-2.4,1.3-3.7,4-3.1,6.7c0.1,0.6,0.6,0.9,1.2,0.8C13.7,8.1,14.1,7.6,14,7
	c-0.4-1.8,0.4-3.6,2-4.5c1.7-0.9,3.8-0.5,5.1,1c0.2,0.2,0.6,0.3,0.9,0.3h0.2c-0.4,0.4-0.4,1,0,1.4c0.1,0.1,0.2,0.2,0.3,0.2
	c-0.3,0.2-0.4,0.5-0.4,0.9c0.3,4.3-1.5,8.5-4.9,11.2c-3.5,3-8.3,3.9-12.6,2.3c1.7-0.3,3.3-1,4.5-2.2c0.3-0.3,0.3-0.7,0.1-1.1
	C9.2,16.2,8.8,16,8.4,16c-1.2,0-2.2-0.5-3-1.4c0.3-0.1,0.7-0.2,1-0.4c0.4-0.2,0.6-0.6,0.6-1c-0.1-0.4-0.4-0.7-0.8-0.8
	c-1.3-0.3-2.4-1.2-3-2.5C3.5,9.9,3.7,10,4,10c0.4,0,0.8-0.2,1-0.6c0.1-0.4,0-0.9-0.3-1.1C3,6.7,2.6,5.1,2.8,3.9c1.9,2,4.3,3.4,7,4
	C10.4,8,10.9,7.7,11,7.1c0.1-0.6-0.3-1.1-0.8-1.2C7.5,5.3,5.1,3.7,3.4,1.5C3.2,1.3,2.9,1.2,2.6,1.2C2.3,1.1,2,1.3,1.8,1.5
	c-1.3,1.7-1.4,4.1-0.3,6H1.4C1.1,7.6,1,8,0.9,8.3c0,1.7,0.7,3.3,1.9,4.5c-0.2,0.3-0.3,0.7-0.2,1c0.6,1.5,1.7,2.8,3.2,3.6
	c-1.6,0.6-3.2,0.9-4.9,0.9c-0.6,0-1,0.5-1,1c0,0.3,0.2,0.7,0.5,0.8C3.1,21.7,6,22.5,9,22.6c3.5,0,6.9-1.3,9.6-3.6
	c3.8-3,5.9-7.6,5.7-12.4C25,6,25.6,5.2,25.9,4.3C26,4,26,3.6,25.8,3.3z"/>
</svg>
