<?xml version="1.0" encoding="UTF-8"?>
<svg width="11px" height="20px" viewBox="0 0 11 20" version="1.1" xmlns="http://www.w3.org/2000/svg" xmlns:xlink="http://www.w3.org/1999/xlink">
    <title>path9421</title>
    <g id="Designs" stroke="none" stroke-width="1" fill="none" fill-rule="evenodd">
        <g id="About" transform="translate(-517.000000, -5428.000000)" fill="#868686" fill-rule="nonzero">
            <g id="up-arrow" transform="translate(517.000000, 5428.000000)">
                <path d="M5.50831247,0 C5.26962056,0.00383842265 5.04184118,0.100160183 4.87351816,0.268520686 L0.29763536,4.81960148 C0.0494310858,5.04542004 -0.0542866289,5.38841567 0.0275007662,5.71293957 C0.109288161,6.03746348 0.363409003,6.29125186 0.689362924,6.37393583 C1.01531684,6.45661981 1.36060975,6.35488332 1.58868431,6.10896138 L4.5963584,3.11760512 L4.6036942,19.1094191 C4.61474014,19.6044377 5.02138544,20 5.51922776,20 C6.01707007,20 6.42371538,19.6044377 6.43476132,19.1094191 L6.42742551,3.09981254 L9.4476151,6.10896138 C9.80781304,6.45225993 10.377799,6.44641852 10.7308077,6.09581079 C11.0838164,5.74520306 11.090478,5.17831907 10.7458047,4.81960148 L6.16993193,0.268520686 C5.99504805,0.0936145148 5.75630455,-0.00325035564 5.50831247,0 L5.50831247,0 Z" id="path9421"></path>
            </g>
        </g>
    </g>
</svg>