<svg xmlns="http://www.w3.org/2000/svg" xmlns:xlink="http://www.w3.org/1999/xlink" viewBox="0 0 131.64 89.09"><defs><style>.cls-1,.cls-3{fill:none;}.cls-2{clip-path:url(#clip-path);}.cls-3{stroke:#000;stroke-linecap:round;stroke-linejoin:round;stroke-width:4px;}</style><clipPath id="clip-path" transform="translate(-2.25 -2.25)"><rect class="cls-1" width="136.15" height="93.6"/></clipPath></defs><g id="Layer_2" data-name="Layer 2"><g id="Layer_1-2" data-name="Layer 1"><g class="cls-2"><path class="cls-3" d="M126.47,12.47c-3.49-6-7.21-7.08-14.89-7.52s-26.85-.7-43.47-.7-35.94.2-43.54.7S13.16,6.48,9.67,12.47,4.25,28.68,4.25,46.77v.1c0,18,1.83,28.35,5.42,34.23s7.25,7.05,14.9,7.58,26.82.67,43.54.67,35.86-.27,43.51-.67,11.4-1.6,14.85-7.58,5.42-16.25,5.42-34.23v-.1c0-18.09-1.83-28.36-5.42-34.3ZM55.31,68.07V25.53l34,21.27Z" transform="translate(-2.25 -2.25)"/></g></g></g></svg>