<svg width="17" height="17" viewBox="0 0 17 17" fill="none" xmlns="http://www.w3.org/2000/svg">
<path d="M4.37305 0.100586C4.61811 0.100667 4.81738 0.299836 4.81738 0.544922V0.652344L9.93164 3.20996C10.0816 3.2859 10.1768 3.43854 10.1768 3.60742C10.1767 3.75454 10.1048 3.8917 9.98535 3.97363L9.93164 4.00488L4.81738 6.56152V8.86719C5.84515 8.64601 6.99133 8.52051 8.2002 8.52051C10.8215 8.52051 13.1566 9.1055 14.6104 9.99805C15.6771 10.6528 16.2997 11.4997 16.2998 12.4102C16.2998 13.3208 15.6773 14.1685 14.6104 14.8232C13.1544 15.7165 10.8215 16.2998 8.2002 16.2998C5.57888 16.2998 3.24376 15.7158 1.79004 14.8232C0.723046 14.1684 0.100586 13.3208 0.100586 12.4102C0.10073 11.4997 0.723261 10.6527 1.79004 9.99805C2.37375 9.63942 3.10131 9.3306 3.92773 9.09082V0.544922C3.92773 0.299791 4.12791 0.100586 4.37305 0.100586ZM8.19922 9.40918C6.97925 9.4092 5.82953 9.54129 4.81641 9.77344V10.8447C5.37516 10.9149 5.86361 11.1145 6.19727 11.3867H6.19824C6.537 11.6647 6.73045 12.0233 6.73047 12.4082C6.73047 12.7946 6.53625 13.1531 6.19824 13.4297H6.19727C5.77764 13.7721 5.11416 14.001 4.37207 14.001C3.62943 14.0009 2.96665 13.7738 2.54688 13.4297C2.20797 13.1516 2.01465 12.7932 2.01465 12.4082C2.01466 12.0217 2.20864 11.6633 2.54688 11.3867C2.88068 11.1136 3.36962 10.9142 3.92871 10.8447V10.0186C3.28376 10.2234 2.71797 10.471 2.25488 10.7549C1.45646 11.2449 0.988281 11.8065 0.988281 12.4102C0.988493 13.0152 1.45458 13.5747 2.25488 14.0645C3.58649 14.8807 5.7516 15.4101 8.19922 15.4102C10.6493 15.4102 12.8131 14.8829 14.1445 14.0645C14.9427 13.5746 15.4109 13.0136 15.4111 12.4102C15.4111 11.805 14.945 11.2448 14.1445 10.7549C12.8129 9.93856 10.6471 9.40918 8.19922 9.40918ZM9.34863 10.8193C10.2285 10.8193 10.9414 11.5322 10.9414 12.4121C10.9414 13.292 10.2285 14.0049 9.34863 14.0049C8.46876 14.0049 7.75586 13.292 7.75586 12.4121C7.75586 11.5323 8.46876 10.8194 9.34863 10.8193ZM9.34863 11.708C8.96052 11.708 8.64454 12.024 8.64453 12.4121C8.64453 12.8002 8.96052 13.1162 9.34863 13.1162C9.73677 13.1162 10.0527 12.8002 10.0527 12.4121C10.0527 12.024 9.73677 11.708 9.34863 11.708ZM4.81641 13.0781C5.15477 13.0224 5.44151 12.9049 5.63574 12.7461C5.77092 12.6349 5.8418 12.5236 5.8418 12.4121C5.84179 12.3005 5.7705 12.1883 5.63574 12.0781C5.4429 11.9194 5.15629 11.8009 4.81641 11.7451V13.0781ZM3.92773 11.7441C3.58938 11.7999 3.30262 11.9184 3.1084 12.0771C2.97333 12.1883 2.90341 12.2998 2.90332 12.4111C2.90332 12.5227 2.97364 12.6349 3.1084 12.7451C3.30116 12.9038 3.58805 13.0214 3.92773 13.0771V11.7441ZM4.81641 5.56641L8.7373 3.60645L4.81641 1.64551V5.56641Z" fill="#EADAD0" stroke="#EADAD0" stroke-width="0.2"/>
</svg>
