<svg width="16" height="17" viewBox="0 0 16 17" fill="none" xmlns="http://www.w3.org/2000/svg">
<path d="M7.8399 8.86822C7.32471 8.86822 6.82232 8.89254 6.33465 8.93797V12.6441C6.77688 12.8163 7.05976 13.0793 7.05976 13.3737C7.05976 13.8928 6.18169 14.3132 5.09945 14.3132C4.01722 14.3132 3.13914 13.8921 3.13914 13.3737C3.13914 13.0793 3.42202 12.8169 3.86361 12.6448V9.3872C1.55203 10.0406 8.7529e-08 11.2464 8.7529e-08 12.6256C-0.000640024 14.7024 3.50972 16.3855 7.83993 16.3855C12.1708 16.3855 15.6804 14.7024 15.6804 12.6263C15.6804 10.5508 12.1706 8.86822 7.8399 8.86822ZM10.6296 12.4336C10.211 12.4336 9.83404 12.1821 9.67406 11.7956C9.51406 11.409 9.60238 10.9649 9.89805 10.6692C10.1937 10.3735 10.6385 10.2846 11.0251 10.4446C11.411 10.6046 11.6631 10.9815 11.6631 11.4001C11.6631 11.9709 11.2004 12.4336 10.6296 12.4336Z" fill="#7C6349"/>
<path d="M5.78161 13.6882V7.11487L12.408 4.14975L5.78161 1.18462V0.682873C5.78161 0.305278 5.47633 0 5.09938 0C4.72178 0 4.4165 0.305278 4.4165 0.682873V13.6881C4.86642 13.7835 5.3317 13.7835 5.78161 13.6882Z" fill="#7C6349"/>
</svg>
