<svg width="16" height="19" viewBox="0 0 16 19" fill="none" xmlns="http://www.w3.org/2000/svg">
<path d="M15.0023 17.6923C14.7251 17.6923 14.4888 17.5953 14.2933 17.4013C14.0977 17.2073 14 16.9717 14 16.6945C14 16.4173 14.097 16.181 14.291 15.9855C14.485 15.79 14.7206 15.6923 14.9977 15.6923C15.2749 15.6923 15.5113 15.7893 15.7068 15.9833C15.9023 16.1773 16 16.4128 16 16.69C16 16.9672 15.903 17.2035 15.709 17.399C15.515 17.5945 15.2794 17.6923 15.0023 17.6923ZM5.50225 18.6923C3.97508 18.6923 2.67625 18.5477 1.60575 18.2585C0.53525 17.9695 0 17.6141 0 17.1923C0 16.8689 0.36475 16.5807 1.09425 16.3275C1.82375 16.0745 2.61283 15.9076 3.4615 15.8268V17.3078H5V0L11.3845 3.09225L6 5.8845V15.7038C7.43333 15.7871 8.625 15.9626 9.575 16.2303C10.525 16.4981 11 16.8188 11 17.1923C11 17.6141 10.4655 17.9695 9.3965 18.2585C8.3275 18.5477 7.02942 18.6923 5.50225 18.6923Z" fill="#7C6349"/>
</svg>
