<svg width="22" height="14" viewBox="0 0 22 14" fill="none" xmlns="http://www.w3.org/2000/svg">
<path d="M2.7002 12.7002L1.2002 12.2002L0.700195 10.2002L3.2002 6.2002V3.7002L6.2002 2.2002L7.7002 2.7002L8.2002 0.700195H13.2002L13.7002 3.2002L14.2002 2.2002L18.2002 3.7002V6.2002L20.7002 11.7002L18.7002 12.7002L16.2002 11.7002H12.7002H5.2002L2.7002 12.7002Z" fill="#7C6349"/>
<path d="M12.0498 0.100586C12.5952 0.100586 13.0663 0.284928 13.457 0.65332C13.8044 0.980879 14.0288 1.37618 14.1318 1.83594C14.3261 1.70662 14.556 1.65927 14.8164 1.69238C15.1221 1.73126 15.4154 1.8067 15.6953 1.91895L17.6953 2.71875C18.2615 2.94521 18.6459 3.35601 18.8447 3.94336C19.0374 4.51268 19.0104 5.08018 18.7705 5.64355L21.0654 10.0342L21.0664 10.0352C21.1427 10.1839 21.2062 10.3338 21.2578 10.4844C21.3115 10.6411 21.3389 10.8049 21.3389 10.9736C21.3388 11.6211 21.1126 12.1788 20.6631 12.6416C20.2131 13.1051 19.6637 13.3388 19.0205 13.3389C18.8621 13.3389 18.7095 13.3198 18.5645 13.2822V13.2812C18.4205 13.2441 18.2769 13.1897 18.1348 13.1162V13.1152L16.5303 12.2998H4.86035L3.36621 13.0752L3.36719 13.0762C3.1932 13.1719 3.00919 13.2404 2.81543 13.2803C2.6247 13.3195 2.4293 13.3389 2.22949 13.3389C1.62409 13.3389 1.11429 13.13 0.708008 12.7129C0.30324 12.2972 0.100622 11.7923 0.100586 11.2041C0.100586 11.0093 0.124342 10.8181 0.171875 10.6309C0.219112 10.445 0.285806 10.2634 0.37207 10.0869L0.373047 10.085L2.66797 5.69141C2.45529 5.1098 2.43172 4.53019 2.60059 3.95605C2.77559 3.36142 3.14527 2.94591 3.70508 2.71875L5.70508 1.91895C6.0009 1.79263 6.30451 1.72877 6.61523 1.72754C6.87777 1.72636 7.11801 1.79125 7.33496 1.9209C7.41495 1.44519 7.62634 1.03202 7.96973 0.68457C8.35412 0.295511 8.82618 0.100601 9.37988 0.100586H12.0498ZM16.6221 10.9834L18.6152 12.0234H18.6162C18.8801 12.1624 19.1105 12.2098 19.3105 12.1797C19.5089 12.1497 19.6918 12.0412 19.8584 11.8418C20.0267 11.6404 20.1169 11.4338 20.1377 11.2217C20.1585 11.0092 20.1103 10.7819 19.9844 10.5381V10.5371L18.1738 7.14453L16.6221 10.9834ZM1.41504 10.6162V10.6182C1.2765 10.869 1.22334 11.0935 1.24512 11.2949C1.26683 11.4952 1.36339 11.6846 1.54492 11.8633C1.72735 12.0427 1.9189 12.1408 2.11914 12.167C2.26981 12.1867 2.43204 12.167 2.60645 12.1025L2.78516 12.0225L4.77734 10.9834L3.26367 7.14453L1.41504 10.6162ZM15.2539 3.03125C14.9702 2.91266 14.7024 2.89994 14.4453 2.9873C14.3207 3.02971 14.2275 3.09549 14.1621 3.18359C14.0963 3.27232 14.0534 3.3898 14.0381 3.54102L13.3711 11.1006H15.2793L17.6924 5.13574C17.8408 4.76932 17.8556 4.49555 17.7705 4.29883C17.6932 4.11993 17.5555 3.97698 17.3477 3.87305L17.2549 3.83105L15.2549 3.03125H15.2539ZM9.35059 1.2998C9.13003 1.2998 8.91529 1.38431 8.70605 1.56348C8.5073 1.73388 8.42321 1.94333 8.44922 2.20117L8.4502 2.20312L9.23047 11.1006H12.1699L12.9502 2.28027L12.9512 2.27734C12.9816 1.99887 12.912 1.76984 12.7471 1.58203C12.5843 1.39679 12.3559 1.2998 12.0498 1.2998H9.35059ZM6.9707 2.99902C6.72895 2.9048 6.45515 2.91213 6.14355 3.03223L6.14258 3.03125L4.14551 3.83008L4.14648 3.83105C3.90549 3.93304 3.76215 4.07992 3.7002 4.27051L3.67773 4.35449C3.6304 4.60226 3.66352 4.88737 3.78516 5.21289L6.12207 11.1006H8.0293L7.3623 3.4668L7.34668 3.38574C7.32652 3.30836 7.29294 3.242 7.24609 3.18555C7.18329 3.10989 7.09321 3.04678 6.9707 2.99902Z" fill="#7C6349" stroke="#EADAD0" stroke-width="0.2"/>
</svg>
