<svg width="21" height="15" viewBox="0 0 21 15" fill="none" xmlns="http://www.w3.org/2000/svg">
<path d="M1.00195 0.87207C1.59963 0.823237 2.12986 1.25547 2.17969 1.83398L2.72949 8.22461C2.74227 8.36663 2.80686 8.49669 2.91211 8.59082C3.01648 8.68494 3.15643 8.7362 3.30664 8.73633H7.12695C7.72952 8.73633 8.2195 9.20875 8.21973 9.79004C8.21973 10.3715 7.73063 10.8438 7.12695 10.8438H6.72461L7.60547 14.0137C7.66106 14.2162 7.63085 14.4285 7.52344 14.6094C7.41304 14.79 7.23808 14.9209 7.02832 14.9736C6.96108 14.9905 6.88849 15 6.81836 15C6.67788 14.9999 6.53796 14.9632 6.41309 14.8936C6.22579 14.7871 6.08988 14.6184 6.03516 14.416L5.24414 11.5703L5 11V10.8447H3.30664C3.28437 10.8447 3.26152 10.8418 3.23926 10.8418L2.24707 14.415C2.19137 14.6147 2.05652 14.786 1.86914 14.8896C1.75592 14.9536 1.62943 14.9871 1.50293 14.9932L1.5 15L1.49609 14.9932C1.48543 14.9936 1.47453 14.9961 1.46387 14.9961C1.39372 14.9961 1.32405 14.9866 1.25391 14.9697C1.04416 14.916 0.866209 14.7861 0.758789 14.6055C0.649487 14.4227 0.622126 14.2123 0.676758 14.0098L1.69727 10.3398C1.60747 10.2796 1.51948 10.2122 1.4375 10.1396C0.92485 9.68635 0.61231 9.06648 0.554688 8.39844L0.00585938 2.04004L0 2L0.00292969 1.99609C-0.0187337 1.72067 0.0742275 1.45289 0.258789 1.24121C0.446266 1.02644 0.711958 0.896643 1.00195 0.87207ZM20.001 0.871094C20.5967 0.917174 21.0405 1.42053 20.9961 1.99609L21 2L20.9932 2.03711L20.4463 8.40039C20.3887 9.06856 20.0753 9.68832 19.5625 10.1416C19.4805 10.2131 19.3925 10.2787 19.3027 10.3418L20.3213 14.0117C20.4363 14.429 20.1784 14.8603 19.7461 14.9717C19.6788 14.9886 19.6054 14.998 19.5352 14.998C19.5242 14.998 19.5129 14.9956 19.502 14.9951L19.5 15L19.4971 14.9951C19.3697 14.989 19.2434 14.9549 19.1299 14.8916C18.9427 14.7851 18.8066 14.6164 18.752 14.4141L17.7598 10.8408C17.7374 10.8408 17.7147 10.8437 17.6924 10.8438H16V11L15.7529 11.5742L14.9639 14.415C14.9081 14.6147 14.7734 14.7861 14.5859 14.8896C14.461 14.9602 14.3202 14.9961 14.1807 14.9961C14.1105 14.9961 14.0409 14.9867 13.9707 14.9697C13.7639 14.916 13.5859 14.7861 13.4785 14.6055C13.3692 14.4227 13.3419 14.2122 13.3965 14.0098L14.2744 10.8447H13.8721C13.2695 10.8446 12.7793 10.3714 12.7793 9.79004C12.7795 9.20885 13.2697 8.7365 13.8721 8.73633L17.6953 8.73535C17.8446 8.73533 17.9844 8.68394 18.0898 8.58984C18.1952 8.49571 18.2597 8.36576 18.2725 8.22363L18.8223 1.83301C18.8721 1.25447 19.4014 0.823217 20.001 0.871094ZM10.9385 0C11.0782 0 11.1934 0.108504 11.1934 0.246094C11.1933 0.380788 11.081 0.492188 10.9385 0.492188H10.7588V0.829102C12.8342 0.952373 14.5017 2.55921 14.6299 4.56348H14.9648C15.5127 4.56348 15.9622 4.97777 15.9971 5.49805L16 5.5L15.9971 5.50195C15.9983 5.52202 16.001 5.54214 16.001 5.5625C16.001 6.11285 15.5353 6.56152 14.9648 6.56152H11.3135V13.0273C11.3135 13.2467 11.4983 13.4254 11.7256 13.4258H12.127C12.2483 13.4258 12.3631 13.4534 12.4668 13.5H12.5V13.5166C12.7599 13.6479 12.9393 13.9087 12.9395 14.2119C12.9395 14.6435 12.5743 14.9961 12.127 14.9961L8.87598 14.9951C8.42877 14.9949 8.06348 14.6424 8.06348 14.2109C8.0637 13.7796 8.4289 13.4279 8.87598 13.4277H9.27637C9.50396 13.4277 9.68848 13.2489 9.68848 13.0293V6.56152H6.04004C5.46987 6.56121 5.00488 6.11266 5.00488 5.5625C5.00508 5.0125 5.46999 4.56379 6.04004 4.56348H6.375C6.50297 2.56136 8.16881 0.952807 10.2461 0.829102V0.492188H10.0664C9.92702 0.491912 9.8116 0.383444 9.81152 0.246094C9.81152 0.111507 9.92405 0.000277049 10.0664 0H10.9385ZM8.87891 14.502H12.127C12.1334 14.5019 12.1401 14.5004 12.1465 14.5H8.8584C8.865 14.5004 8.87219 14.5019 8.87891 14.502ZM13.2471 3.39746C13.1797 3.27683 13.0244 3.23087 12.8994 3.2959C12.7744 3.3609 12.7267 3.51026 12.7939 3.63086C12.8447 3.7204 12.8896 3.81501 12.9268 3.91113C12.9668 4.01001 13.0645 4.07031 13.167 4.07031C13.1972 4.07031 13.2295 4.06592 13.2598 4.05371C13.3916 4.00565 13.457 3.85964 13.4072 3.73242C13.3594 3.61949 13.3066 3.50569 13.2471 3.39746ZM10.501 1.80762C10.3614 1.80773 10.2461 1.9162 10.2461 2.05371C10.2462 2.18833 10.3585 2.29969 10.501 2.2998C11.2209 2.2998 11.9139 2.59064 12.4043 3.09766C12.4541 3.15038 12.5244 3.17676 12.5918 3.17676C12.6542 3.17671 12.7169 3.15554 12.7666 3.1123C12.8691 3.02099 12.8737 2.86452 12.7793 2.76367C12.1922 2.15583 11.3615 1.80762 10.501 1.80762Z" fill="#7C6349"/>
</svg>
