<svg width="19" height="14" viewBox="0 0 19 14" fill="none" xmlns="http://www.w3.org/2000/svg">
<path d="M9.2002 0.100586C9.94707 0.100586 10.543 0.745382 10.543 1.52539C10.5429 1.79279 10.4719 2.04264 10.3506 2.25684C14.1823 2.83573 17.1462 6.25794 17.3213 10.4502H17.9277C18.1387 10.4502 18.2996 10.6291 18.2998 10.8398V11.9951C18.2997 12.3391 18.1725 12.6695 17.9424 12.916C17.7125 13.1613 17.3989 13.2997 17.0703 13.2998H1.33008C1.00226 13.2997 0.687884 13.1614 0.458008 12.916C0.227851 12.6695 0.100655 12.3391 0.100586 11.9951V10.8398C0.100825 10.6291 0.261655 10.4502 0.472656 10.4502H1.0791C1.25332 6.25795 4.21794 2.83575 8.0498 2.25684C7.92895 2.04272 7.85847 1.79275 7.8584 1.52539C7.8584 0.74553 8.45352 0.100831 9.2002 0.100586ZM0.844727 11.9951C0.844791 12.1363 0.897183 12.2692 0.989258 12.3682L1.06348 12.4336C1.14281 12.4902 1.23569 12.5204 1.33008 12.5205H17.0703C17.1964 12.5205 17.3198 12.4663 17.4111 12.3682C17.5032 12.2692 17.5556 12.1363 17.5557 11.9951V11.2295H0.844727V11.9951ZM9.20117 2.9502C5.24998 2.9502 2.01572 6.26741 1.8252 10.4502H16.5752C16.3846 6.26759 13.1512 2.95046 9.20117 2.9502ZM11.459 3.88477L11.5322 3.90234L11.5342 3.90332C12.9905 4.46091 14.225 5.52235 15.0459 6.91113L15.2051 7.19336V7.19434C15.2407 7.26302 15.2556 7.34018 15.249 7.41699L15.2354 7.49316C15.2087 7.58654 15.1482 7.66498 15.0674 7.71582C15.0662 7.71682 15.0657 7.71875 15.0645 7.71973C15.0625 7.72127 15.0596 7.7213 15.0576 7.72266C15.0558 7.7237 15.0545 7.72555 15.0527 7.72656L15.0518 7.72559C15.0502 7.72651 15.0484 7.72672 15.0469 7.72754L15.0488 7.72949C14.8683 7.82751 14.6485 7.75576 14.5527 7.57227C13.8242 6.20844 12.664 5.16981 11.2832 4.64062V4.63965C11.1026 4.57196 11.0082 4.378 11.0449 4.19336L11.043 4.18555L11.0518 4.15527C11.0739 4.0832 11.1157 4.01559 11.1748 3.96582L11.2393 3.92285C11.3081 3.88601 11.385 3.87414 11.459 3.88477ZM9.20117 0.879883C8.87772 0.879883 8.60254 1.16445 8.60254 1.52539C8.60277 1.88626 8.87799 2.1709 9.20117 2.1709C9.52401 2.17062 9.79762 1.88622 9.79785 1.52539C9.79785 1.16448 9.52429 0.88016 9.20117 0.879883Z" fill="#EADAD0" stroke="#EADAD0" stroke-width="0.2"/>
</svg>
