<svg width="18" height="13" viewBox="0 0 18 13" fill="none" xmlns="http://www.w3.org/2000/svg">
<path d="M9 0C9.68566 0 10.2422 0.594224 10.2422 1.3252C10.2421 1.62921 10.1461 1.90942 9.98438 2.13281C13.8669 2.63948 16.8932 6.10285 17.0264 10.3506H17.7275C17.8778 10.3506 17.9998 10.4785 18 10.6396V11.7949C17.9999 12.1143 17.8813 12.42 17.6689 12.6475C17.4573 12.8733 17.1701 12.9999 16.8701 13H1.12988C0.830613 12.9999 0.542651 12.8733 0.331055 12.6475C0.118689 12.42 6.86959e-05 12.1143 0 11.7949V10.6396C0.00023567 10.4785 0.122182 10.3506 0.272461 10.3506H0.974609C1.1069 6.10285 4.13295 2.63946 8.01562 2.13281C7.85468 1.90944 7.75888 1.62921 7.75879 1.3252C7.75879 0.594375 8.31454 0.000245514 9 0ZM0.543945 10.9561L0.570312 10.9297H0.543945V10.9561ZM11.2979 3.7959C11.2283 3.77089 11.1507 3.77505 11.085 3.81055C11.0185 3.84526 10.9699 3.91021 10.9473 3.98438V3.98633C10.9042 4.13469 10.9792 4.29494 11.1182 4.34668C12.5227 4.88493 13.7021 5.94073 14.4414 7.3252C14.5125 7.46142 14.6716 7.51155 14.8008 7.44141C14.8008 7.44141 14.8019 7.44134 14.8027 7.43945C14.8685 7.40234 14.9183 7.33984 14.9395 7.26562C14.9606 7.18903 14.9515 7.10858 14.916 7.04004C14.111 5.53295 12.8279 4.38163 11.2979 3.7959Z" fill="#7C6349"/>
</svg>
