<svg width="22" height="16" viewBox="0 0 22 16" fill="none" xmlns="http://www.w3.org/2000/svg">
<path d="M8.3201 9.89005C8.3201 9.30858 7.82975 8.8355 7.22705 8.8355H3.40681C3.25639 8.8355 3.11669 8.78461 3.01219 8.69037C2.90669 8.59613 2.84222 8.46608 2.82952 8.32378L2.27958 1.93344C2.22976 1.35482 1.69936 0.922248 1.10155 0.971247C0.81143 0.995748 0.546712 1.1258 0.359164 1.34066C0.171615 1.55551 0.0788163 1.82787 0.104223 2.10777L0.654164 8.49811C0.711797 9.16627 1.02438 9.78636 1.53719 10.2397C1.61924 10.3122 1.70716 10.3792 1.79703 10.4395L0.776271 14.1092C0.721569 14.3118 0.748919 14.522 0.858322 14.7048C0.965772 14.8857 1.14355 15.0158 1.35357 15.0695C1.4239 15.0865 1.49326 15.0959 1.56359 15.0959C1.70327 15.0959 1.84394 15.0601 1.96897 14.9894C2.15652 14.8857 2.29133 14.7142 2.34699 14.5144L3.33944 10.9417C3.36191 10.9417 3.38438 10.9445 3.40684 10.9445H5.14264L6.1351 14.5153C6.1898 14.7179 6.32557 14.8866 6.51312 14.9931C6.63815 15.0629 6.77784 15.0996 6.9185 15.0996C6.98883 15.0996 7.06111 15.0902 7.12851 15.0732C7.33853 15.0204 7.51339 14.8895 7.62376 14.7085C7.73121 14.5276 7.76149 14.3155 7.70581 14.1129L6.82474 10.9436H7.22719C7.83087 10.9436 8.3201 10.4715 8.3201 9.89005ZM1.85169 14.3863C1.83215 14.4608 1.78136 14.5239 1.71201 14.5625C1.64168 14.6012 1.56158 14.6106 1.48441 14.5917C1.40724 14.5729 1.34179 14.5239 1.30174 14.457C1.26169 14.3891 1.25193 14.3119 1.27146 14.2374L2.25414 10.6977C2.43681 10.7797 2.62924 10.84 2.82459 10.8815L1.85169 14.3863ZM1.88099 9.87509C1.46291 9.50568 1.20797 9.00148 1.16108 8.45678L0.611143 2.06643C0.598445 1.91659 0.646307 1.77239 0.745943 1.65838C0.845578 1.54529 0.98624 1.47461 1.14057 1.4633C1.46095 1.4388 1.74032 1.66874 1.76573 1.97503L2.31567 8.36537C2.33814 8.63114 2.46024 8.87709 2.66341 9.05521C2.86366 9.23333 3.12838 9.33227 3.4058 9.33227H7.22703C7.54742 9.33227 7.80726 9.58296 7.80726 9.89205C7.80726 10.2011 7.54742 10.4518 7.22703 10.4518H3.4068C2.84123 10.449 2.29908 10.2445 1.88099 9.87509ZM7.21036 14.2346C7.2299 14.309 7.22013 14.3863 7.18008 14.4541C7.14003 14.522 7.07459 14.57 6.99742 14.5889C6.92025 14.6077 6.84015 14.5983 6.76982 14.5597C6.69949 14.521 6.64967 14.4579 6.63014 14.3835L5.67482 10.9408H6.29705L7.21036 14.2346ZM12.2264 13.5249H11.8259C11.5983 13.5249 11.4137 13.3468 11.4137 13.1272V6.66139H15.0651C15.6356 6.66139 16.1005 6.2128 16.1005 5.66245C16.1005 5.1121 15.6356 4.66351 15.0651 4.66351H14.7301C14.6021 2.65903 12.9347 1.05218 10.8591 0.928897V0.591527H11.0388C11.1814 0.591527 11.2938 0.480323 11.2938 0.345568C11.2938 0.207979 11.1785 0.0996094 11.0388 0.0996094H10.1665C10.0239 0.0996094 9.9116 0.210813 9.9116 0.345568C9.9116 0.483158 10.0269 0.591527 10.1665 0.591527H10.3463V0.928897C8.26859 1.05235 6.60306 2.66103 6.47528 4.66351H6.14024C5.56979 4.66351 5.10482 5.1121 5.10482 5.66245C5.10482 6.2128 5.56979 6.66139 6.14024 6.66139H9.78868V13.1292C9.78868 13.3488 9.60406 13.5269 9.37647 13.5269H8.97597C8.52858 13.5269 8.16326 13.8793 8.16326 14.3109C8.16326 14.7426 8.52858 15.095 8.97597 15.095L12.2268 15.096C12.6742 15.096 13.0395 14.7435 13.0395 14.3119C13.0395 13.8774 12.6742 13.525 12.2268 13.525L12.2264 13.5249ZM10.601 1.4142C12.5116 1.4142 14.0794 2.84947 14.2122 4.66366L6.98956 4.6646C7.1224 2.84955 8.6902 1.41418 10.6007 1.41418L10.601 1.4142ZM5.61445 5.66245C5.61445 5.3854 5.84987 5.15828 6.13704 5.15828H15.0621C15.3493 5.15828 15.5847 5.3854 15.5847 5.66245C15.5847 5.93951 15.3493 6.16662 15.0621 6.16662H6.13704C5.84986 6.16662 5.61445 5.94045 5.61445 5.66245ZM12.2264 14.6012H8.97857C8.81349 14.6012 8.67869 14.4711 8.67869 14.3119C8.67869 14.1526 8.81349 14.0225 8.97857 14.0225H9.37907C9.88898 14.0225 10.3041 13.622 10.3041 13.1301L10.3031 6.66158H10.9058V13.1294C10.9058 13.6213 11.321 14.0218 11.8309 14.0218H12.2314C12.3965 14.0218 12.5313 14.1519 12.5313 14.3111C12.5264 14.4713 12.3915 14.6012 12.2264 14.6012ZM20.1004 0.970296C19.5007 0.922234 18.9722 1.35384 18.9224 1.93249L18.3725 8.32283C18.3598 8.46514 18.2953 8.59519 18.1898 8.68942C18.0843 8.78365 17.9446 8.83455 17.7952 8.83455L13.9719 8.83549C13.3692 8.83549 12.8789 9.30857 12.8789 9.89004C12.8789 10.4715 13.3692 10.9446 13.9719 10.9446H14.3744L13.4962 14.1091C13.4415 14.3117 13.4689 14.5219 13.5783 14.7047C13.6857 14.8857 13.8635 15.0157 14.0706 15.0694C14.1409 15.0864 14.2103 15.0958 14.2806 15.0958C14.4203 15.0958 14.561 15.06 14.686 14.9893C14.8736 14.8857 15.0084 14.7142 15.064 14.5143L16.0565 10.9435H17.7923C17.8148 10.9435 17.8372 10.9407 17.8597 10.9407L18.8521 14.5134C18.9068 14.7161 19.0426 14.8848 19.2302 14.9913C19.3552 15.061 19.4949 15.0977 19.6355 15.0977C19.7059 15.0977 19.7782 15.0883 19.8456 15.0714C20.2783 14.9602 20.5362 14.5285 20.4209 14.111L19.4031 10.4413C19.4929 10.3782 19.5808 10.3132 19.6629 10.2415C20.1757 9.78824 20.4883 9.16815 20.5459 8.49997L21.0959 2.10963C21.1486 1.52816 20.7012 1.0165 20.1004 0.970296ZM14.5718 14.3862C14.5522 14.4607 14.5014 14.5238 14.4321 14.5624C14.3617 14.6011 14.2816 14.6105 14.2045 14.5916C14.0443 14.5502 13.9495 14.3919 13.9915 14.2373L14.9068 10.9447H15.5291L14.5718 14.3862ZM19.9306 14.2345C19.9736 14.389 19.8779 14.5483 19.7177 14.5888C19.6405 14.6077 19.5604 14.5983 19.4901 14.5596C19.4198 14.521 19.3699 14.4578 19.3504 14.3834L18.3785 10.8813C18.5758 10.8399 18.7663 10.7777 18.9509 10.6976L19.9306 14.2345ZM20.0381 8.45378C19.9902 8.99943 19.7353 9.50363 19.3182 9.8721C18.9001 10.2434 18.358 10.446 17.7924 10.446L13.9721 10.447C13.6518 10.447 13.3919 10.1963 13.3919 9.88717C13.3919 9.57808 13.6518 9.32739 13.9721 9.32739H17.7934C18.0708 9.32739 18.3336 9.22844 18.5358 9.05033C18.736 8.87222 18.8611 8.62814 18.8835 8.36049L19.4335 1.97015C19.4608 1.66388 19.7431 1.43485 20.0586 1.45843C20.3761 1.48293 20.6135 1.75529 20.589 2.06156L20.0381 8.45378ZM12.8662 3.21133C12.8164 3.25468 12.7539 3.27635 12.6914 3.27635C12.624 3.27635 12.5537 3.24997 12.5038 3.19719C12.0135 2.69017 11.3209 2.39898 10.601 2.39898C10.4584 2.39898 10.3461 2.28778 10.3461 2.15302C10.3461 2.01543 10.4613 1.90706 10.601 1.90706C11.4616 1.90706 12.2919 2.25481 12.8789 2.86265C12.9737 2.96348 12.9688 3.11992 12.8662 3.21133ZM13.3595 4.15278C13.3293 4.16503 13.297 4.16974 13.2667 4.16974C13.1642 4.16974 13.0665 4.10943 13.0264 4.01047C12.9893 3.91435 12.9444 3.82011 12.8936 3.73057C12.8262 3.60994 12.8741 3.4601 12.9991 3.39508C13.1241 3.33006 13.2794 3.37623 13.3468 3.49686C13.4064 3.60524 13.4592 3.71927 13.507 3.83235C13.5569 3.95957 13.4914 4.10472 13.3595 4.15278Z" fill="#EADAD0" stroke="#EADAD0" stroke-width="0.2"/>
</svg>
