<svg width="22" height="14" viewBox="0 0 22 14" fill="none" xmlns="http://www.w3.org/2000/svg">
<path d="M18.3693 11.9115C18.9218 12.2025 19.3768 12.1339 19.7345 11.7058C20.0923 11.2776 20.1385 10.8064 19.873 10.2923L17.9615 6.70775L16.2962 10.8308L18.3693 11.9115ZM13.0615 11H15.1462L17.5845 4.973C17.7372 4.59617 17.7632 4.29142 17.6625 4.05875C17.5618 3.82592 17.3717 3.6525 17.0923 3.5385L15.0922 2.7385C14.7884 2.6115 14.4952 2.59608 14.2125 2.69225C13.9298 2.78842 13.7718 3.00125 13.7385 3.33075L13.0615 11ZM5.85375 11H7.9385L7.2615 3.25375C7.22817 2.99358 7.07658 2.81092 6.80675 2.70575C6.53692 2.60058 6.23725 2.6115 5.90775 2.7385L3.90775 3.5385C3.60775 3.66533 3.43175 3.86433 3.37975 4.1355C3.32792 4.40667 3.36542 4.7115 3.49225 5.05L5.85375 11ZM2.63075 11.9115L4.70375 10.8308L3.077 6.70775L1.127 10.3693C0.836 10.8961 0.885333 11.3512 1.275 11.7345C1.66467 12.1178 2.11658 12.1768 2.63075 11.9115ZM8.9385 11H12.0615L12.85 2.0885C12.8833 1.78467 12.8073 1.52725 12.622 1.31625C12.4368 1.10542 12.1795 1 11.85 1H9.15C8.90133 1 8.66508 1.09583 8.44125 1.2875C8.21758 1.47917 8.1205 1.7205 8.15 2.0115L8.9385 11ZM2.02925 13.0385C1.44942 13.0385 0.96625 12.8401 0.57975 12.4432C0.19325 12.0464 0 11.5666 0 11.0037C0 10.8171 0.02275 10.6342 0.06825 10.455C0.11375 10.276 0.178167 10.1013 0.2615 9.93075L2.577 5.5C2.3565 4.923 2.32958 4.35117 2.49625 3.7845C2.66292 3.21783 3.01158 2.82683 3.54225 2.6115L5.54225 1.8115C5.82692 1.68967 6.118 1.62817 6.4155 1.627C6.71283 1.62567 6.97817 1.71408 7.2115 1.89225C7.26533 1.37042 7.475 0.924583 7.8405 0.55475C8.20583 0.184917 8.65225 0 9.17975 0H11.85C12.3705 0 12.8167 0.175333 13.1885 0.525999C13.5603 0.876666 13.786 1.3065 13.8655 1.8155C14.0603 1.62817 14.3064 1.55342 14.6038 1.59125C14.9013 1.62908 15.1859 1.7025 15.4578 1.8115L17.4578 2.6115C17.9963 2.82683 18.3603 3.21467 18.55 3.775C18.7397 4.33533 18.7102 4.89367 18.4615 5.45L20.777 9.88075C20.8513 10.0256 20.9135 10.171 20.9635 10.317C21.0135 10.463 21.0385 10.615 21.0385 10.773C21.0385 11.3948 20.8228 11.9278 20.3913 12.372C19.9599 12.8163 19.4362 13.0385 18.82 13.0385C18.6695 13.0385 18.5261 13.0208 18.3898 12.9855C18.2534 12.9503 18.1171 12.8975 17.9807 12.827L16.3538 12H4.6345L3.11925 12.7885C2.95392 12.8795 2.77925 12.9439 2.59525 12.9818C2.41125 13.0196 2.22258 13.0385 2.02925 13.0385Z" fill="#7C6349"/>
</svg>
