<svg width="188" height="51" viewBox="0 0 188 51" fill="none" xmlns="http://www.w3.org/2000/svg">
<g clip-path="url(#clip0_895_223)">
<path d="M16.3206 45.3103H18.2454C18.4852 45.3103 18.708 45.339 18.9149 45.3968C19.1207 45.4543 19.2985 45.5398 19.4469 45.6515C19.5961 45.7639 19.713 45.9079 19.799 46.0824C19.8855 46.258 19.9283 46.4629 19.9283 46.6977C19.9283 47.0162 19.8394 47.2762 19.6623 47.4776C19.4845 47.6784 19.2553 47.8259 18.973 47.9202V47.9355C19.1402 47.9461 19.2964 47.9894 19.443 48.0649C19.5886 48.1405 19.7154 48.2405 19.8224 48.3629C19.9294 48.4852 20.0148 48.6281 20.0768 48.7902C20.1398 48.9523 20.171 49.1268 20.171 49.3148C20.171 49.5659 20.1196 49.7861 20.0183 49.9769C19.9166 50.1677 19.7767 50.3287 19.5996 50.4592C19.4225 50.5898 19.216 50.6887 18.9815 50.7572C18.747 50.8245 18.4937 50.8589 18.222 50.8589H16.3206V45.3107V45.3103ZM17.0719 47.6145H18.097C18.238 47.6145 18.3712 47.6 18.4958 47.5713C18.6209 47.5425 18.7303 47.4947 18.8246 47.4266C18.9181 47.3592 18.9925 47.2726 19.0474 47.1684C19.1023 47.0641 19.1292 46.9354 19.1292 46.7843C19.1292 46.5647 19.0591 46.3739 18.9181 46.2122C18.7771 46.0501 18.5561 45.9693 18.2532 45.9693H17.0715V47.6149L17.0719 47.6145ZM17.0719 50.2003H18.1753C18.2893 50.2003 18.4161 50.1886 18.5547 50.1652C18.6932 50.1418 18.8224 50.095 18.9418 50.0241C19.0623 49.9539 19.1639 49.8585 19.2475 49.7379C19.3311 49.6184 19.3726 49.4591 19.3726 49.2601C19.3726 48.931 19.2656 48.6842 19.0516 48.5196C18.8377 48.3551 18.5483 48.2731 18.1834 48.2731H17.0719V50.2003Z" fill="black"/>
<path d="M28.1927 48.4927L26.0953 45.3103H27.0578L28.5682 47.7475L30.1253 45.3103H31.0421L28.944 48.4927V50.8589H28.1927V48.4927Z" fill="black"/>
<path d="M47.6655 51.0001C47.2432 51.0001 46.8539 50.9252 46.5001 50.777C46.1451 50.6277 45.8405 50.4223 45.5879 50.1616C45.3347 49.9006 45.137 49.5921 44.9932 49.2367C44.8494 48.8813 44.7775 48.4972 44.7775 48.0851C44.7775 47.673 44.8494 47.2878 44.9932 46.9325C45.137 46.5778 45.3347 46.2693 45.5879 46.0086C45.8405 45.7468 46.1451 45.5415 46.5001 45.3932C46.8543 45.2439 47.2432 45.1702 47.6655 45.1702C48.0877 45.1702 48.477 45.2439 48.8319 45.3932C49.1869 45.5419 49.4904 45.7468 49.744 46.0086C49.9966 46.2696 50.195 46.5782 50.3388 46.9325C50.4815 47.2878 50.5535 47.6719 50.5535 48.0851C50.5535 48.4983 50.4815 48.8813 50.3388 49.2367C50.195 49.5921 49.9963 49.9006 49.744 50.1616C49.4908 50.4227 49.1869 50.6277 48.8319 50.777C48.477 50.9256 48.0888 51.0001 47.6655 51.0001ZM47.6655 50.2946C47.9836 50.2946 48.2712 50.2361 48.5262 50.1184C48.7823 50.0006 49.0016 49.8432 49.184 49.6442C49.3664 49.4452 49.5074 49.2122 49.6063 48.9423C49.7061 48.6731 49.7554 48.388 49.7554 48.0848C49.7554 47.7815 49.7058 47.4953 49.6063 47.2265C49.5074 46.9573 49.3664 46.7236 49.184 46.5246C49.0016 46.3267 48.7823 46.1682 48.5262 46.0515C48.2712 45.9337 47.9836 45.8752 47.6655 45.8752C47.3474 45.8752 47.0608 45.9337 46.8047 46.0515C46.5496 46.1685 46.3304 46.3267 46.148 46.5246C45.9645 46.7236 45.8235 46.9573 45.7247 47.2265C45.6258 47.4957 45.5762 47.7815 45.5762 48.0848C45.5762 48.388 45.6258 48.6731 45.7247 48.9423C45.8235 49.2122 45.9645 49.4452 46.148 49.6442C46.3304 49.8432 46.5496 50.0006 46.8047 50.1184C47.0608 50.2361 47.3474 50.2946 47.6655 50.2946Z" fill="black"/>
<path d="M57.2697 45.3103H59.1945C59.4343 45.3103 59.6571 45.339 59.864 45.3968C60.0698 45.4543 60.2476 45.5398 60.396 45.6515C60.5452 45.7639 60.6621 45.9079 60.7481 46.0824C60.8346 46.258 60.8774 46.4629 60.8774 46.6977C60.8774 47.0162 60.7885 47.2762 60.6114 47.4776C60.4336 47.6784 60.2044 47.8259 59.9221 47.9202V47.9355C60.0893 47.9461 60.2455 47.9894 60.3921 48.0649C60.5377 48.1405 60.6645 48.2405 60.7715 48.3629C60.8785 48.4852 60.9639 48.6281 61.0259 48.7902C61.0889 48.9523 61.1201 49.1268 61.1201 49.3148C61.1201 49.5659 61.0687 49.7861 60.9674 49.9769C60.8657 50.1677 60.7258 50.3287 60.5487 50.4592C60.3716 50.5898 60.1651 50.6887 59.9306 50.7572C59.6961 50.8245 59.4428 50.8589 59.1711 50.8589H57.2697V45.3107V45.3103ZM58.021 47.6145H59.0461C59.1871 47.6145 59.3203 47.6 59.4449 47.5713C59.57 47.5425 59.6794 47.4947 59.7737 47.4266C59.8672 47.3592 59.9416 47.2726 59.9965 47.1684C60.0514 47.0641 60.0783 46.9354 60.0783 46.7843C60.0783 46.5647 60.0082 46.3739 59.8672 46.2122C59.7262 46.0501 59.5052 45.9693 59.2023 45.9693H58.0206V47.6149L58.021 47.6145ZM58.021 50.2003H59.1244C59.2384 50.2003 59.3652 50.1886 59.5037 50.1652C59.6422 50.1418 59.7715 50.095 59.8909 50.0241C60.0114 49.9539 60.113 49.8585 60.1966 49.7379C60.2802 49.6184 60.3217 49.4591 60.3217 49.2601C60.3217 48.931 60.2147 48.6842 60.0007 48.5196C59.7868 48.3551 59.4974 48.2731 59.1325 48.2731H58.021V50.2003Z" fill="black"/>
<path d="M67.8354 45.3103H71.4117V46.0157H68.5864V47.6695H71.2158V48.3749H68.5864V50.1535H71.5527V50.8589H67.8351V45.3107L67.8354 45.3103Z" fill="black"/>
<path d="M78.2528 45.3103H80.201C80.556 45.3103 80.8482 45.3589 81.0781 45.4561C81.3073 45.5522 81.4887 45.6745 81.6218 45.8242C81.7547 45.9728 81.8475 46.1399 81.8996 46.3253C81.9516 46.5115 81.9778 46.6896 81.9778 46.8623C81.9778 47.035 81.9474 47.2113 81.8843 47.3751C81.8213 47.5397 81.7316 47.689 81.6137 47.8224C81.4968 47.9554 81.353 48.0681 81.1833 48.1589C81.0143 48.2508 80.8248 48.3075 80.6162 48.3281L82.1897 50.8589H81.2495L79.8415 48.4143H79.0041V50.8589H78.2528V45.3107V45.3103ZM79.0041 47.7557H79.9899C80.1362 47.7557 80.2811 47.744 80.4249 47.7206C80.5677 47.6972 80.6955 47.6539 80.8078 47.5911C80.9201 47.528 81.0101 47.4383 81.0785 47.3202C81.1458 47.2031 81.1801 47.0503 81.1801 46.8623C81.1801 46.6743 81.1461 46.5215 81.0785 46.4034C81.0101 46.2863 80.9205 46.1966 80.8078 46.1335C80.6955 46.0703 80.568 46.0274 80.4249 46.004C80.2811 45.9806 80.1366 45.9689 79.9899 45.9689H79.0041V47.7557Z" fill="black"/>
<path d="M91.2125 51.0001C90.7902 51.0001 90.4009 50.9252 90.0471 50.777C89.6921 50.6277 89.3875 50.4223 89.1349 50.1616C88.8817 49.9006 88.684 49.5921 88.5402 49.2367C88.3964 48.8813 88.3245 48.4972 88.3245 48.0851C88.3245 47.673 88.3964 47.2878 88.5402 46.9325C88.684 46.5778 88.8817 46.2693 89.1349 46.0086C89.3875 45.7468 89.6921 45.5415 90.0471 45.3932C90.4013 45.2439 90.7902 45.1702 91.2125 45.1702C91.6347 45.1702 92.024 45.2439 92.3789 45.3932C92.7338 45.5419 93.0374 45.7468 93.291 46.0086C93.5436 46.2696 93.742 46.5782 93.8858 46.9325C94.0285 47.2878 94.1004 47.6719 94.1004 48.0851C94.1004 48.4983 94.0285 48.8813 93.8858 49.2367C93.742 49.5921 93.5432 49.9006 93.291 50.1616C93.0378 50.4227 92.7338 50.6277 92.3789 50.777C92.024 50.9256 91.6358 51.0001 91.2125 51.0001ZM91.2125 50.2946C91.5305 50.2946 91.8182 50.2361 92.0732 50.1184C92.3293 50.0006 92.5486 49.8432 92.731 49.6442C92.9134 49.4452 93.0544 49.2122 93.1533 48.9423C93.2531 48.6731 93.3024 48.388 93.3024 48.0848C93.3024 47.7815 93.2528 47.4953 93.1533 47.2265C93.0544 46.9573 92.9134 46.7236 92.731 46.5246C92.5486 46.3267 92.3293 46.1682 92.0732 46.0515C91.8182 45.9337 91.5305 45.8752 91.2125 45.8752C90.8944 45.8752 90.6078 45.9337 90.3517 46.0515C90.0966 46.1685 89.8774 46.3267 89.695 46.5246C89.5115 46.7236 89.3705 46.9573 89.2717 47.2265C89.1728 47.4957 89.1232 47.7815 89.1232 48.0848C89.1232 48.388 89.1728 48.6731 89.2717 48.9423C89.3705 49.2122 89.5115 49.4452 89.695 49.6442C89.8774 49.8432 90.0966 50.0006 90.3517 50.1184C90.6078 50.2361 90.8944 50.2946 91.2125 50.2946Z" fill="black"/>
<path d="M100.817 45.3103H101.568V50.8586H100.817V45.3103Z" fill="black"/>
<path d="M116.439 45.3103H118.387C118.742 45.3103 119.034 45.3589 119.264 45.4561C119.493 45.5522 119.675 45.6745 119.808 45.8242C119.941 45.9728 120.034 46.1399 120.086 46.3253C120.138 46.5115 120.164 46.6896 120.164 46.8623C120.164 47.035 120.133 47.2113 120.07 47.3751C120.007 47.5397 119.918 47.689 119.8 47.8224C119.683 47.9554 119.539 48.0681 119.369 48.1589C119.2 48.2508 119.011 48.3075 118.802 48.3281L120.376 50.8589H119.436L118.028 48.4143H117.19V50.8589H116.439V45.3107V45.3103ZM117.19 47.7557H118.176C118.322 47.7557 118.467 47.744 118.611 47.7206C118.754 47.6972 118.882 47.6539 118.994 47.5911C119.106 47.528 119.196 47.4383 119.264 47.3202C119.332 47.2031 119.366 47.0503 119.366 46.8623C119.366 46.6743 119.332 46.5215 119.264 46.4034C119.196 46.2863 119.107 46.1966 118.994 46.1335C118.882 46.0703 118.754 46.0274 118.611 46.004C118.467 45.9806 118.323 45.9689 118.176 45.9689H117.19V47.7557Z" fill="black"/>
<path d="M126.856 45.3103H130.433V46.0157H127.607V47.6695H130.237V48.3749H127.607V50.1535H130.574V50.8589H126.856V45.3107L126.856 45.3103Z" fill="black"/>
<path d="M139.01 45.3103H139.691L142.063 50.8586H141.187L140.631 49.4875H137.993L137.445 50.8586H136.569L139.011 45.3103H139.01ZM140.356 48.8292L139.324 46.2821H139.307L138.259 48.8292H140.356Z" fill="black"/>
<path d="M148.418 45.3103H149.17V50.1535H151.712V50.8589H148.418V45.3107V45.3103Z" fill="black"/>
<path d="M158.554 46.0157H156.769V45.3103H161.09V46.0157H159.305V50.8589H158.554V46.0157Z" fill="black"/>
<path d="M168.83 48.4927L166.733 45.3103H167.695L169.206 47.7475L170.763 45.3103H171.68L169.581 48.4927V50.8589H168.83V48.4927Z" fill="black"/>
<path d="M56.5927 34.0253V0.0893555H58.82V34.0253H56.5927Z" fill="black"/>
<path d="M102.59 34.0253L90.1945 0.0893555H92.47L104.091 31.9406C105.398 23.3596 113.92 12.8879 113.92 0.0893555H116.389C116.389 12.4517 105.301 24.3775 104.527 33.1039L104.866 34.0249H102.59L102.59 34.0253Z" fill="black"/>
<path d="M121.037 34.0253V0.0893555H123.264V34.0253H121.037Z" fill="black"/>
<path d="M29.3252 22.0686L32.7584 13.2575L37.0031 2.36375L38.8358 7.07753L40.4482 11.2207C40.4497 11.2036 40.4521 11.187 40.4536 11.1699L43.7765 19.7729L49.3464 34.0863H51.776L38.5096 0.0283203H37.149L23.8829 34.0859H24.6119L27.6735 26.3011" fill="black"/>
<path d="M76.2754 18.496C75.986 18.1751 75.753 17.8048 75.6279 17.3888C75.5114 17.0012 75.494 16.5912 75.5535 16.1922C75.6818 15.335 76.0618 14.5597 76.6162 13.8993C77.5825 12.7484 78.868 11.9178 80.1414 11.1493C80.2197 11.1021 80.298 11.0549 80.3763 11.0081C82.0419 10.0105 83.7779 8.99366 84.8944 7.40443C86.0109 5.81485 86.3145 3.46736 85.0446 1.99801C84.1676 0.98297 82.7723 0.606322 81.4492 0.391399C76.5259 -0.408358 71.4888 0.311601 66.5081 0.0459607C66.5081 11.4018 66.5081 22.758 66.5081 34.1138C67.253 34.1138 67.9979 34.1138 68.7429 34.1138C68.7429 23.1013 68.7429 12.0891 68.7429 1.0766C72.3099 1.25287 75.9071 0.789681 79.4465 1.26883C80.4195 1.4004 81.4248 1.62242 82.186 2.24272C83.5866 3.38437 83.7088 5.58964 82.914 7.21327C82.3274 8.41166 81.3504 9.35896 80.303 10.1591C79.8822 10.4804 79.4358 10.7638 79.0093 11.0762C77.8744 11.9075 76.8553 12.907 76.0225 14.0426C75.2801 15.0548 74.6085 16.189 74.4214 17.4502C74.403 17.5718 74.3896 17.6913 74.3818 17.813C74.3155 18.7397 74.5617 19.6611 75.3049 20.4899L87.8908 34.5025L89.4459 33.0913C89.4459 33.0913 76.2769 18.4978 76.2754 18.496Z" fill="black"/>
<path d="M131.301 15.8454C131.302 15.8135 131.308 15.7798 131.311 15.7472V14.7098C131.308 14.7166 131.304 14.7237 131.301 14.7304V1.10758H148.442V0.0893555H129.073V34.0249H148.442V33.0067H131.301V15.8451V15.8454Z" fill="black"/>
<path d="M145.544 14.2512H130.5V15.278H145.544V14.2512Z" fill="black"/>
<path d="M6.29285 0.0620117V33.9962L8.51773 33.949V1.07988H25.6594V0.0620117H6.29285Z" fill="black"/>
<path d="M6.34593 15.8833C11.0663 15.8833 14.3167 18.6755 18.9599 18.6755C21.0494 18.6755 23.2162 18.0612 24.7638 16.2745L24.5318 16.1071C23.2162 17.559 21.4362 17.7264 20.0434 17.7264C15.4775 17.7264 12.6143 14.9346 7.42951 14.9346C3.55961 14.9342 -0.00460046 16.7962 4.45725e-06 19.5129C0.0772254 18.0609 2.55361 15.8833 6.34593 15.8833Z" fill="black"/>
<path d="M188 0.0892218H185.627C185.627 11.4046 179.756 21.4418 177.944 29.7224L177.641 31.3468L177.64 31.3439C177.64 31.3489 177.639 31.3539 177.638 31.3588L171.925 10.7549C171.927 10.7496 171.929 10.745 171.931 10.74L171.601 9.54869C171.596 9.56323 171.591 9.57707 171.586 9.59161L169.116 0.720161H169.155L168.98 0.0895765H166.792L170.327 12.7913C170.085 13.373 169.842 14.0032 169.552 14.6334C167.228 19.9665 164.274 25.3473 163.548 31.3106L154.348 0.0892218H152.121L162.095 34.0248H164.323L164.129 33.3946C164.323 26.7043 167.276 20.7896 169.891 15.0693C170.133 14.5845 170.327 14.0997 170.569 13.6149L176.282 34.0248H178.413L178.074 32.8612C178.897 24.1348 188 12.3058 188 0.0888672L188 0.0892218Z" fill="black"/>
</g>
<defs>
<clipPath id="clip0_895_223">
<rect width="188" height="51" fill="white"/>
</clipPath>
</defs>
</svg>
