<svg width="15" height="16" viewBox="0 0 15 16" fill="none" xmlns="http://www.w3.org/2000/svg">
<path d="M7.34863 0.5C8.01182 0.5 8.59159 0.731736 9.1084 1.2168C9.62288 1.69967 9.84313 2.22091 9.82617 2.80078L9.7998 3.68359L10.5703 3.25098C11.1065 2.94977 11.6864 2.88936 12.3447 3.08984C13.004 3.29066 13.4937 3.67701 13.8359 4.2627C14.1653 4.83565 14.2422 5.44043 14.0615 6.1084C13.8817 6.77187 13.5074 7.24542 12.9238 7.55957L12.1055 8L12.9238 8.44043C13.5055 8.75358 13.8832 9.23163 14.0674 9.90918C14.2524 10.5905 14.1758 11.2005 13.8477 11.7715C13.4915 12.3849 13.0052 12.7575 12.376 12.9219C11.7304 13.0904 11.1407 13.0174 10.5791 12.708L9.81055 12.2852L9.83789 13.1611C9.85465 13.7104 9.63842 14.2282 9.11621 14.7295C8.59866 15.2261 8.02006 15.4619 7.36035 15.4619C6.70064 15.4619 6.12205 15.2261 5.60449 14.7295C5.08244 14.2282 4.86617 13.7104 4.88281 13.1611L4.91016 12.2783L4.13867 12.71C3.59443 13.0151 3.0039 13.0879 2.33594 12.9111C1.68001 12.7374 1.18633 12.3629 0.833008 11.7676L0.831055 11.7656C0.494444 11.2036 0.412241 10.5975 0.595703 9.91309C0.778339 9.2319 1.15483 8.75296 1.73535 8.44043L2.55371 8L1.73633 7.55957C1.23402 7.28904 0.883621 6.89326 0.680664 6.34766L0.603516 6.10449C0.418633 5.42871 0.49541 4.82571 0.823242 4.2627C1.11314 3.76498 1.52689 3.40693 2.08496 3.18555L2.33398 3.09863C3.01745 2.8909 3.60139 2.95243 4.125 3.25L4.89746 3.68945L4.87207 2.80078C4.85499 2.22106 5.07435 1.69963 5.58887 1.2168C6.10563 0.73177 6.68552 0.500048 7.34863 0.5ZM7.3291 4.48047C6.36509 4.48059 5.52773 4.82981 4.84375 5.51367C4.15961 6.19781 3.81055 7.03567 3.81055 8C3.81055 8.96433 4.15961 9.80219 4.84375 10.4863C5.52773 11.1702 6.36509 11.5194 7.3291 11.5195C8.29332 11.5195 9.13134 11.1703 9.81543 10.4863C10.4996 9.80219 10.8486 8.96433 10.8486 8C10.8486 7.03567 10.4996 6.19781 9.81543 5.51367C9.13134 4.82969 8.29332 4.48047 7.3291 4.48047Z" stroke="#EADAD0"/>
</svg>
