<svg width="394" height="107" viewBox="0 0 394 107" fill="none" xmlns="http://www.w3.org/2000/svg">
<path d="M258.055 1.28967C259.354 1.19327 260.707 1.24404 262.015 1.26889C263.278 3.2261 263.597 5.36539 264.613 7.39093C269.215 16.5659 275.757 23.8821 282.946 31.1362C293.122 41.4023 299.394 51.6288 304.092 65.3726C303.79 56.8775 304.019 46.4461 304.066 37.9037L304.09 1.29095C305.212 1.21941 306.674 1.30273 307.823 1.33701C308.037 6.47648 308.018 70.5731 307.767 71.0557C307.155 71.3809 306.164 71.2532 305.438 71.2262C304.745 71.2078 304.617 71.2016 303.981 70.9398C301.994 65.0545 299.869 59.2154 296.489 53.9598C285.547 36.9498 267.957 26.4567 262.494 5.97395C261.97 8.85847 262.12 12.3618 262.124 15.3575L262.132 27.0357L262.152 71.1448C260.882 71.2982 259.341 71.2266 258.044 71.2041C257.809 68.0913 257.999 63.9866 257.999 60.7853L258.001 40.3354L257.909 16.1826C257.896 11.4487 257.815 5.99066 258.055 1.28967Z" fill="black"/>
<path d="M147.866 0.440535C151.327 0.254175 188.095 0.216259 188.935 0.66181C189.217 1.29479 189.185 1.44088 189.093 2.1392C188.373 2.7634 179.42 2.48322 177.638 2.48471C169.343 2.46265 161.048 2.48471 152.753 2.5509C153.291 11.629 152.831 22.4546 152.925 31.6919C162.483 34.0522 168.508 38.3942 178.602 37.1199C178.873 37.6042 178.948 37.7694 179.357 38.1429C170.025 41.0125 161.777 36.9254 152.794 34.3965C153.157 40.6959 152.827 48.5543 152.941 54.9627C152.999 58.2377 153.102 67.0519 152.735 70.0429C163.526 70.4927 174.719 70.0046 185.549 70.0997C186.71 70.1097 188.297 69.9227 189.063 70.8545C189.023 71.6788 189.142 71.4282 188.677 72.0192C187.624 72.5142 152.887 72.1299 148.002 72.2707C147.613 68.6371 147.949 63.7576 147.931 59.9829L147.902 33.0789C146.851 33.3162 146.304 33.3507 145.224 33.4147C144.376 33.5812 143.951 33.6007 143.104 33.6345L143.047 33.4023C143.402 33.0444 143.447 32.9563 143.686 32.5262C143.184 32.1128 143.284 32.2336 142.558 32.1209C144.634 31.4974 145.513 31.3689 147.675 31.4483C148.133 30.8665 147.834 23.8881 147.831 22.6268C147.799 15.2313 147.811 7.83583 147.866 0.440535Z" fill="black"/>
<path d="M142.558 32.1206C144.634 31.497 145.513 31.3685 147.675 31.448C147.252 33.4227 146.51 32.4316 145.224 33.4144C144.376 33.5808 143.951 33.6003 143.104 33.6342L143.047 33.402C143.402 33.044 143.447 32.956 143.686 32.5259C143.184 32.1124 143.284 32.2333 142.558 32.1206Z" fill="black"/>
<path d="M377.225 70.7336C361.08 74.3516 345.208 69.2873 338.061 53.3678C337.723 52.6151 337.443 51.8677 337.194 51.0809C334.639 42.8134 334.429 33.9973 336.591 25.6175C339.052 15.8547 345.504 8.142 354.706 4.06842C358.13 2.10349 360.581 1.82224 364.321 1.19097C373.625 -0.38011 382.228 2.0026 389.182 8.40419C391.383 10.4312 394.67 13.3956 389.722 14.6344C388.707 13.4359 387.69 12.1573 386.626 11.0188C379.899 3.81844 370.659 1.21004 361.198 3.30177C340.664 7.84275 337.674 29.7296 342.01 46.9998C345.919 62.5674 360.038 72.6625 375.984 69.1729C377.607 69.3738 379.019 68.6421 380.633 68.7496C380.644 68.7423 377.213 70.3056 377.082 70.3564L377.225 70.7336Z" fill="black"/>
<path d="M97.5497 3.13939C99.2569 3.60679 99.636 2.40444 100.938 2.72939L100.81 3.10897L99.4648 3.76958L100.532 3.8377C98.7246 4.64441 96.8786 5.21013 95.1147 6.18177C78.5468 15.3072 79.1776 40.7868 86.7696 55.1221C90.1584 61.5706 95.9715 66.4049 102.927 68.5585C112.586 71.5294 123.915 69.2071 131.168 62.1304C131.936 61.3815 132.786 59.739 133.639 59.2859L133.915 59.5164C134.193 61.172 131.285 63.7508 130.16 64.6646C115.843 76.5484 90.6794 73.7438 81.3771 56.9114C73.5443 42.7378 75.2603 20.125 87.9745 9.12884C90.8222 6.66588 94.3131 5.02291 97.5497 3.13939Z" fill="black"/>
<path d="M45.046 69.465C44.0708 69.8491 43.0147 70.2642 42.0113 70.5536C33.0444 73.1149 23.4275 71.9942 15.2888 67.4395C9.01076 63.9798 3.69092 56.92 1.77295 50.1604C-2.48569 35.1511 0.649653 16.4808 14.2104 7.1611C16.7274 5.43138 20.8611 3.1355 23.6715 2.32751L24.1486 2.9802C24.0668 3.27624 24.0604 3.35978 23.8917 3.6119L24.0401 3.81433C16.972 6.67357 10.9813 10.4775 8.06232 18.0182C1.68521 34.4927 5.58879 59.8484 23.45 67.562C31.4883 71.0429 36.3341 69.8857 44.1909 68.1766C44.4187 68.7303 44.5295 69.1707 45.046 69.465Z" fill="black"/>
<path d="M217.253 8.49924C218.37 5.52883 220.971 -5.40078 224.488 3.2955C225.9 6.78987 227.086 10.4147 228.473 13.9277L246.605 60.1228C248.119 64.0773 249.506 68.2704 251.004 72.1207C249.292 72.1981 247.937 72.2171 246.226 72.1674C245.359 70.541 244.289 67.9084 243.626 66.136C239.636 55.4989 235.488 44.9455 231.434 34.3335L224.115 15.6458C222.733 12.1753 221.219 8.97135 220.119 5.33004C219.353 6.99229 218.541 9.49102 217.919 10.7467C217.979 9.99226 217.662 9.12687 217.253 8.49924Z" fill="black"/>
<path d="M28.8453 1.25153C47.9383 -1.28987 63.3606 8.99448 65.948 28.829C67.291 39.1242 65.7243 50.1313 59.2689 58.4969C57.5201 60.7579 53.5359 65.2042 51.0775 66.2581C50.7492 66.1152 50.6713 66.1388 50.3209 66.1677L50.2132 66.1769L49.9546 65.4852C51.0655 64.122 53.4455 62.448 54.6637 60.868C66.344 45.719 62.5841 14.3968 44.3639 5.643C37.6685 2.42625 34.1466 2.59783 27.2153 2.97719C27.5584 2.61303 28.2571 2.76662 29.0666 2.22361C29.137 1.59169 29.1689 1.82711 28.8453 1.25153Z" fill="black"/>
<path d="M322.53 1.34082C323.072 1.35753 323.239 1.38238 323.765 1.50255C324.272 2.22357 323.789 64.375 324.08 71.202L321.691 71.2414C321.055 71.2609 320.418 71.3367 319.837 71.0831C319.287 70.3599 319.495 49.8828 319.495 47.0698L319.508 1.43164L322.53 1.34082Z" fill="black"/>
<path d="M217.253 8.49902C217.662 9.12665 217.979 9.99205 217.919 10.7465C217.161 14.105 215.029 17.5893 213.889 20.8348C211.772 26.8649 209.402 32.7055 207.011 38.6093C204.083 45.8347 201.769 53.236 198.487 60.3533C196.951 63.6827 195.936 67.7807 194.506 71.2078C194.197 71.9755 194.113 71.9659 193.429 72.2201L193.079 71.9905C192.736 70.5292 195.026 65.4707 195.667 63.8103L201.02 50.2534C205.158 39.9474 208.961 29.2519 213.094 18.9134C214.492 15.4164 216.008 12.0497 217.253 8.49902Z" fill="black"/>
<path d="M105.852 1.22665C115.164 0.0362992 121.753 1.37616 129.311 7.20903C130.588 8.19438 134.802 11.5643 133.344 13.4624C133.094 13.788 132.095 14.6849 131.762 14.9912C130.168 13.4712 128.873 11.7252 127.281 10.2159C120.169 3.47497 114.198 2.22571 104.779 2.94009C105.33 2.60143 105.227 2.77537 105.408 2.24049L105.591 2.37651L105.639 2.28419C105.308 2.11625 105.059 1.94853 104.751 1.74696C105.041 1.65099 105.336 1.68591 105.646 1.69384L105.852 1.22665Z" fill="black"/>
<path d="M119.965 97.2317C121.571 97.1632 122.588 97.61 123.88 98.4628C124.481 99.8146 124.818 100.554 125.2 102.005C124.695 104.685 124.08 106.175 121.261 106.868C115.601 106.958 114.525 102.489 117.054 98.1871C118.34 97.5725 118.545 97.4793 119.965 97.2317ZM121.685 105.533C125.501 103.184 124.192 97.9393 118.995 98.5247C117.956 99.3854 117.047 100.407 116.911 101.818C116.819 102.699 117.092 103.578 117.665 104.252C118.835 105.642 120.03 105.658 121.685 105.533Z" fill="black"/>
<path d="M69.5632 97.4536C71.0555 97.4763 72.5729 97.4142 73.8961 98.141C75.0802 99.6846 73.0406 101.152 73.5806 101.997C74.7827 103.878 75.7311 104.07 73.6932 106.033C73.2567 106.916 69.6802 106.674 68.7279 106.667C68.3341 104.794 67.9835 99.9646 68.6021 98.0326C68.7262 97.6449 69.1376 97.6053 69.5632 97.4536ZM69.9409 105.567C70.9268 105.552 72.3179 105.59 73.2311 105.336C73.6463 102.04 72.7634 102.254 69.8703 102.135L69.9409 105.567ZM69.8757 101.394L72.9462 101.189C73.0975 100.508 73.2745 99.9628 73.1142 99.2787C72.5617 98.6315 72.42 98.636 71.4919 98.5632C70.96 98.5234 70.4275 98.4887 69.8947 98.4591C69.8896 99.414 69.9052 100.447 69.8757 101.394Z" fill="black"/>
<path d="M136.712 97.5246C139.562 97.4049 141.24 96.816 142.363 99.8995C142.066 100.379 141.776 100.863 141.493 101.351C141.524 102.388 141.835 102.533 142.564 103.49C142.739 104.273 142.549 104.616 142.27 105.356C140.558 106.918 138.788 106.667 136.538 106.715C136.523 105.114 136.264 98.5393 136.712 97.5246ZM137.503 102.169C137.523 103.294 137.527 104.42 137.515 105.546C139.154 105.552 139.87 105.713 141.223 104.805C141.468 103.638 141.252 103.546 140.521 102.381C139.517 102.29 138.51 102.22 137.503 102.169ZM137.524 101.334L140.507 101.272C140.861 100.574 140.686 99.5217 140.629 98.7049L137.759 98.571C137.399 99.1466 137.515 100.576 137.524 101.334Z" fill="black"/>
<path d="M172.069 97.4676C173.035 97.444 174.391 97.3227 175.266 97.6946C178.268 98.9704 177.869 101.528 174.938 102.462C175.263 102.972 175.582 103.486 175.895 104.004C176.359 104.781 176.994 105.88 176.771 106.769L176.476 106.625L176.756 106.487L176.323 106.516C175.932 106.252 175.462 105.494 175.171 105.079C174.761 104.29 173.794 102.48 173.094 102.015L172.702 102.131C171.965 103.096 172.361 105.718 171.904 106.695L171.534 106.787C171.019 106.139 170.862 98.5319 171.314 97.6693L172.069 97.4676ZM172.23 101.412C173.346 101.462 174.105 101.57 175.162 101.222L175.295 101.18C175.383 101.151 175.447 101.127 175.531 101.092C175.745 100.325 175.812 100.153 175.641 99.3879C174.783 98.3274 173.488 98.551 172.181 98.5191L172.23 101.412Z" fill="black"/>
<path d="M271.757 97.2681C272.133 97.3518 272.606 97.5163 272.786 97.8623C273.664 99.5427 276.62 104.957 276.247 106.616L275.898 106.761C274.511 106.039 275.47 104.006 272.829 104.22C271.705 104.245 271.309 104.205 270.198 104.016C269.742 105.171 269.494 105.939 268.525 106.765L268.216 106.678C268.332 104.636 270.74 99.257 271.757 97.2681ZM272.889 103.203L273.377 103.173C273.831 102.444 272.527 99.7754 272.035 99.2758C271.624 100.256 270.678 101.99 270.898 102.9C271.502 103.429 271.941 103.259 272.889 103.203Z" fill="black"/>
<path d="M188.76 99.0841C190.508 96.7925 193.337 96.6464 195.634 98.2995C196.115 98.6454 196.781 99.8088 197.096 100.354C197.19 102.376 197.334 103.826 195.873 105.455C194.172 107.351 191.095 107.336 189.286 105.631C187.895 104.319 187.775 102.863 187.898 101.073C188.467 101.102 188.598 101.118 189.151 100.98L189.304 101.047C189.257 101.286 189.22 101.528 189.195 101.77C188.685 107 195.872 106.613 196.111 102.384C196.214 100.569 194.503 98.1514 192.51 98.4121C190.698 98.6491 191.062 98.5019 189.751 99.7901L189.534 99.2476L188.76 99.0841Z" fill="black"/>
<path d="M375.984 69.1728C380.475 67.7753 383.861 67.2469 387.768 63.9367C389.786 62.2282 391.426 59.7237 393.772 58.6445C390.751 64.1107 383.54 68.9918 377.692 70.6269C377.538 70.6688 377.382 70.7044 377.226 70.7335L377.082 70.3563C377.213 70.3056 380.644 68.7423 380.633 68.7495C379.02 68.642 377.607 69.3737 375.984 69.1728Z" fill="black"/>
<path d="M251.857 97.6295C253.449 97.5807 255.821 97.4408 257.298 97.8851L257.385 98.1175C255.983 98.9493 254.344 98.7085 252.717 98.6535L252.747 101.218C253.961 101.274 255.928 101.256 256.925 101.855L256.767 102.079L256.758 101.75L256.561 101.671L256.302 102.189C255.433 102.323 253.727 102.255 252.835 102.216C252.666 103.063 252.736 104.622 252.749 105.542C253.742 105.536 257.047 105.337 257.679 106.114C256.715 106.804 253.119 106.689 251.844 106.698L251.857 97.6295Z" fill="black"/>
<path d="M239.894 98.0604C240.937 100.167 240.742 101.71 238.283 102.462C238.833 103.362 240.16 105.415 240.496 106.302L240.38 106.6C239.706 106.645 239.944 106.671 239.316 106.309C238.584 105.073 237.426 102.722 236.183 102.167C235.605 102.218 235.789 102.123 235.429 102.47C235.363 103.499 235.307 105.865 234.95 106.708C234.214 106.213 234.494 100.416 234.507 99.2739L235.228 99.4695C235.252 99.9866 235.222 101.061 235.652 101.352C236.776 102.109 238.233 101.67 238.955 100.588C239.289 100.086 238.929 99.2013 238.79 98.6553C239.186 98.5572 239.541 98.2868 239.894 98.0604Z" fill="black"/>
<path d="M301.129 97.725C303.227 97.5421 305.86 97.5003 307.883 98.0195L307.945 98.1903C307.367 98.7676 306.384 98.6508 305.507 98.6932C305.47 100.722 305.453 102.498 305.554 104.522C305.601 105.921 305.562 105.854 304.901 106.85L304.34 106.663C303.826 105.373 304.045 100.4 304.075 98.6834C302.996 98.6714 301.376 98.9267 301.129 97.725Z" fill="black"/>
<path d="M85.395 97.1182C86.9556 97.7079 87.6188 99.9615 88.5783 101.618C89.7001 100.108 90.5516 98.2363 92.2993 97.2728C92.5179 98.5381 91.0865 100.148 90.3528 101.073L89.1712 102.655C89.2027 103.837 89.4343 105.89 88.7451 106.742L88.4133 106.579C87.9124 105.312 88.1977 103.139 87.8266 102.3C86.8448 100.083 85.5275 99.8677 85.395 97.1182Z" fill="black"/>
<path d="M318.275 97.3461C319.759 97.5408 320.942 100.403 321.612 101.652C322.982 99.8816 322.903 97.8297 325.148 97.4958L325.292 97.6922C325.091 98.7699 323.783 100.422 323.119 101.332L322.092 102.843C322.186 104.079 322.411 105.579 321.76 106.657L321.488 106.423C321.06 105.384 321.167 103.816 321.169 102.654C320.009 101.363 318.47 99.1043 318.275 97.3461Z" fill="black"/>
<path d="M287.536 97.0859C287.812 97.2095 288.015 97.4073 288.248 97.6028C288.828 99.2304 288.537 103.563 288.467 105.497C289.659 105.515 292.054 105.354 292.861 106.091L292.692 106.511C291.483 106.674 288.544 106.664 287.202 106.693C287.191 104.559 287.086 98.8684 287.536 97.0859Z" fill="black"/>
<path d="M153.885 97.6191C155.276 97.5889 158.505 97.3856 159.63 98.1034C158.946 98.8249 155.773 98.6396 154.732 98.607L154.728 101.335C155.995 101.344 157.932 101.248 159.008 101.821L158.808 102.059C157.63 102.419 155.967 102.316 154.701 102.304C154.745 103.329 154.677 103.912 154.564 104.933C154.268 105.578 154.158 105.931 154.492 106.651L154.268 106.68C153.75 106.179 153.93 98.9209 153.885 97.6191Z" fill="black"/>
<path d="M132.503 39.6497C132.706 39.2787 132.917 38.9122 133.136 38.551C135.176 35.216 138.809 33.0146 142.557 32.1216C143.283 32.2343 143.183 32.1134 143.685 32.5269C143.447 32.957 143.402 33.045 143.047 33.403L143.103 33.6352C142.831 33.7517 142.043 33.9117 141.718 33.9848C137.728 34.8799 135.399 37.0173 132.503 39.6497Z" fill="black"/>
<path d="M208.833 97.0852C210.134 97.8529 209.798 105.749 209.404 107L208.861 106.803C208.304 105.859 208.52 98.3315 208.833 97.0852Z" fill="black"/>
<path d="M97.5498 3.13974C100.201 2.07342 103.002 1.4278 105.852 1.22644L105.646 1.69363C105.335 1.6857 105.041 1.65079 104.751 1.74675C105.058 1.94832 105.307 2.11604 105.639 2.28398L105.59 2.3763L105.407 2.24028C105.226 2.77516 105.329 2.60122 104.779 2.93988C102.877 3.21407 102.375 3.3623 100.533 3.83806L99.4649 3.76994L100.81 3.10932L100.938 2.72975C99.6361 2.40479 99.257 3.60714 97.5498 3.13974Z" fill="black"/>
<path d="M44.1904 68.1763C45.7448 67.7492 48.5356 66.275 49.9541 65.4855L50.2126 66.1771L50.3203 66.1679C50.6707 66.139 50.7486 66.1155 51.077 66.2583C49.4842 67.3752 46.8543 68.5943 45.0456 69.4648C44.5291 69.1705 44.4182 68.7301 44.1904 68.1763Z" fill="black"/>
<path d="M23.6719 2.32737C24.8474 1.81305 27.5545 1.39963 28.8456 1.25183C29.1692 1.82741 29.1374 1.59199 29.0669 2.2239C28.2574 2.76692 27.5588 2.61333 27.2156 2.97748L24.0405 3.81418L23.8921 3.61175C24.0608 3.35963 24.0672 3.27609 24.149 2.98006L23.6719 2.32737Z" fill="black"/>
<path d="M154.493 106.651C154.158 105.931 154.269 105.578 154.565 104.932L154.825 105.418C156.335 105.838 158.925 105.121 159.892 105.791L160.053 106.22C159.219 106.871 155.8 106.652 154.493 106.651Z" fill="black"/>
<path d="M178.602 37.1202C181.826 36.2835 181.783 35.3568 184.262 34.4396L184.401 34.5396C183.374 36.2134 181.084 37.3322 179.357 38.1432C178.948 37.7696 178.873 37.6045 178.602 37.1202Z" fill="black"/>
<path d="M234.508 99.2741C234.487 99.031 234.414 98.3423 234.506 98.1688C235.257 96.7463 238.937 97.6496 239.896 98.0606C239.542 98.2871 239.187 98.5574 238.791 98.6555C237.89 98.5902 236.122 98.3239 235.405 98.7183C235.291 99.0209 235.21 99.1542 235.229 99.4697L234.508 99.2741Z" fill="black"/>
<path d="M187.898 101.073C188.13 100.142 188.284 99.9011 188.76 99.0841L189.533 99.2475L189.751 99.7901L189.304 101.047L189.15 100.98C188.597 101.118 188.467 101.102 187.898 101.073Z" fill="black"/>
</svg>
