<svg width="16" height="16" viewBox="0 0 16 16" fill="none" xmlns="http://www.w3.org/2000/svg">
<path d="M5.74837 10.0016C5.16612 9.4195 4.875 8.71062 4.875 7.875C4.875 7.03937 5.16612 6.3305 5.74837 5.74838C6.3305 5.16613 7.03937 4.875 7.875 4.875C8.71062 4.875 9.4195 5.16613 10.0016 5.74838C10.5839 6.3305 10.875 7.03937 10.875 7.875C10.875 8.71062 10.5839 9.4195 10.0016 10.0016C9.4195 10.5839 8.71062 10.875 7.875 10.875C7.03937 10.875 6.3305 10.5839 5.74837 10.0016ZM2.625 8.25H0V7.5H2.625V8.25ZM15.75 8.25H13.125V7.5H15.75V8.25ZM7.5 2.625V0H8.25V2.625H7.5ZM7.5 15.75V13.125H8.25V15.75H7.5ZM3.93469 4.42781L2.31488 2.85431L2.83556 2.29613L4.41919 3.89719L3.93469 4.42781ZM12.9144 13.4539L11.3265 11.8485L11.8153 11.3222L13.4351 12.8957L12.9144 13.4539ZM11.3222 3.93469L12.8957 2.31488L13.4539 2.83556L11.8528 4.41919L11.3222 3.93469ZM2.29613 12.9144L3.9015 11.3265L4.39913 11.8153L2.83988 13.4496L2.29613 12.9144Z" fill="#EADAD0"/>
</svg>
