<svg width="18" height="18" viewBox="0 0 18 18" fill="none" xmlns="http://www.w3.org/2000/svg">
<mask id="mask0_1345_1048" style="mask-type:alpha" maskUnits="userSpaceOnUse" x="0" y="0" width="18" height="18">
<rect width="18" height="18" fill="#FFF"/>
</mask>
<g mask="url(#mask0_1345_1048)">
<path d="M10.5938 10.5938C11.0312 10.1562 11.25 9.625 11.25 9C11.25 8.375 11.0312 7.84375 10.5938 7.40625C10.1562 6.96875 9.625 6.75 9 6.75C8.375 6.75 7.84375 6.96875 7.40625 7.40625C6.96875 7.84375 6.75 8.375 6.75 9C6.75 9.625 6.96875 10.1562 7.40625 10.5938C7.84375 11.0312 8.375 11.25 9 11.25C9.625 11.25 10.1562 11.0312 10.5938 10.5938ZM6.87337 11.1266C6.29112 10.5445 6 9.83562 6 9C6 8.16437 6.29112 7.4555 6.87337 6.87338C7.4555 6.29113 8.16437 6 9 6C9.83562 6 10.5445 6.29113 11.1266 6.87338C11.7089 7.4555 12 8.16437 12 9C12 9.83562 11.7089 10.5445 11.1266 11.1266C10.5445 11.7089 9.83562 12 9 12C8.16437 12 7.4555 11.7089 6.87337 11.1266ZM3.75 9.375H1.125V8.625H3.75V9.375ZM16.875 9.375H14.25V8.625H16.875V9.375ZM8.625 3.75V1.125H9.375V3.75H8.625ZM8.625 16.875V14.25H9.375V16.875H8.625ZM5.05969 5.55281L3.43988 3.97931L3.96056 3.42113L5.54419 5.02219L5.05969 5.55281ZM14.0394 14.5789L12.4515 12.9735L12.9403 12.4472L14.5601 14.0207L14.0394 14.5789ZM12.4472 5.05969L14.0207 3.43988L14.5789 3.96056L12.9778 5.54419L12.4472 5.05969ZM3.42113 14.0394L5.0265 12.4515L5.52413 12.9403L3.96488 14.5746L3.42113 14.0394Z" fill="#FFF"/>
</g>
</svg>
