<svg width="15" height="15" viewBox="0 0 15 15" fill="none" xmlns="http://www.w3.org/2000/svg">
<path d="M0 7.70194V6.95194H2.25V7.70194H0ZM3.46444 3.99525L1.86056 2.39569L2.39569 1.86488L3.98081 3.46444L3.46444 3.99525ZM2.38481 11.2281C2.26606 11.1077 2.20669 10.9604 2.20669 10.7861C2.20669 10.6118 2.26687 10.4652 2.38725 10.3464C2.50762 10.2277 2.655 10.1683 2.82937 10.1683C3.00375 10.1683 3.15031 10.2285 3.26906 10.3489C3.38781 10.4693 3.44719 10.6166 3.44719 10.791C3.44719 10.9653 3.387 11.1118 3.26662 11.2305C3.14625 11.3493 2.99887 11.4086 2.8245 11.4086C2.65012 11.4086 2.50356 11.3484 2.38481 11.2281ZM4.32694 7.70194V7.32694C4.32694 6.49131 4.61806 5.78244 5.20031 5.20031C5.78244 4.61806 6.49131 4.32694 7.32694 4.32694C8.16256 4.32694 8.87144 4.61806 9.45356 5.20031C10.0358 5.78244 10.3269 6.49131 10.3269 7.32694V7.70194H9.57694V7.32694C9.57694 6.70194 9.35819 6.17069 8.92069 5.73319C8.48319 5.29569 7.95194 5.07694 7.32694 5.07694C6.70194 5.07694 6.17069 5.29569 5.73319 5.73319C5.29569 6.17069 5.07694 6.70194 5.07694 7.32694V7.70194H4.32694ZM4.63481 14.2281C4.51606 14.1077 4.45669 13.9604 4.45669 13.7861C4.45669 13.6118 4.51687 13.4652 4.63725 13.3464C4.75762 13.2277 4.905 13.1683 5.07937 13.1683C5.25375 13.1683 5.40031 13.2285 5.51906 13.3489C5.63781 13.4692 5.69719 13.6166 5.69719 13.791C5.69719 13.9653 5.637 14.1118 5.51662 14.2305C5.39625 14.3493 5.24887 14.4086 5.0745 14.4086C4.90012 14.4086 4.75356 14.3484 4.63481 14.2281ZM6.88481 11.2281C6.76606 11.1077 6.70669 10.9604 6.70669 10.7861C6.70669 10.6118 6.76687 10.4652 6.88725 10.3464C7.00762 10.2277 7.155 10.1683 7.32937 10.1683C7.50375 10.1683 7.65031 10.2285 7.76906 10.3489C7.88781 10.4693 7.94719 10.6166 7.94719 10.791C7.94719 10.9653 7.887 11.1118 7.76662 11.2305C7.64625 11.3493 7.49887 11.4086 7.3245 11.4086C7.15012 11.4086 7.00356 11.3484 6.88481 11.2281ZM6.95194 2.25V0H7.70194V2.25H6.95194ZM9.13481 14.2281C9.01606 14.1077 8.95669 13.9604 8.95669 13.7861C8.95669 13.6118 9.01687 13.4652 9.13725 13.3464C9.25762 13.2277 9.405 13.1683 9.57937 13.1683C9.75375 13.1683 9.90031 13.2285 10.0191 13.3489C10.1378 13.4692 10.1972 13.6166 10.1972 13.791C10.1972 13.9653 10.137 14.1118 10.0166 14.2305C9.89625 14.3493 9.74887 14.4086 9.5745 14.4086C9.40012 14.4086 9.25356 14.3484 9.13481 14.2281ZM11.1894 3.99525L10.6543 3.46444L12.2582 1.86488L12.7746 2.39569L11.1894 3.99525ZM11.3848 11.2281C11.2661 11.1077 11.2067 10.9604 11.2067 10.7861C11.2067 10.6118 11.2669 10.4652 11.3872 10.3464C11.5076 10.2277 11.655 10.1683 11.8294 10.1683C12.0037 10.1683 12.1503 10.2285 12.2691 10.3489C12.3878 10.4693 12.4472 10.6166 12.4472 10.791C12.4472 10.9653 12.387 11.1118 12.2666 11.2305C12.1462 11.3493 11.9989 11.4086 11.8245 11.4086C11.6501 11.4086 11.5036 11.3484 11.3848 11.2281ZM12.4039 7.70194V6.95194H14.6539V7.70194H12.4039Z" fill="#FFF"/>
</svg>
