<svg width="18" height="18" viewBox="0 0 18 18" fill="none" xmlns="http://www.w3.org/2000/svg">
<mask id="mask0_1345_1053" style="mask-type:alpha" maskUnits="userSpaceOnUse" x="0" y="0" width="18" height="18">
<rect width="18" height="18" fill="#D9D9D9"/>
</mask>
<g mask="url(#mask0_1345_1053)">
<path d="M1.67285 9.93729V9.18729H3.92285V9.93729H1.67285ZM5.13729 6.2306L3.53341 4.63104L4.06854 4.10023L5.65366 5.69979L5.13729 6.2306ZM4.05766 13.4634C3.93891 13.343 3.87954 13.1957 3.87954 13.0215C3.87954 12.8471 3.93973 12.7005 4.0601 12.5818C4.18048 12.463 4.32785 12.4037 4.50223 12.4037C4.6766 12.4037 4.82316 12.4639 4.94191 12.5842C5.06066 12.7046 5.12004 12.852 5.12004 13.0264C5.12004 13.2006 5.05985 13.3471 4.93948 13.4659C4.8191 13.5846 4.67173 13.644 4.49735 13.644C4.32298 13.644 4.17641 13.5838 4.05766 13.4634ZM5.99979 9.93729V9.56229C5.99979 8.72666 6.29091 8.01779 6.87316 7.43567C7.45529 6.85342 8.16416 6.56229 8.99979 6.56229C9.83541 6.56229 10.5443 6.85342 11.1264 7.43567C11.7087 8.01779 11.9998 8.72666 11.9998 9.56229V9.93729H5.99979ZM6.30766 16.4634C6.18891 16.343 6.12954 16.1957 6.12954 16.0215C6.12954 15.8471 6.18973 15.7005 6.3101 15.5818C6.43048 15.463 6.57785 15.4037 6.75223 15.4037C6.9266 15.4037 7.07316 15.4639 7.19191 15.5842C7.31066 15.7046 7.37004 15.852 7.37004 16.0264C7.37004 16.2006 7.30985 16.3471 7.18948 16.4659C7.0691 16.5846 6.92173 16.644 6.74735 16.644C6.57298 16.644 6.42641 16.5838 6.30766 16.4634ZM8.55766 13.4634C8.43891 13.343 8.37954 13.1957 8.37954 13.0215C8.37954 12.8471 8.43973 12.7005 8.5601 12.5818C8.68048 12.463 8.82785 12.4037 9.00223 12.4037C9.1766 12.4037 9.32316 12.4639 9.44191 12.5842C9.56066 12.7046 9.62004 12.852 9.62004 13.0264C9.62004 13.2006 9.55985 13.3471 9.43948 13.4659C9.3191 13.5846 9.17173 13.644 8.99735 13.644C8.82298 13.644 8.67641 13.5838 8.55766 13.4634ZM8.62479 4.48535V2.23535H9.37479V4.48535H8.62479ZM10.8077 16.4634C10.6889 16.343 10.6295 16.1957 10.6295 16.0215C10.6295 15.8471 10.6897 15.7005 10.8101 15.5818C10.9305 15.463 11.0779 15.4037 11.2522 15.4037C11.4266 15.4037 11.5732 15.4639 11.6919 15.5842C11.8107 15.7046 11.87 15.852 11.87 16.0264C11.87 16.2006 11.8099 16.3471 11.6895 16.4659C11.5691 16.5846 11.4217 16.644 11.2474 16.644C11.073 16.644 10.9264 16.5838 10.8077 16.4634ZM12.8623 6.2306L12.3272 5.69979L13.931 4.10023L14.4474 4.63104L12.8623 6.2306ZM13.0577 13.4634C12.9389 13.343 12.8795 13.1957 12.8795 13.0215C12.8795 12.8471 12.9397 12.7005 13.0601 12.5818C13.1805 12.463 13.3279 12.4037 13.5022 12.4037C13.6766 12.4037 13.8232 12.4639 13.9419 12.5842C14.0607 12.7046 14.12 12.852 14.12 13.0264C14.12 13.2006 14.0599 13.3471 13.9395 13.4659C13.8191 13.5846 13.6717 13.644 13.4974 13.644C13.323 13.644 13.1764 13.5838 13.0577 13.4634ZM14.0767 9.93729V9.18729H16.3267V9.93729H14.0767Z" fill="#7C6349"/>
</g>
</svg>
