<svg width="18" height="18" viewBox="0 0 18 18" fill="none" xmlns="http://www.w3.org/2000/svg">
<path d="M16.554 17.2618L13.5483 14.256C13.2726 14.4328 12.9848 14.5883 12.6848 14.7223C12.3848 14.8563 12.0745 14.9752 11.754 15.079V14.029C11.9488 13.9585 12.1363 13.8847 12.3165 13.8077C12.4965 13.7309 12.6673 13.6406 12.829 13.5368L8.98475 9.6925V13.1617L5.40775 9.58475H1.98475V5.58475H4.877L0 0.70775L0.70775 0L17.2615 16.554L16.554 17.2618ZM15.777 12.2503L15.077 11.5503C15.4885 10.9823 15.8068 10.3604 16.0318 9.68475C16.2568 9.00908 16.3693 8.30075 16.3693 7.55975C16.3693 6.09558 15.9462 4.7725 15.1 3.5905C14.2538 2.4085 13.1385 1.57517 11.754 1.0905V0.0404999C13.4232 0.571333 14.7763 1.52425 15.8135 2.89925C16.8507 4.27425 17.3693 5.82775 17.3693 7.55975C17.3693 8.43025 17.2292 9.26425 16.949 10.0618C16.669 10.8591 16.2783 11.5886 15.777 12.2503ZM13.004 9.477L11.754 8.227V4.227C12.3193 4.59367 12.7491 5.07642 13.0433 5.67525C13.3376 6.27392 13.4848 6.91042 13.4848 7.58475C13.4848 7.92442 13.4447 8.25358 13.3645 8.57225C13.2843 8.89092 13.1642 9.1925 13.004 9.477ZM8.98475 5.45775L7.26925 3.72325L8.98475 2.00775V5.45775ZM7.98475 10.7348V8.6925L5.877 6.58475H2.98475V8.58475H5.83475L7.98475 10.7348Z" fill="#7C6349"/>
</svg>
