<svg width="17" height="17" viewBox="0 0 17 17" fill="none" xmlns="http://www.w3.org/2000/svg">
<path d="M10.7061 16.4512C10.5124 16.5092 10.3154 16.5639 10.1143 16.6104C10.3155 16.5639 10.5123 16.5093 10.7061 16.4512ZM10.6143 0C12.2188 0.491855 13.5412 1.4071 14.5938 2.75195C15.7774 4.26439 16.3691 6.00032 16.3691 7.97949C16.3691 9.95866 15.7773 11.6946 14.5938 13.207C13.5413 14.5518 12.2187 15.4661 10.6143 15.958V14.9512C12.0032 14.4668 13.1412 13.6199 14.0166 12.416C14.965 11.1116 15.4395 9.62735 15.4395 7.97949C15.4395 6.33163 14.965 4.84742 14.0166 3.54297C13.1412 2.33896 12.0033 1.49118 10.6143 1.00684V0ZM7.68457 14.6689L3.7168 10.6133L3.57031 10.4629H0V5.54492H3.57031L3.7168 5.39453L7.68457 1.33887V14.6689ZM5.89746 4.54785L3.96973 6.51758H0.929688V9.49023H3.96973L5.89746 11.4609L6.75488 12.3369V3.6709L5.89746 4.54785ZM14.0498 11.4424C14.0318 11.4741 14.0136 11.5056 13.9951 11.5371C14.0136 11.5056 14.0318 11.4741 14.0498 11.4424ZM14.2979 10.9629C14.282 10.9969 14.2655 11.0307 14.249 11.0645C14.2655 11.0307 14.282 10.9969 14.2979 10.9629ZM10.6143 4.90918C10.948 5.17749 11.2289 5.50336 11.457 5.89062C11.837 6.53552 12.0273 7.23672 12.0273 8.00391C12.0273 8.7528 11.8376 9.44106 11.458 10.0781C11.2298 10.461 10.949 10.7847 10.6143 11.0518V4.90918ZM14.4043 10.7207C14.383 10.7714 14.3614 10.8219 14.3389 10.8721C14.3614 10.8219 14.383 10.7714 14.4043 10.7207ZM14.4912 10.5029C14.4796 10.5336 14.4681 10.5643 14.4561 10.5947C14.4681 10.5643 14.4796 10.5336 14.4912 10.5029ZM14.5811 10.249C14.5725 10.2747 14.5645 10.3006 14.5557 10.3262C14.5645 10.3006 14.5725 10.2747 14.5811 10.249ZM14.6611 9.99219C14.6503 10.0297 14.6394 10.0672 14.6279 10.1045C14.6394 10.0672 14.6503 10.0297 14.6611 9.99219ZM14.7305 9.73242C14.7203 9.77378 14.7112 9.81536 14.7002 9.85645C14.7112 9.81536 14.7203 9.77379 14.7305 9.73242ZM14.792 9.46191C14.7824 9.50867 14.7722 9.55516 14.7617 9.60156C14.7722 9.55516 14.7824 9.50867 14.792 9.46191ZM14.8525 9.12793C14.841 9.20259 14.8283 9.27678 14.8145 9.35059C14.8283 9.27678 14.841 9.20259 14.8525 9.12793ZM14.8848 8.88867C14.8766 8.95638 14.8684 9.0238 14.8584 9.09082C14.8684 9.02381 14.8767 8.95637 14.8848 8.88867ZM16.8691 7.97949C16.8691 8.10999 16.8672 8.23956 16.8623 8.36816H16.8613C16.8662 8.23955 16.8691 8.11 16.8691 7.97949ZM12.4873 8.62109C12.4816 8.66469 12.4728 8.70774 12.4658 8.75098C12.4748 8.6952 12.4843 8.63938 12.4912 8.58301L12.4873 8.62109ZM14.8936 7.14648C14.8958 7.16698 14.8983 7.18745 14.9004 7.20801C14.8983 7.18745 14.8958 7.16698 14.8936 7.14648ZM14.8613 6.89062C14.8675 6.93278 14.8725 6.97515 14.8779 7.01758C14.8725 6.97515 14.8675 6.93278 14.8613 6.89062ZM14.8154 6.61523C14.8242 6.66256 14.832 6.71013 14.8398 6.75781C14.832 6.71013 14.8242 6.66256 14.8154 6.61523ZM14.7607 6.35059C14.773 6.40467 14.7839 6.45911 14.7949 6.51367C14.7839 6.45911 14.773 6.40467 14.7607 6.35059ZM14.6934 6.07812C14.7097 6.13833 14.7246 6.19895 14.7393 6.25977C14.7246 6.19895 14.7097 6.13833 14.6934 6.07812ZM14.6172 5.81738C14.6374 5.88149 14.6565 5.94593 14.6748 6.01074C14.6565 5.94593 14.6374 5.88149 14.6172 5.81738ZM14.54 5.58887C14.5571 5.63689 14.5739 5.68497 14.5898 5.7334C14.5739 5.68497 14.5571 5.63689 14.54 5.58887ZM14.4355 5.31348C14.4593 5.37216 14.4828 5.43092 14.5049 5.49023C14.4828 5.43093 14.4593 5.37216 14.4355 5.31348ZM14.3389 5.08594C14.364 5.14199 14.3885 5.19824 14.4121 5.25488C14.3885 5.19825 14.364 5.14198 14.3389 5.08594ZM14.2119 4.81836C14.2412 4.8766 14.2694 4.93524 14.2969 4.99414C14.2694 4.93525 14.2412 4.87659 14.2119 4.81836ZM14.0596 4.53223C14.0158 4.45456 13.9709 4.37723 13.9238 4.30078L13.7734 4.06641C13.8758 4.21905 13.9707 4.37457 14.0596 4.53223ZM10.3906 4.15332C10.5694 4.2551 10.7374 4.36876 10.8955 4.49316C10.7374 4.36884 10.5694 4.25506 10.3906 4.15332ZM14.5029 14.0859C14.4508 14.1425 14.397 14.1971 14.3438 14.252C14.397 14.1971 14.4508 14.1425 14.5029 14.0859ZM14.916 8.58301C14.9098 8.66226 14.9022 8.741 14.8936 8.81934C14.9022 8.741 14.9099 8.66225 14.916 8.58301ZM14.0732 4.55664C14.1113 4.62485 14.148 4.69355 14.1836 4.7627C14.148 4.69356 14.1113 4.62484 14.0732 4.55664Z" fill="#7C6349"/>
</svg>
